<?xml version="1.0" standalone="no"?>
<!DOCTYPE svg PUBLIC "-//W3C//DTD SVG 20010904//EN"
 "http://www.w3.org/TR/2001/REC-SVG-20010904/DTD/svg10.dtd">
<svg version="1.0" xmlns="http://www.w3.org/2000/svg"
 width="3748.000000pt" height="1656.000000pt" viewBox="0 0 3748.000000 1656.000000"
 preserveAspectRatio="xMidYMid meet">
<metadata>
Created by potrace 1.16, written by Peter Selinger 2001-2019
</metadata>
<g transform="translate(0.000000,1656.000000) scale(0.100000,-0.100000)"
fill="#000000" stroke="none">
<path d="M14005 15709 c-32 -19 -85 -72 -85 -86 0 -8 -7 -24 -15 -37 -19 -29
-54 -160 -61 -234 -9 -80 13 -289 37 -356 10 -31 19 -63 19 -71 0 -20 -101
-154 -116 -154 -17 -1 -24 -27 -11 -40 29 -29 94 12 123 79 10 22 22 40 27 40
5 0 26 -17 46 -39 47 -50 69 -61 126 -61 59 0 97 20 162 83 l52 50 18 -33 c10
-18 33 -51 52 -72 35 -40 72 -49 125 -28 33 12 106 88 106 110 0 33 -13 28
-61 -21 -35 -36 -55 -49 -77 -49 -55 0 -92 70 -103 194 -9 93 -24 124 -53 113
-12 -5 -16 -21 -16 -59 -1 -69 -13 -93 -83 -173 -50 -56 -63 -65 -92 -65 -47
0 -75 13 -112 50 -49 50 -49 73 -3 165 22 44 40 88 40 97 0 9 11 38 25 63 33
64 69 281 63 387 -4 69 -8 83 -35 116 -32 39 -64 50 -98 31z m85 -85 c18 -37
19 -152 1 -259 -14 -89 -30 -141 -72 -235 -58 -129 -69 -140 -87 -93 -23 57
-32 121 -32 242 0 120 8 173 36 238 8 17 14 38 14 47 0 9 7 28 15 41 50 82 42
76 78 62 17 -7 39 -27 47 -43z"/>
<path d="M15709 15569 c-11 -7 -14 -46 -12 -210 1 -111 0 -206 -3 -210 -3 -5
-19 7 -35 26 -29 33 -32 34 -57 21 -77 -40 -168 -190 -185 -304 -10 -65 -15
-77 -32 -80 -28 -4 -75 47 -86 94 -5 22 -12 93 -15 159 -4 66 -11 126 -17 133
-20 25 -35 11 -45 -40 -25 -130 -58 -213 -126 -316 -30 -46 -57 -40 -75 18 -8
25 -17 54 -21 65 -4 11 -13 49 -19 84 -10 63 -42 124 -71 138 -8 4 -48 9 -89
12 l-75 6 -17 70 c-10 39 -18 80 -18 91 -1 30 -26 47 -56 40 -22 -6 -23 -9
-14 -33 9 -25 39 -155 39 -171 0 -4 -20 -15 -45 -25 -67 -28 -95 -54 -95 -88
0 -22 5 -29 20 -29 11 0 24 8 27 17 9 24 55 62 74 63 9 0 21 -6 26 -12 9 -12
79 -270 85 -313 4 -24 40 -32 57 -11 10 11 6 35 -19 118 -64 214 -62 208 -49
224 9 11 24 13 58 8 75 -10 79 -17 133 -229 27 -109 42 -135 76 -135 52 0 142
79 142 126 0 10 10 42 22 71 22 55 38 55 38 1 0 -45 39 -136 68 -159 22 -17
36 -20 79 -16 42 4 54 2 69 -14 57 -63 197 35 248 174 20 53 32 53 42 -1 10
-55 48 -134 77 -161 24 -21 33 -23 91 -19 73 6 138 42 211 117 l39 41 91 -6
c74 -5 109 -3 190 16 55 12 111 28 125 35 14 7 42 16 63 20 20 4 37 11 37 15
0 4 27 13 59 18 94 17 136 56 91 84 -11 7 -39 -1 -100 -30 -90 -42 -104 -47
-241 -87 -93 -27 -205 -33 -251 -12 -26 11 -27 13 -14 42 8 17 21 47 30 68 10
21 20 69 23 107 6 67 5 70 -25 99 -36 37 -54 38 -94 9 -53 -37 -88 -104 -88
-167 0 -72 15 -123 45 -159 l24 -29 -32 -30 c-80 -75 -128 -103 -177 -103 -70
0 -93 34 -129 190 -19 78 -23 137 -28 337 -6 246 -9 264 -44 242z m501 -341
c17 -18 21 -32 17 -64 -6 -57 -58 -165 -77 -161 -36 6 -52 135 -24 190 33 65
50 71 84 35z m-565 -118 c10 -11 26 -20 37 -20 62 0 -45 -226 -137 -286 -19
-13 -27 -13 -44 -2 -31 19 -30 131 1 185 35 60 88 131 101 137 20 8 23 7 42
-14z"/>
<path d="M12107 15212 c-9 -10 -17 -28 -17 -39 0 -11 -11 -26 -25 -33 -14 -7
-25 -17 -25 -22 0 -5 -11 -24 -26 -43 -20 -27 -27 -51 -35 -126 -6 -66 -6
-103 2 -128 32 -99 116 -110 200 -28 l37 36 39 -52 c32 -44 44 -52 75 -55 53
-5 111 35 149 103 17 30 32 55 34 55 7 0 37 -67 51 -112 16 -53 42 -74 66 -55
22 17 28 62 17 127 -13 82 6 171 47 218 l33 37 29 -30 c27 -28 102 -205 102
-242 0 -7 7 -29 14 -48 14 -33 16 -34 42 -23 l26 12 -7 91 c-5 80 -4 97 17
150 43 113 77 148 106 112 6 -7 18 -53 28 -102 9 -50 24 -115 33 -145 16 -50
20 -55 47 -55 24 0 30 4 32 28 2 16 -3 36 -12 46 -8 9 -19 36 -25 61 -44 200
-55 227 -104 244 -30 11 -77 -14 -77 -41 0 -9 -6 -24 -14 -32 -24 -27 -56 -91
-56 -110 0 -10 -7 -21 -15 -25 -11 -4 -22 9 -39 43 -35 68 -74 111 -100 111
-29 0 -108 -74 -128 -120 -9 -19 -19 -52 -23 -74 -3 -21 -10 -35 -15 -30 -14
15 -70 127 -70 141 0 7 -11 20 -26 29 -35 24 -49 8 -35 -42 16 -58 13 -107
-10 -171 -25 -68 -41 -89 -76 -98 -31 -7 -45 4 -78 62 -19 35 -27 66 -31 132
-4 54 -13 100 -25 124 -10 21 -19 48 -19 61 0 50 -82 92 -113 58z m77 -64 c18
-29 16 -260 -3 -299 -7 -15 -31 -36 -52 -49 -37 -20 -42 -21 -64 -6 -68 45
-54 233 27 349 25 35 71 37 92 5z"/>
<path d="M13403 15224 c-25 -11 -14 -34 16 -34 75 0 171 -156 142 -232 -10
-27 -110 -108 -133 -108 -9 0 -20 6 -26 13 -11 13 -34 173 -37 252 -1 45 -4
51 -29 60 -23 8 -30 6 -42 -9 -14 -20 -13 -33 11 -121 8 -27 20 -88 26 -134
13 -82 13 -84 -9 -101 -12 -10 -28 -20 -34 -22 -21 -7 3 -28 31 -28 35 0 40
-12 74 -180 34 -170 60 -267 75 -282 10 -10 17 -8 34 10 18 18 20 25 11 44
-31 65 -87 301 -95 397 l-3 43 70 38 c39 22 85 55 104 76 33 36 34 37 27 106
-5 54 -13 79 -36 111 -62 90 -73 99 -120 103 -25 2 -51 1 -57 -2z"/>
<path d="M13846 13654 c-4 -9 -4 -50 0 -91 8 -84 0 -120 -51 -228 -18 -38 -37
-81 -41 -95 -3 -14 -24 -40 -45 -58 -22 -19 -39 -42 -39 -51 0 -27 33 -51 68
-51 29 0 32 3 32 29 0 21 12 39 45 70 85 79 80 122 82 -619 1 -360 2 -812 3
-1005 0 -192 5 -431 10 -530 5 -99 12 -349 14 -555 3 -206 8 -440 11 -520 3
-80 10 -296 15 -480 6 -184 15 -414 20 -510 8 -160 24 -597 23 -663 0 -15 -3
-30 -6 -33 -3 -3 -43 5 -89 19 -46 14 -128 37 -183 51 -55 15 -129 35 -165 46
-36 10 -78 21 -95 24 -16 3 -77 19 -135 36 -58 16 -159 41 -225 55 -66 15
-176 43 -245 62 -69 19 -152 41 -185 48 -33 7 -94 22 -135 33 -110 30 -384 98
-470 118 -41 9 -104 25 -140 36 -36 11 -110 31 -165 44 -121 30 -238 60 -325
85 -130 36 -298 78 -440 109 -80 17 -158 35 -175 40 -16 4 -75 18 -130 30 -55
12 -165 42 -245 67 -167 51 -231 69 -315 89 -33 8 -85 23 -115 34 -125 42
-487 147 -575 166 -16 3 -66 16 -110 29 -44 13 -123 36 -175 51 -52 15 -111
35 -130 45 -270 134 -536 222 -845 279 -66 12 -134 28 -150 36 -27 12 -149 49
-450 136 -38 11 -92 32 -120 46 -27 13 -106 40 -175 58 -69 18 -145 39 -170
47 -25 9 -121 40 -215 70 -154 49 -329 114 -373 136 -30 16 -130 34 -148 27
-15 -6 -13 -11 17 -36 19 -16 39 -29 44 -30 6 0 23 -11 38 -25 24 -23 27 -33
28 -93 1 -37 2 -76 3 -87 0 -11 -2 -28 -7 -37 -5 -12 -1 -24 13 -38 18 -18 25
-14 21 13 -7 43 -6 98 1 126 7 22 6 37 -1 44 -17 17 -13 35 8 46 21 12 77 -5
184 -53 32 -14 70 -26 85 -26 16 0 32 -4 38 -9 9 -9 175 -63 379 -122 106 -31
112 -33 249 -84 49 -19 132 -45 185 -60 53 -14 123 -35 156 -45 33 -10 104
-33 159 -50 54 -17 101 -28 104 -25 3 2 10 1 16 -4 14 -11 108 -31 145 -31 29
0 55 -7 231 -60 225 -67 295 -92 385 -135 52 -25 100 -45 106 -45 7 0 26 -9
43 -19 36 -23 236 -91 265 -91 11 0 30 -4 43 -9 23 -9 87 -26 203 -55 148 -37
227 -59 321 -92 56 -18 110 -34 120 -34 10 0 46 -11 79 -24 33 -13 107 -36
165 -51 194 -49 315 -82 395 -109 44 -14 90 -26 102 -26 12 0 57 -9 100 -19
43 -11 137 -33 208 -50 72 -17 207 -52 300 -77 94 -25 184 -48 200 -51 17 -2
57 -13 90 -22 33 -10 85 -24 115 -30 30 -7 66 -16 80 -21 64 -20 219 -61 365
-95 88 -21 192 -46 230 -56 39 -11 122 -31 185 -45 63 -15 135 -34 160 -44 25
-9 97 -29 160 -44 433 -100 550 -129 800 -200 47 -13 126 -34 175 -47 50 -12
102 -31 118 -41 25 -18 27 -24 27 -91 0 -40 7 -153 15 -252 8 -99 15 -241 15
-316 0 -75 4 -192 10 -260 5 -68 11 -182 14 -252 l4 -128 -29 -33 c-23 -26
-29 -43 -29 -78 0 -37 5 -49 34 -77 33 -32 38 -34 85 -28 28 3 61 13 75 22 30
20 61 15 145 -22 172 -76 496 -198 676 -253 33 -10 92 -31 130 -45 39 -15 97
-36 130 -47 33 -11 64 -24 69 -29 6 -5 16 -186 22 -401 7 -216 18 -460 24
-543 22 -296 29 -465 35 -785 3 -179 10 -449 15 -600 6 -151 12 -482 15 -734
3 -253 8 -463 11 -468 3 -5 5 -57 5 -117 -1 -109 9 -195 26 -212 4 -4 19 -6
32 -2 23 6 23 8 16 67 -9 72 -8 56 -28 511 -8 198 -16 434 -17 525 -1 91 -3
192 -4 225 -1 33 -8 267 -14 520 -14 539 -28 885 -42 1045 -27 325 -42 922
-24 940 7 7 56 -5 145 -34 74 -25 168 -54 209 -66 41 -12 102 -32 135 -44 87
-34 394 -131 506 -161 53 -13 116 -33 140 -44 24 -11 94 -33 154 -50 61 -16
148 -43 195 -59 77 -27 168 -58 290 -98 25 -9 99 -31 165 -51 66 -19 176 -53
245 -74 69 -22 170 -53 225 -70 55 -17 114 -35 130 -40 17 -6 55 -16 85 -23
184 -43 515 -140 690 -202 114 -40 317 -105 420 -134 41 -12 140 -43 220 -70
152 -50 245 -79 345 -106 33 -9 76 -22 95 -30 19 -7 85 -27 145 -44 102 -29
409 -124 500 -156 22 -7 64 -18 93 -25 32 -6 52 -16 49 -22 -2 -7 -32 -31 -68
-54 -35 -23 -85 -64 -111 -90 -39 -38 -45 -49 -35 -61 16 -20 96 -10 227 28
58 17 150 35 205 40 183 18 264 32 276 46 19 23 -3 60 -40 67 -21 4 -65 39
-134 104 -57 54 -129 121 -161 148 -43 37 -60 59 -65 85 -6 30 -13 37 -49 50
-32 11 -47 12 -60 3 -19 -12 -19 -23 1 -113 8 -36 18 -91 22 -123 7 -54 6 -57
-15 -57 -23 0 -158 41 -310 95 -52 19 -158 53 -235 75 -77 23 -196 59 -265 80
-69 21 -141 41 -160 45 -46 9 -546 170 -735 236 -46 16 -195 63 -400 125 -105
32 -513 145 -545 151 -14 3 -108 31 -210 63 -291 92 -612 191 -650 201 -19 4
-69 21 -110 37 -41 16 -133 46 -205 67 -71 20 -186 54 -255 75 -69 21 -208 64
-310 95 -102 31 -214 67 -250 80 -36 12 -144 46 -240 75 -177 53 -266 85 -286
104 -16 15 -26 294 -22 571 2 121 2 267 0 323 -4 123 -5 121 158 188 25 10 61
28 80 39 35 21 66 36 375 184 94 45 177 86 185 91 8 6 49 26 90 45 41 20 82
40 90 45 8 6 22 13 30 16 8 3 51 22 95 43 120 57 204 95 265 121 30 13 109 50
175 82 66 32 124 58 128 58 4 0 24 11 45 24 20 12 48 26 62 31 39 11 292 136
319 157 13 10 32 18 41 18 10 0 64 23 120 52 71 35 107 48 117 42 18 -11 60
-111 78 -185 8 -31 21 -72 29 -90 8 -19 21 -50 29 -69 9 -19 33 -89 55 -155
43 -131 50 -147 128 -310 72 -149 124 -220 248 -336 92 -86 112 -100 169 -118
173 -53 318 -62 451 -27 90 24 312 138 386 198 36 29 82 66 103 82 21 15 73
60 116 100 130 120 317 281 363 311 24 16 61 43 83 60 54 42 121 80 170 95 22
7 52 21 66 31 51 35 237 92 393 120 70 12 70 12 91 -15 14 -18 30 -26 51 -26
51 0 164 -132 164 -191 0 -9 7 -22 15 -29 8 -7 15 -19 15 -28 0 -8 7 -40 16
-71 18 -65 28 -104 45 -181 7 -30 16 -60 21 -66 4 -6 12 -31 18 -55 32 -145
63 -255 86 -306 8 -17 14 -37 14 -44 0 -6 23 -60 52 -118 28 -58 55 -117 61
-131 5 -14 14 -34 20 -45 40 -73 75 -141 110 -210 41 -84 61 -110 188 -241 73
-76 82 -82 129 -88 49 -7 51 -6 48 15 -2 13 -39 54 -90 98 -79 69 -138 134
-194 216 -25 36 -77 138 -169 330 -36 77 -71 148 -76 157 -5 10 -9 23 -9 30 0
7 -7 27 -16 43 -22 41 -32 73 -59 190 -13 55 -35 138 -50 185 -27 86 -32 104
-59 220 -35 152 -91 260 -188 363 -73 77 -74 77 -125 77 -73 0 -313 -53 -423
-93 -96 -35 -319 -157 -372 -203 -20 -18 -56 -46 -80 -61 -50 -32 -125 -95
-292 -247 -212 -191 -308 -262 -451 -332 -173 -85 -229 -98 -370 -90 -121 7
-227 32 -277 67 -63 44 -166 144 -215 209 -52 70 -113 163 -113 173 0 4 -14
35 -31 69 -33 68 -52 117 -104 273 -18 55 -40 114 -49 130 -9 17 -16 38 -16
47 0 9 -4 20 -10 23 -5 3 -19 38 -30 78 -12 40 -32 98 -46 130 -13 32 -24 65
-24 73 0 9 32 29 78 50 42 20 84 40 92 44 8 5 89 46 180 90 91 45 188 93 215
108 28 14 58 29 68 34 9 4 26 13 37 18 11 5 26 10 33 10 8 0 41 13 73 30 32
16 64 30 70 30 14 0 139 56 269 121 55 27 107 49 116 49 8 0 19 4 25 9 5 5 50
27 99 49 141 62 205 91 270 121 33 16 89 41 125 56 73 31 190 85 263 121 27
13 57 24 66 24 21 0 36 -43 51 -149 6 -40 13 -77 15 -81 3 -5 10 -32 15 -62
11 -56 16 -72 58 -156 39 -78 86 -130 130 -142 56 -15 112 -12 160 10 24 11
62 25 85 31 57 15 143 69 192 119 22 23 69 62 105 88 36 25 89 67 118 92 29
26 77 60 108 75 51 26 59 27 135 21 97 -9 145 -35 220 -121 46 -53 99 -141 99
-165 0 -5 13 -38 29 -72 16 -35 32 -79 36 -98 7 -37 42 -104 82 -156 12 -17
23 -35 23 -41 0 -13 113 -93 132 -93 7 0 22 -7 32 -15 26 -20 69 -19 169 5 79
18 107 27 167 54 14 6 73 50 133 99 150 123 165 131 236 124 32 -2 72 -12 90
-21 49 -26 107 -82 122 -119 7 -17 23 -46 36 -63 13 -17 23 -37 23 -45 1 -8 9
-32 20 -54 11 -22 19 -47 20 -56 0 -22 108 -112 125 -105 20 7 19 28 -3 57
-11 13 -43 78 -72 144 -30 66 -60 127 -67 136 -7 8 -13 20 -13 25 0 6 -23 36
-52 68 -69 78 -131 106 -234 106 -74 0 -77 -1 -142 -47 -37 -25 -85 -63 -107
-83 -105 -96 -164 -127 -297 -154 -102 -21 -172 -1 -204 59 -10 19 -40 50 -67
70 -51 38 -93 113 -117 208 -13 51 -17 61 -63 157 -60 124 -142 210 -221 231
-22 6 -49 17 -60 25 -40 28 -190 9 -254 -32 -15 -9 -49 -34 -77 -56 -27 -21
-95 -74 -150 -117 -55 -42 -106 -85 -114 -95 -47 -57 -226 -136 -307 -136 -46
0 -53 4 -91 43 -22 23 -55 73 -73 111 -33 70 -70 220 -70 285 0 20 -7 59 -15
86 -15 49 -15 50 6 65 48 33 185 100 205 100 12 0 27 6 33 14 6 7 25 16 42 20
17 3 43 14 57 24 15 10 46 24 70 31 23 6 57 25 76 41 18 16 55 39 82 50 27 12
99 46 159 75 250 122 253 123 229 15 -11 -47 -13 -70 -5 -87 15 -33 46 -28 72
10 37 52 244 270 288 302 32 23 41 36 39 55 -3 25 -4 25 -103 26 -55 1 -169 5
-253 9 -160 8 -182 3 -182 -35 0 -19 19 -30 51 -30 11 0 23 -8 26 -17 4 -10
17 -35 31 -57 13 -21 20 -42 15 -45 -4 -4 -30 -16 -58 -26 -27 -10 -93 -40
-146 -66 -139 -69 -217 -97 -261 -91 -30 3 -37 0 -43 -17 -9 -29 -42 -50 -190
-116 -71 -32 -134 -61 -140 -66 -5 -4 -43 -24 -83 -44 l-72 -38 -21 27 c-11
14 -41 40 -65 57 l-45 31 -77 -17 c-42 -9 -95 -20 -117 -24 -38 -7 -150 -59
-260 -119 -27 -15 -90 -59 -140 -98 -136 -107 -198 -143 -284 -164 -42 -11
-88 -20 -103 -20 -45 0 -109 57 -146 130 -31 63 -33 72 -48 280 -8 118 -19
219 -23 225 -5 5 -11 21 -14 35 -6 24 -66 111 -110 158 -33 36 -83 53 -172 58
l-80 6 -122 -61 c-87 -43 -129 -70 -148 -95 -15 -19 -24 -40 -21 -45 8 -13 30
-4 123 47 100 55 188 81 269 79 l66 -2 54 -58 c94 -101 104 -137 124 -458 12
-185 28 -227 121 -313 48 -45 67 -56 94 -56 61 0 205 39 268 73 57 30 94 56
220 154 130 102 367 203 473 203 47 0 108 -40 102 -67 -2 -8 -33 -27 -69 -43
-36 -15 -114 -51 -174 -79 -59 -28 -109 -51 -112 -51 -2 0 -34 -14 -71 -31
-37 -17 -125 -58 -197 -90 -71 -33 -151 -71 -176 -84 -26 -14 -52 -25 -58 -25
-5 0 -55 -22 -110 -49 -55 -27 -137 -63 -183 -81 -46 -17 -113 -47 -151 -66
-37 -19 -72 -34 -78 -34 -10 0 -464 -219 -499 -241 -27 -17 -142 -69 -164 -75
-25 -6 -25 -5 -86 156 -56 148 -130 287 -186 348 -29 32 -87 78 -131 104 -66
40 -92 50 -162 60 -66 9 -93 9 -134 -2 -137 -34 -302 -148 -443 -306 -80 -90
-287 -274 -371 -330 -140 -94 -419 -227 -509 -244 -96 -17 -130 -9 -190 45
-47 43 -74 56 -74 36 0 -5 -3 -16 -6 -24 -9 -23 61 -93 112 -113 34 -13 64
-16 127 -12 46 3 92 10 103 15 10 5 39 20 64 33 25 13 105 54 178 91 246 127
338 197 601 460 169 169 264 236 383 274 172 53 382 -59 485 -260 61 -119 127
-286 138 -347 7 -35 5 -38 -26 -51 -79 -33 -211 -95 -304 -144 -55 -29 -126
-65 -159 -80 -32 -15 -144 -70 -250 -122 -105 -51 -220 -104 -256 -118 -36
-13 -87 -35 -115 -48 -167 -77 -246 -115 -380 -183 -189 -95 -192 -96 -240
-117 -22 -10 -162 -78 -312 -152 -234 -114 -300 -143 -304 -130 -7 29 -14 369
-7 387 5 13 6 35 3 48 -5 22 -9 23 -53 17 -36 -5 -61 -1 -97 13 -28 11 -120
38 -205 61 -85 24 -184 51 -220 61 -36 10 -92 26 -125 35 -33 9 -78 22 -100
30 -22 7 -78 23 -125 35 -47 12 -103 28 -126 35 -47 16 -226 65 -269 74 -25 6
-31 13 -36 46 -9 54 -22 299 -24 465 -2 133 -19 533 -34 825 -4 83 -7 166 -5
185 1 19 -2 150 -7 290 -18 543 -31 1432 -32 2297 -2 770 0 904 12 908 12 5
56 -21 136 -80 29 -21 85 -24 98 -4 8 12 1 27 -31 68 -40 50 -125 196 -147
251 -21 53 -74 146 -91 162 -30 26 -70 33 -78 12z m339 -5510 c44 -14 127 -38
185 -54 58 -16 128 -35 155 -43 56 -17 180 -52 240 -68 22 -6 63 -19 90 -29
28 -10 111 -34 185 -55 74 -20 166 -49 204 -63 l69 -27 14 -65 c13 -59 31
-273 28 -324 -1 -24 -98 -78 -255 -140 -52 -21 -99 -41 -105 -45 -5 -5 -125
-59 -265 -121 -140 -61 -300 -132 -355 -157 -131 -59 -146 -63 -195 -51 -50
13 -55 24 -64 138 -4 47 -9 108 -12 135 -2 28 -9 149 -14 270 -9 201 -21 426
-35 643 l-5 82 28 0 c15 0 63 -12 107 -26z m1176 -891 c0 -32 1 -244 2 -471
l2 -413 -27 6 c-15 4 -74 24 -130 46 -57 22 -141 53 -188 69 -47 16 -130 46
-185 66 -55 19 -120 42 -144 50 -24 8 -49 18 -55 22 -6 5 -38 17 -71 27 -33
11 -64 23 -69 27 -6 4 -16 8 -23 8 -7 0 -46 15 -85 34 -40 18 -85 39 -100 45
-22 8 -28 17 -28 40 0 28 6 33 83 69 206 99 277 132 284 132 4 0 30 11 58 24
27 13 75 34 105 46 30 12 79 33 108 46 134 61 163 74 243 112 48 23 98 44 113
48 14 3 29 10 32 15 3 5 21 9 40 9 l34 0 1 -57z"/>
<path d="M21596 11516 c-48 -28 -90 -84 -110 -145 -23 -71 -37 -243 -27 -356
9 -109 4 -125 -38 -125 -32 0 -119 -44 -143 -72 -23 -26 -24 -84 -2 -92 22 -8
34 1 34 28 0 58 159 120 174 69 37 -127 58 -391 36 -466 -6 -25 -9 -54 -5 -66
7 -23 34 -28 53 -9 19 19 16 303 -4 408 -9 47 -18 97 -21 111 -3 15 0 30 6 33
18 12 80 -22 100 -55 22 -36 48 -171 47 -243 -2 -53 10 -64 43 -46 20 10 21
19 20 159 0 139 1 151 23 183 65 95 99 118 178 118 52 0 66 15 35 40 -18 15
-95 6 -140 -17 -39 -20 -113 -90 -131 -126 -15 -27 -16 -28 -37 -13 -56 41
-81 54 -117 60 -33 5 -40 11 -48 38 -29 93 -15 375 21 444 34 65 66 94 106 94
51 0 81 -23 81 -63 -1 -36 -30 -77 -54 -77 -9 0 -16 4 -16 9 0 14 -42 21 -62
10 -24 -13 -24 -49 0 -49 10 0 31 -13 47 -30 37 -38 66 -38 104 1 37 36 45 65
37 122 -17 113 -107 171 -190 123z"/>
<path d="M24792 11007 c-7 -8 -15 -36 -18 -63 -14 -103 -156 -302 -229 -320
-49 -12 -60 4 -63 93 -2 71 0 85 25 133 17 31 41 60 58 70 37 20 42 41 16 64
-31 28 -62 13 -98 -47 -48 -80 -63 -133 -63 -223 0 -68 4 -87 23 -115 45 -68
148 -43 233 57 24 28 44 55 44 60 0 19 52 86 60 77 5 -4 13 -45 18 -90 11 -88
51 -186 124 -300 55 -86 50 -100 -53 -152 -104 -53 -155 -56 -193 -10 -14 17
-26 36 -26 43 0 16 30 57 79 109 41 43 26 50 -38 17 -75 -38 -104 -130 -60
-191 49 -69 127 -75 242 -21 37 18 71 32 76 32 22 0 71 59 71 87 0 27 -43 120
-80 173 -64 92 -87 180 -98 385 -6 116 -10 140 -23 143 -9 1 -21 -3 -27 -11z"/>
<path d="M28564 10957 c-39 -23 -90 -54 -112 -69 -22 -15 -115 -65 -208 -112
-92 -47 -179 -96 -193 -109 -14 -13 -53 -35 -86 -50 -33 -14 -80 -37 -105 -51
-57 -32 -467 -236 -473 -236 -5 0 -126 -56 -292 -135 -38 -18 -131 -59 -205
-90 -74 -31 -169 -71 -210 -90 -42 -19 -79 -35 -83 -35 -3 0 -63 -27 -131 -60
-69 -33 -128 -60 -132 -60 -3 0 -34 -12 -68 -27 -33 -14 -97 -41 -141 -60 -44
-19 -107 -47 -140 -62 -237 -110 -333 -155 -355 -168 -31 -18 -449 -223 -454
-223 -9 0 -206 -95 -434 -209 -133 -66 -247 -121 -253 -121 -6 0 -47 -18 -92
-39 -45 -22 -93 -42 -107 -46 -14 -4 -43 -17 -65 -30 -22 -12 -98 -48 -170
-80 -168 -75 -362 -172 -369 -184 -4 -5 -23 -15 -44 -22 -20 -6 -64 -25 -97
-41 -33 -16 -80 -38 -105 -48 -25 -10 -162 -75 -305 -145 -482 -235 -520 -253
-600 -291 -44 -20 -93 -43 -110 -49 -16 -7 -93 -40 -170 -74 -77 -33 -145 -61
-151 -61 -6 0 -33 -9 -59 -21 l-48 -21 6 -152 c3 -83 10 -164 17 -181 7 -19
15 -137 20 -310 5 -155 13 -344 19 -420 22 -289 34 -486 41 -675 8 -213 35
-629 51 -780 5 -53 16 -213 24 -356 8 -143 19 -283 25 -310 5 -27 15 -121 20
-209 14 -206 24 -298 50 -470 11 -77 28 -187 36 -245 8 -58 21 -145 29 -195
17 -110 62 -442 75 -545 5 -41 16 -111 24 -155 8 -44 15 -94 16 -111 0 -26 34
-76 43 -63 1 2 8 11 15 21 11 13 9 31 -7 95 -10 43 -26 125 -35 183 -17 114
-76 533 -79 564 -1 13 8 22 28 30 17 6 55 27 85 47 68 45 229 139 290 169 75
38 226 137 395 259 133 96 168 116 205 121 72 8 78 30 90 322 5 134 15 331 21
438 6 107 15 326 20 485 11 366 21 470 53 570 14 44 26 103 26 130 0 28 7 96
15 152 8 56 17 128 20 160 3 32 10 99 15 148 5 50 17 177 27 284 12 128 22
196 30 198 19 7 68 -97 113 -242 26 -85 74 -216 87 -240 6 -11 27 -60 46 -110
19 -49 42 -103 51 -120 9 -16 19 -44 22 -62 3 -18 12 -37 20 -44 8 -6 14 -23
14 -38 0 -15 4 -31 9 -36 5 -6 14 -28 21 -50 7 -22 19 -49 26 -60 8 -11 14
-26 14 -35 0 -8 12 -37 25 -65 14 -27 25 -56 25 -62 0 -14 36 -90 93 -196 20
-38 37 -73 37 -78 0 -6 15 -43 34 -82 18 -40 41 -90 51 -112 18 -45 23 -56 59
-138 14 -32 26 -62 26 -68 0 -6 11 -30 25 -55 14 -25 25 -52 25 -62 0 -9 9
-28 20 -42 11 -14 20 -31 20 -38 0 -7 23 -66 50 -131 28 -65 50 -128 50 -139
0 -42 58 -37 116 10 16 13 47 34 69 45 22 11 54 28 70 37 53 28 248 117 300
137 28 10 91 42 140 69 50 28 178 93 285 145 107 53 272 134 365 182 285 144
818 409 860 428 75 32 83 37 95 60 8 16 9 28 2 41 -6 11 -8 30 -6 44 7 42 35
419 40 530 2 58 6 135 8 171 3 36 1 96 -4 134 -11 91 -3 165 19 165 16 0 111
-159 111 -186 0 -8 9 -28 19 -46 11 -17 17 -36 14 -41 -3 -6 1 -15 10 -22 8
-6 25 -40 37 -76 12 -35 27 -77 35 -94 21 -50 39 -119 36 -142 -1 -13 2 -23 8
-23 6 0 11 -8 11 -17 1 -10 14 -56 31 -103 17 -47 36 -101 42 -120 23 -70 50
-74 162 -24 44 20 122 51 173 69 51 18 98 38 106 44 7 6 33 18 57 26 24 9 80
33 124 54 44 22 98 47 120 56 22 10 103 48 180 85 77 36 156 73 175 80 19 8
53 25 75 38 21 14 73 37 115 53 204 75 312 137 290 165 -7 7 -28 16 -47 20
-27 5 -39 2 -57 -15 -13 -12 -59 -37 -102 -55 -44 -18 -120 -54 -169 -79 -50
-25 -117 -57 -150 -70 -33 -14 -112 -52 -176 -85 -64 -33 -127 -63 -140 -67
-13 -4 -58 -24 -100 -45 -168 -84 -401 -174 -493 -190 -93 -16 -91 -17 -116
53 -12 34 -28 76 -36 92 -7 17 -21 57 -30 90 -45 165 -91 295 -128 361 -14 26
-26 52 -26 58 0 7 -20 54 -45 105 -25 51 -45 99 -45 107 0 8 -9 33 -20 55 -12
22 -19 47 -18 57 4 20 -38 30 -56 12 -27 -27 -38 -147 -40 -415 -1 -148 -7
-315 -14 -370 -7 -55 -16 -134 -22 -175 -5 -41 -14 -118 -21 -170 -6 -56 -17
-102 -26 -112 -8 -9 -54 -36 -102 -60 -47 -23 -124 -64 -170 -90 -46 -27 -131
-69 -190 -94 -58 -25 -141 -66 -185 -91 -92 -54 -238 -132 -316 -169 -91 -43
-494 -244 -510 -254 -8 -5 -67 -32 -130 -61 -63 -28 -137 -62 -165 -76 -27
-13 -75 -33 -105 -43 -73 -24 -196 -82 -243 -114 -36 -24 -57 -27 -57 -6 0 4
-20 50 -45 102 -25 51 -45 99 -45 106 0 12 -63 153 -96 214 -8 14 -14 32 -14
38 0 7 -15 45 -34 84 -75 158 -95 203 -116 255 -11 29 -45 101 -75 160 -56
110 -123 269 -170 406 -16 44 -34 89 -40 100 -7 11 -16 33 -19 49 -4 15 -15
47 -26 70 -10 22 -30 73 -45 111 -14 39 -31 78 -36 89 -6 10 -18 42 -26 70 -8
28 -18 56 -22 61 -4 6 -14 30 -21 55 -7 25 -17 50 -21 55 -5 6 -13 33 -19 60
-12 58 -76 230 -98 263 -20 31 -41 28 -85 -14 -33 -31 -37 -41 -31 -63 13 -43
4 -184 -31 -476 -8 -66 -18 -149 -21 -185 -4 -36 -13 -96 -21 -135 -23 -113
-34 -185 -38 -260 -2 -38 -6 -79 -9 -90 -13 -56 -36 -401 -41 -635 -4 -146 -8
-292 -10 -325 -2 -33 -6 -109 -9 -170 -18 -326 -34 -441 -74 -517 -31 -59
-108 -148 -128 -148 -8 0 -42 -23 -75 -50 -62 -52 -203 -150 -215 -150 -4 0
-28 -16 -55 -35 -26 -19 -88 -55 -136 -80 -195 -100 -320 -174 -342 -201 -18
-22 -51 -33 -51 -16 0 4 -14 99 -31 212 -44 290 -57 398 -74 620 -9 107 -20
222 -25 255 -9 59 -19 194 -40 550 -14 240 -30 466 -41 600 -5 61 -13 214 -18
342 -5 128 -12 236 -14 240 -3 5 -8 74 -12 153 -3 80 -8 161 -11 180 -2 19 -9
190 -14 380 -7 268 -12 355 -24 389 -11 29 -16 80 -16 157 l0 114 28 6 c15 4
32 10 37 14 6 4 51 24 100 45 152 64 394 175 562 258 50 25 102 48 115 52 29
10 171 76 418 198 198 97 405 196 495 237 27 12 66 33 87 46 21 13 43 24 50
24 7 0 24 9 38 20 14 11 31 20 38 20 7 0 59 22 115 48 148 71 163 78 262 117
50 20 118 51 153 70 34 19 62 33 62 30 0 -2 71 31 158 74 86 43 198 97 247
121 50 24 178 86 285 138 359 174 455 219 521 245 37 15 93 41 125 60 33 18
75 39 94 47 19 7 71 30 115 50 44 20 105 47 135 59 65 26 77 31 150 64 30 14
75 33 100 42 25 10 81 34 125 55 44 21 89 40 100 43 37 10 229 94 330 146 55
28 105 51 110 51 6 0 47 18 93 40 46 22 85 40 88 40 5 0 34 13 164 72 126 58
179 84 215 108 22 15 49 30 60 33 66 20 126 46 165 71 144 94 273 170 328 193
20 8 55 28 77 43 69 47 187 110 206 110 14 0 19 -11 24 -57 4 -32 13 -87 20
-123 8 -36 17 -103 21 -150 4 -47 9 -103 11 -125 21 -248 46 -486 67 -630 8
-55 17 -154 20 -220 16 -335 42 -674 67 -865 4 -36 13 -159 19 -274 5 -115 15
-234 20 -265 5 -31 17 -114 25 -186 9 -71 23 -186 32 -255 8 -69 17 -138 18
-155 2 -16 10 -64 18 -105 8 -41 18 -111 22 -155 3 -44 13 -113 21 -153 8 -41
19 -146 25 -235 6 -89 17 -200 25 -247 9 -47 19 -146 24 -220 5 -74 17 -196
28 -270 11 -76 18 -159 15 -190 -3 -31 2 -92 11 -141 9 -47 16 -115 16 -152 0
-65 -1 -67 -27 -73 -31 -6 -49 -14 -110 -49 -23 -13 -86 -38 -140 -55 -76 -25
-107 -30 -143 -25 -39 5 -49 3 -65 -15 -19 -21 -97 -60 -119 -60 -7 0 -27 -13
-46 -30 -19 -16 -39 -29 -44 -30 -5 0 -17 -6 -25 -13 -9 -8 -38 -22 -66 -32
-27 -9 -95 -39 -150 -65 -55 -27 -120 -57 -145 -68 -25 -11 -91 -41 -147 -66
-56 -25 -106 -46 -110 -46 -4 0 -35 -14 -68 -30 -33 -16 -65 -30 -71 -30 -7 0
-48 -18 -93 -40 -44 -22 -87 -40 -94 -40 -7 0 -17 -4 -23 -10 -5 -5 -41 -20
-79 -33 -89 -31 -177 -67 -440 -180 -38 -16 -108 -45 -155 -64 -47 -19 -123
-51 -170 -72 -241 -109 -297 -135 -412 -190 -70 -33 -143 -67 -165 -75 -78
-30 -239 -96 -258 -108 -25 -15 -132 -67 -210 -102 -33 -15 -69 -33 -80 -39
-43 -24 -114 -56 -205 -92 -52 -21 -99 -41 -105 -45 -5 -4 -28 -13 -50 -20
-38 -12 -119 -45 -230 -95 -27 -12 -95 -41 -150 -65 -55 -23 -127 -55 -160
-70 -33 -16 -98 -45 -145 -66 -47 -20 -122 -54 -168 -75 -46 -22 -86 -39 -89
-39 -3 0 -51 -22 -106 -49 -56 -27 -129 -61 -162 -74 -92 -39 -203 -85 -238
-101 -18 -7 -63 -27 -102 -44 -38 -17 -95 -40 -125 -53 -30 -12 -59 -26 -65
-30 -5 -4 -50 -23 -100 -44 -49 -20 -113 -47 -142 -61 -28 -13 -55 -24 -58
-24 -4 0 -21 -7 -38 -15 -51 -23 -180 -76 -202 -82 -11 -3 -67 -26 -125 -51
-58 -25 -118 -48 -135 -52 -36 -7 -45 -38 -17 -63 18 -17 23 -15 111 28 50 25
95 45 99 45 4 0 59 23 122 51 154 68 306 133 412 174 48 19 111 45 140 58 29
13 88 38 130 55 42 18 103 43 135 58 32 14 67 30 78 34 64 27 232 104 241 111
6 5 31 16 55 24 24 8 58 22 74 30 17 7 57 26 90 40 33 15 83 38 110 52 146 73
685 306 795 343 53 18 188 79 395 180 208 101 294 140 307 140 8 0 23 7 34 15
10 8 25 15 31 15 14 0 207 82 328 140 273 130 656 298 795 350 47 17 96 38
110 45 35 18 207 85 220 85 6 0 30 10 53 22 23 11 101 45 172 74 123 50 363
153 450 194 182 85 243 112 280 124 24 9 73 31 110 51 37 19 80 35 96 35 19 0
49 14 82 38 35 26 68 41 100 46 26 4 106 32 178 63 72 30 156 58 185 62 40 6
63 15 84 36 37 35 43 71 30 160 -30 195 -32 218 -20 243 8 17 8 34 0 56 -11
34 -33 200 -50 376 -15 148 -29 257 -41 315 -5 28 -14 115 -19 195 -5 80 -13
172 -19 205 -5 33 -15 101 -21 150 -6 50 -20 149 -31 220 -37 228 -46 297 -59
430 -6 72 -16 157 -22 190 -23 135 -27 179 -37 395 -6 124 -18 268 -26 320
-14 93 -26 260 -45 635 -13 251 -17 303 -35 410 -8 50 -24 187 -35 305 -11
118 -22 226 -25 240 -3 14 -7 52 -10 85 -10 126 -25 252 -35 300 -6 28 -12 79
-15 115 -2 44 -8 66 -17 67 -7 1 -45 -17 -84 -40z"/>
<path d="M22625 10972 c-49 -30 -93 -88 -137 -179 -35 -73 -41 -94 -42 -152 0
-90 18 -121 73 -121 45 0 121 53 146 100 30 58 31 54 51 -171 6 -73 5 -78 -17
-92 -30 -19 -169 -57 -208 -57 -36 0 -83 -17 -93 -33 -9 -15 20 -47 42 -47 20
0 228 66 253 80 10 6 21 8 26 6 9 -6 27 -105 41 -226 5 -47 12 -108 16 -136 5
-39 3 -57 -10 -77 -11 -16 -13 -27 -7 -32 6 -3 11 -15 11 -25 0 -25 15 -33 47
-25 l26 6 -7 107 c-3 59 -15 159 -26 222 -30 185 -31 209 -7 222 20 11 20 11
-8 36 l-29 24 -4 262 c-4 238 -6 264 -24 294 -23 38 -65 43 -113 14z m69 -127
c-1 -90 -29 -156 -93 -219 -36 -35 -55 -47 -72 -44 -21 3 -24 9 -27 52 -2 33
3 62 17 91 11 24 23 55 27 70 11 43 97 127 125 123 23 -3 24 -7 23 -73z"/>
<path d="M23531 10953 c-57 -54 -89 -219 -68 -345 l8 -48 -55 -35 c-64 -41
-85 -43 -113 -12 -25 26 -39 98 -49 245 -7 106 -17 128 -48 103 -10 -8 -12
-28 -9 -74 5 -54 1 -73 -31 -152 -45 -112 -94 -189 -122 -193 -18 -3 -26 8
-47 60 -14 35 -28 95 -31 133 -11 115 -40 257 -54 262 -17 7 -52 -25 -52 -48
0 -9 8 -37 18 -61 11 -24 22 -79 25 -122 7 -95 53 -248 85 -283 26 -29 52 -25
96 16 31 28 96 158 96 192 0 32 23 17 32 -22 21 -85 66 -139 115 -139 43 0 92
21 118 50 38 42 53 44 91 11 30 -27 43 -31 90 -31 31 0 69 7 87 16 34 17 117
93 117 106 0 16 -23 8 -59 -20 -72 -57 -156 -68 -196 -27 -32 31 -31 54 4 118
46 81 65 159 57 236 -8 94 -47 118 -105 64z m74 -116 c-9 -72 -54 -177 -75
-177 -38 0 1 224 44 252 22 15 38 -25 31 -75z"/>
<path d="M22154 10918 c-58 -40 -108 -132 -118 -219 -4 -30 -13 -65 -22 -77
-14 -20 -13 -23 10 -44 14 -13 45 -42 68 -65 36 -38 46 -43 85 -43 28 0 65 10
98 26 58 29 64 50 11 39 -96 -20 -102 -19 -143 18 l-38 36 57 58 c115 118 163
247 106 287 -33 24 -60 20 -114 -16z m106 -46 c0 -24 -43 -87 -98 -144 -59
-62 -77 -63 -68 -5 9 52 46 118 83 146 36 26 83 28 83 3z"/>
<path d="M23855 10940 c-4 -6 -4 -32 -1 -58 4 -26 10 -105 16 -175 5 -71 13
-134 19 -140 5 -7 12 -29 16 -50 8 -42 28 -56 54 -40 13 8 16 30 16 119 0 60
5 123 11 139 7 17 17 49 24 72 14 46 43 83 64 83 20 0 34 -46 41 -135 17 -213
69 -312 128 -247 22 24 22 42 -1 42 -28 0 -49 48 -57 125 -3 39 -10 90 -15
115 -5 25 -12 62 -15 83 -8 48 -36 77 -74 77 -22 0 -38 -10 -66 -42 -19 -23
-38 -53 -42 -66 -10 -43 -40 -95 -47 -84 -4 6 -9 42 -13 79 -8 85 -37 137 -58
103z"/>
<path d="M17375 10483 c-28 -7 -75 -53 -75 -75 0 -20 44 -26 55 -8 14 23 31 6
43 -43 15 -64 15 -94 2 -102 -16 -10 -12 -61 5 -75 12 -10 15 -28 13 -69 -3
-56 -3 -56 -38 -61 -29 -4 -35 -9 -35 -29 0 -35 80 -54 205 -48 80 3 105 8
155 33 105 51 111 107 20 176 -28 21 -69 43 -93 49 -23 7 -44 15 -47 19 -2 3
16 23 40 44 51 42 57 69 24 110 -27 35 -70 56 -144 72 -62 14 -95 15 -130 7z
m260 -318 c65 -30 93 -60 79 -83 -15 -25 -100 -51 -166 -52 -48 0 -58 3 -59
18 0 9 -4 40 -8 69 -6 41 -4 56 8 67 19 20 78 12 146 -19z"/>
<path d="M6508 10029 c-7 -20 -2 -688 5 -696 4 -3 4 -23 1 -43 -4 -24 -2 -40
5 -45 9 -5 9 -10 1 -20 -12 -14 -18 -601 -7 -612 25 -24 29 65 29 651 0 55 -4
81 -13 87 -11 6 -11 11 -1 21 16 16 16 58 0 58 -8 1 -5 6 6 15 10 7 15 19 11
25 -4 6 -9 100 -11 208 -3 124 -9 199 -15 203 -7 4 -8 9 -1 13 12 7 14 98 3
127 -5 16 -9 18 -13 8z"/>
<path d="M6960 9182 c0 -10 -12 -29 -26 -43 -24 -23 -74 -117 -89 -169 -13
-44 -45 -89 -67 -92 -32 -5 -45 -32 -29 -62 12 -22 12 -33 -2 -78 -23 -77 -24
-89 -5 -101 20 -13 48 6 48 34 0 10 5 21 10 24 6 3 10 23 10 43 0 21 7 48 16
61 16 22 21 23 85 17 113 -10 109 -6 115 -126 3 -57 7 -107 10 -112 9 -14 40
-9 58 11 11 12 14 21 7 26 -6 3 -11 27 -11 53 0 26 -4 61 -9 79 -12 40 1 52
49 46 23 -3 40 -1 45 6 9 15 -13 41 -34 41 -36 0 -52 26 -67 100 -8 41 -14 91
-14 111 0 21 -7 42 -15 49 -11 9 -14 22 -10 42 8 37 -9 58 -46 58 -21 0 -29
-5 -29 -18z m33 -134 c3 -18 12 -61 19 -96 17 -71 14 -76 -46 -74 -62 3 -76
10 -76 40 1 35 35 112 51 112 6 0 9 8 6 19 -4 18 3 24 34 30 4 0 9 -14 12 -31z"/>
<path d="M15337 9023 c-12 -11 -8 -36 9 -54 15 -17 15 -21 0 -53 -9 -19 -21
-72 -28 -118 -6 -46 -18 -93 -26 -106 -8 -12 -16 -41 -17 -65 -1 -23 -5 -63
-10 -89 -7 -47 -7 -48 17 -48 35 0 44 15 52 81 8 61 20 77 73 98 48 19 63 11
98 -54 24 -47 36 -60 55 -60 44 0 46 27 6 79 -20 26 -36 51 -36 55 0 4 16 15
35 24 41 19 46 37 11 37 -50 0 -71 16 -83 62 -15 54 -70 177 -91 201 -15 17
-53 23 -65 10z"/>
<path d="M7409 9004 c-7 -9 -12 -37 -11 -67 3 -70 -6 -81 -59 -74 -60 8 -98
-2 -116 -29 -22 -34 -2 -56 46 -53 73 4 109 -1 115 -16 3 -8 0 -53 -6 -101
-10 -82 -10 -87 11 -107 20 -20 22 -20 38 -5 12 13 14 22 7 39 -15 33 9 169
32 186 10 7 44 13 80 13 65 0 84 11 64 35 -8 10 -31 15 -66 15 -73 0 -89 22
-75 106 5 33 7 62 4 67 -8 13 -50 7 -64 -9z"/>
<path d="M7789 8951 c-21 -16 -26 -35 -38 -128 -7 -59 -14 -135 -15 -168 -4
-113 -17 -186 -35 -192 -30 -11 -81 -54 -81 -69 0 -12 21 -14 143 -9 195 7
255 14 304 37 53 25 74 49 75 85 2 61 -30 86 -152 119 -36 10 -71 22 -77 27
-18 13 -5 29 17 22 18 -6 29 -2 141 48 51 23 57 29 62 64 8 46 -8 71 -78 125
-78 59 -216 79 -266 39z m169 -60 c80 -40 98 -53 106 -75 7 -17 6 -30 -1 -37
-11 -11 -152 -44 -213 -50 l-35 -4 2 68 c2 86 17 107 80 107 24 0 51 -4 61 -9z
m17 -326 c102 -33 113 -44 82 -73 -27 -25 -107 -42 -203 -42 -71 0 -72 1 -66
94 l4 59 52 -6 c28 -3 87 -17 131 -32z"/>
<path d="M6500 8577 c0 -13 -4 -27 -9 -32 -4 -6 -11 -26 -14 -45 -4 -28 0 -41
20 -64 22 -26 28 -28 45 -17 22 14 87 7 128 -14 14 -7 42 -21 63 -31 85 -42
150 -118 180 -209 31 -92 55 -197 50 -211 -3 -7 2 -35 10 -61 9 -26 18 -106
22 -178 7 -148 18 -196 54 -235 14 -16 36 -42 49 -59 29 -38 66 -49 90 -28 10
9 27 20 39 24 11 4 62 48 113 96 109 105 132 118 159 93 11 -10 27 -33 36 -52
9 -19 20 -34 25 -34 6 0 10 -8 10 -17 0 -9 6 -24 14 -32 7 -9 21 -63 31 -121
9 -58 24 -143 32 -190 17 -100 27 -196 42 -380 6 -74 19 -184 27 -245 9 -60
19 -151 23 -201 5 -50 11 -96 14 -101 7 -12 24 -125 32 -208 2 -27 8 -79 14
-115 5 -36 15 -141 21 -233 5 -93 14 -176 19 -185 4 -10 11 -37 15 -61 12 -79
88 -161 149 -161 92 0 242 189 278 349 6 25 12 102 15 171 5 148 15 208 55
338 31 100 65 152 102 152 11 0 38 -20 61 -45 63 -69 102 -93 161 -100 42 -6
61 -3 95 14 24 12 51 21 60 21 21 0 48 32 80 93 14 26 44 69 68 95 66 72 191
250 229 327 61 124 107 212 117 225 7 8 18 33 25 55 7 22 35 86 62 143 27 57
49 106 49 110 0 4 11 28 24 53 14 25 33 81 44 125 17 68 47 143 89 219 6 11
28 54 48 95 38 78 98 160 118 160 15 0 67 -51 67 -66 0 -6 11 -31 24 -55 13
-24 29 -66 34 -94 6 -27 20 -93 32 -145 11 -52 22 -126 25 -165 2 -38 8 -90
13 -115 5 -25 12 -117 16 -205 6 -151 16 -225 38 -287 12 -32 69 -49 99 -29
11 6 24 11 30 11 13 0 145 105 157 125 11 19 85 65 104 65 21 0 33 -22 42 -75
4 -22 19 -71 32 -109 16 -46 23 -79 18 -98 -5 -24 -2 -30 15 -35 20 -5 81 -86
81 -108 0 -6 14 -38 30 -70 17 -32 30 -66 30 -75 0 -9 9 -43 21 -76 38 -112
58 -210 89 -447 17 -131 38 -254 46 -272 8 -19 14 -51 14 -72 0 -21 5 -55 11
-76 5 -21 16 -70 24 -110 29 -153 44 -215 70 -287 56 -157 65 -183 65 -197 0
-8 9 -31 19 -52 11 -20 29 -65 40 -99 22 -63 112 -213 149 -246 12 -10 42 -21
67 -24 40 -4 50 -1 75 23 36 34 122 210 145 295 9 36 25 94 35 130 22 76 28
110 39 245 5 55 16 123 24 150 26 89 57 222 57 247 0 14 9 33 19 42 18 17 21
16 63 -26 36 -36 123 -164 137 -202 9 -23 94 -127 116 -142 31 -20 75 -11 138
28 52 34 147 134 147 156 0 8 13 38 29 66 16 28 41 87 56 130 25 75 63 163 84
196 48 76 126 265 166 405 28 98 43 140 61 182 8 17 14 37 14 45 0 7 9 27 20
43 11 17 20 36 20 43 0 7 11 28 25 46 14 18 25 38 25 45 0 16 47 108 60 116 5
3 10 13 10 21 0 9 16 36 36 60 33 40 41 44 80 44 69 0 118 -25 163 -84 48 -65
58 -122 66 -381 11 -339 21 -455 50 -540 70 -211 145 -305 242 -305 50 0 86
20 203 110 47 36 91 70 99 75 19 11 112 8 179 -7 48 -10 60 -19 121 -86 58
-63 74 -89 113 -185 25 -62 50 -141 56 -177 29 -171 43 -296 44 -376 0 -49 7
-125 14 -169 23 -130 66 -445 71 -515 3 -36 8 -69 13 -75 4 -5 10 -22 14 -36
10 -43 70 -89 116 -89 36 0 42 4 67 43 40 62 89 167 98 207 4 19 16 51 26 70
10 19 27 67 38 105 11 39 33 115 49 170 45 153 69 245 77 295 4 25 13 63 20
85 7 22 18 74 26 115 7 41 18 84 26 95 7 12 22 65 33 120 11 54 24 103 29 109
4 6 18 43 31 81 12 39 33 95 47 125 14 30 36 84 50 120 13 36 60 118 104 182
43 65 79 122 79 128 0 26 -41 5 -91 -47 -57 -60 -90 -108 -123 -178 -11 -22
-22 -47 -26 -55 -4 -9 -11 -31 -15 -49 -6 -28 -27 -81 -66 -166 -8 -19 -29
-87 -65 -215 -9 -30 -20 -66 -25 -80 -12 -32 -48 -171 -58 -225 -34 -172 -121
-503 -151 -570 -5 -11 -18 -51 -31 -90 -12 -38 -27 -81 -34 -95 -7 -14 -21
-46 -30 -73 -9 -26 -32 -63 -50 -83 -33 -35 -34 -35 -59 -19 -31 21 -49 77
-51 162 -1 34 -6 68 -12 75 -6 7 -16 72 -23 143 -6 72 -19 157 -27 190 -8 33
-19 123 -23 200 -5 77 -14 167 -20 200 -5 33 -15 103 -20 155 -12 111 -20 140
-66 237 -19 39 -34 75 -34 80 0 14 -66 104 -117 161 -44 49 -54 54 -128 72
-44 11 -105 23 -135 26 l-55 5 -65 -56 c-36 -31 -78 -64 -95 -72 -16 -9 -46
-29 -65 -44 -39 -33 -87 -38 -124 -14 -23 16 -106 126 -106 141 0 5 -9 38 -19
74 -42 144 -44 161 -61 575 -9 225 -20 309 -48 357 -34 60 -39 68 -57 88 -31
34 -158 66 -219 55 -33 -7 -43 -17 -132 -133 -11 -15 -33 -56 -48 -92 -15 -36
-47 -103 -71 -150 -49 -96 -64 -132 -110 -280 -18 -58 -45 -136 -59 -175 -15
-38 -30 -79 -33 -90 -4 -10 -35 -74 -69 -141 -35 -67 -75 -157 -89 -200 -58
-173 -134 -293 -219 -345 -63 -38 -90 -20 -176 121 -25 40 -64 94 -87 120 -24
26 -43 52 -43 58 0 15 -67 71 -94 78 -61 15 -93 -26 -107 -138 -6 -45 -14 -87
-20 -94 -5 -6 -13 -37 -18 -70 -6 -32 -14 -79 -20 -104 -6 -25 -15 -101 -21
-170 -10 -113 -27 -190 -66 -305 -8 -23 -14 -47 -14 -55 0 -20 -79 -171 -103
-197 -28 -31 -48 -29 -83 10 -33 35 -104 149 -104 166 0 6 -9 25 -20 43 -11
18 -20 41 -20 50 0 9 -6 29 -14 45 -18 37 -56 154 -56 172 0 8 -6 22 -13 30
-24 28 -60 167 -87 333 -5 31 -16 76 -25 100 -8 23 -15 61 -15 83 0 22 -5 56
-11 75 -5 19 -14 58 -19 85 -5 28 -16 86 -24 130 -8 44 -20 121 -25 170 -16
142 -28 206 -51 265 -12 30 -28 80 -35 110 -12 51 -32 103 -54 140 -16 26 -61
137 -61 149 0 6 -6 22 -14 34 -15 23 -67 174 -86 245 -6 23 -15 42 -19 42 -5
0 -11 9 -14 20 -4 16 -14 20 -45 20 -43 0 -61 -11 -157 -99 -69 -62 -141 -111
-166 -111 -28 0 -38 68 -54 379 -2 35 -8 85 -14 110 -5 25 -12 77 -16 114 -3
37 -12 94 -19 125 -8 31 -22 93 -31 137 -19 87 -58 180 -99 235 -29 38 -88 70
-116 63 -27 -7 -109 -112 -139 -178 -15 -34 -16 -37 -63 -130 -55 -109 -69
-144 -90 -225 -10 -41 -37 -112 -59 -158 -21 -46 -39 -85 -39 -88 0 -13 -180
-381 -240 -489 -70 -127 -158 -240 -295 -377 l-86 -88 -54 0 c-51 0 -57 3
-112 53 -157 144 -224 114 -297 -133 -45 -150 -59 -235 -57 -347 2 -110 -9
-177 -36 -218 -7 -11 -13 -26 -13 -33 0 -43 -145 -196 -179 -190 -8 2 -32 25
-51 51 -43 57 -59 134 -65 325 -5 142 -32 396 -46 432 -5 14 -20 104 -34 200
-14 96 -29 199 -35 229 -5 30 -10 86 -11 125 -1 39 -4 75 -7 81 -3 5 -5 25 -3
43 1 18 -2 54 -9 80 -6 26 -12 76 -14 112 -4 78 -39 291 -62 375 -9 33 -20 75
-24 93 -5 18 -20 51 -34 72 -14 22 -26 43 -26 46 0 13 -51 74 -75 90 -35 23
-79 0 -171 -93 -86 -86 -163 -145 -177 -136 -18 11 -77 113 -77 133 0 12 -4
29 -9 38 -5 10 -17 85 -26 167 -9 83 -21 159 -27 170 -6 11 -13 45 -14 75 -2
35 -18 91 -44 155 -48 118 -108 187 -205 235 -33 16 -82 43 -110 60 -27 17
-64 37 -81 45 -17 8 -34 21 -37 30 -10 24 -37 18 -37 -8z"/>
<path d="M6510 8378 c-8 -37 -7 -179 0 -183 6 -4 7 -11 4 -17 -4 -6 -9 -199
-10 -427 -2 -229 -6 -594 -9 -811 -3 -217 -5 -417 -5 -445 5 -214 5 -599 0
-738 -3 -93 -3 -171 -1 -173 6 -6 2 -441 -5 -616 l-7 -148 25 0 c33 0 38 24
32 155 -7 159 -7 2383 0 2902 3 259 3 479 0 487 -5 13 -23 23 -24 14z"/>
<path d="M27270 5729 c-19 -6 -49 -9 -67 -7 -27 3 -39 -2 -64 -28 -35 -36 -34
-59 5 -73 27 -11 56 -82 56 -137 0 -22 6 -37 19 -43 12 -7 21 -27 26 -58 4
-26 11 -53 17 -60 7 -8 4 -22 -8 -42 -18 -30 -18 -31 1 -46 27 -20 78 -19 167
4 183 47 271 134 219 218 -28 44 -92 83 -138 84 -73 1 -78 10 -33 54 49 48 55
95 15 121 -30 20 -165 28 -215 13z m159 -62 c8 -10 2 -22 -27 -49 -40 -37
-105 -78 -126 -78 -15 0 -49 74 -44 97 6 33 173 58 197 30z m128 -213 c37 -28
43 -59 16 -81 -36 -28 -129 -70 -169 -77 -39 -5 -44 -3 -66 27 -20 26 -53 116
-45 123 10 11 124 32 171 33 49 1 65 -3 93 -25z"/>
<path d="M6637 4853 c-4 -3 -7 -23 -7 -44 l0 -37 83 -11 c45 -7 107 -19 137
-28 30 -8 71 -18 90 -23 19 -4 82 -22 140 -40 58 -17 138 -41 178 -51 41 -11
90 -29 110 -39 20 -11 42 -20 49 -20 7 0 36 -13 65 -28 29 -16 71 -34 93 -41
22 -7 56 -20 75 -28 44 -20 210 -69 320 -95 47 -11 114 -31 150 -44 36 -13
101 -33 144 -44 44 -12 83 -23 87 -26 4 -2 49 -15 101 -28 104 -27 271 -76
363 -105 78 -26 168 -47 228 -56 26 -3 85 -18 130 -31 255 -78 344 -103 562
-159 94 -24 195 -50 225 -58 30 -8 78 -18 105 -22 51 -6 210 -46 345 -85 41
-12 100 -28 130 -35 141 -33 199 -49 250 -65 30 -10 73 -21 95 -25 36 -7 173
-42 300 -78 28 -8 60 -19 70 -24 17 -8 112 -32 385 -98 30 -7 87 -22 125 -34
39 -12 86 -26 105 -30 19 -5 62 -16 95 -26 61 -17 100 -26 190 -44 28 -5 66
-16 85 -24 19 -8 69 -22 110 -31 41 -8 98 -22 125 -31 28 -8 97 -27 155 -41
58 -14 110 -29 115 -34 6 -4 41 -15 79 -25 38 -9 76 -20 85 -25 9 -5 44 -14
78 -20 72 -13 122 -27 403 -116 285 -90 282 -89 405 -119 61 -16 123 -37 139
-48 20 -14 55 -22 125 -29 139 -12 452 -75 536 -107 40 -16 89 -31 110 -35 21
-4 45 -11 54 -16 89 -48 407 -141 601 -174 47 -8 104 -23 128 -32 42 -17 43
-17 67 6 23 22 24 25 10 39 -17 18 -91 34 -235 54 -52 8 -131 25 -175 40 -44
14 -107 32 -140 41 -33 8 -125 37 -205 66 -80 28 -158 55 -173 60 -16 5 -34
13 -40 18 -7 5 -41 15 -77 21 -36 7 -101 21 -145 31 -44 10 -114 24 -155 30
-41 6 -106 20 -145 31 -38 11 -90 24 -115 28 -25 4 -61 13 -80 19 -19 7 -60
18 -90 26 -115 29 -207 56 -275 81 -38 14 -77 25 -85 25 -8 0 -44 11 -80 24
-93 33 -156 52 -315 91 -77 19 -185 48 -240 65 -55 17 -124 38 -154 46 -29 8
-57 17 -62 19 -4 3 -27 9 -51 14 -24 5 -106 26 -183 46 -77 20 -203 52 -280
71 -259 64 -290 72 -400 101 -60 17 -162 43 -225 58 -63 16 -137 37 -165 48
-62 23 -131 44 -215 64 -128 30 -294 73 -595 154 -146 40 -385 97 -500 119
-36 7 -113 26 -205 50 -35 9 -109 30 -305 88 -55 16 -179 49 -275 72 -226 56
-373 95 -485 130 -49 15 -133 40 -185 55 -52 14 -108 31 -125 37 -16 5 -48 15
-70 20 -120 30 -182 47 -210 59 -11 5 -67 21 -124 35 -108 26 -383 113 -417
132 -67 37 -180 83 -249 102 -75 20 -213 61 -435 130 -52 17 -115 34 -139 39
-24 5 -48 14 -54 20 -12 12 -40 15 -50 4z"/>
<path d="M24021 4627 c-6 -7 -10 -27 -9 -43 1 -36 -9 -321 -18 -465 -7 -119 0
-135 44 -101 22 16 26 27 24 56 l-3 36 86 42 c96 46 102 45 141 -27 21 -40 45
-44 75 -14 l21 21 -36 37 -37 37 26 12 c37 17 29 45 -15 52 -20 4 -41 9 -47
13 -7 4 -42 52 -79 108 -37 55 -71 102 -75 105 -5 3 -9 27 -9 55 0 36 -5 54
-20 69 -23 23 -53 26 -69 7z m134 -288 c26 -38 45 -75 42 -82 -4 -12 -99 -47
-127 -47 -10 0 -12 21 -7 99 8 147 12 149 92 30z"/>
<path d="M31492 4443 c-28 -11 -42 -62 -45 -170 -1 -59 -6 -114 -11 -121 -4
-6 -19 -12 -34 -12 -44 0 -182 -95 -182 -126 0 -8 -5 -14 -10 -14 -6 0 -16
-12 -23 -27 -6 -16 -20 -37 -29 -47 -10 -11 -18 -25 -18 -30 0 -6 -7 -24 -15
-40 -8 -15 -20 -57 -25 -93 -13 -77 -1 -129 34 -162 22 -20 33 -23 80 -19 47
4 64 11 113 50 31 25 62 58 67 74 13 35 54 94 65 94 7 0 27 -78 47 -179 7 -39
38 -70 70 -71 45 0 140 88 117 111 -7 7 -21 3 -48 -15 -39 -27 -69 -33 -80
-16 -9 14 -32 179 -50 354 -18 177 -19 354 -3 408 12 40 4 60 -20 51z m-84
-379 c21 -6 23 -11 17 -45 -5 -30 -4 -39 8 -39 21 0 38 -47 31 -84 -3 -18 -17
-45 -30 -61 -13 -15 -24 -33 -24 -39 0 -14 -101 -116 -116 -116 -6 0 -17 -7
-24 -15 -7 -8 -27 -17 -46 -21 -89 -17 -101 89 -26 234 9 17 20 32 24 32 5 0
8 8 8 18 0 22 34 63 90 107 48 37 52 38 88 29z"/>
<path d="M34202 4383 c-19 -7 -92 -122 -92 -144 0 -10 -4 -19 -8 -19 -5 0 -15
-12 -22 -27 -52 -103 -80 -109 -104 -21 -21 76 -30 88 -67 88 -25 0 -29 -4
-29 -27 0 -15 10 -37 22 -50 33 -35 63 -147 80 -295 11 -96 12 -98 38 -98 42
0 47 13 37 85 -10 73 15 246 39 266 8 6 14 18 14 26 0 8 14 32 30 53 17 21 30
45 30 53 0 8 12 23 27 32 26 18 27 17 49 -10 12 -16 25 -47 27 -69 3 -23 10
-75 15 -117 10 -87 46 -170 91 -213 27 -26 34 -28 77 -22 56 7 94 38 94 75 0
49 -14 55 -48 22 -29 -30 -64 -39 -88 -23 -21 13 -58 95 -60 131 0 20 -4 43
-7 51 -5 13 -20 99 -34 188 -8 50 -65 84 -111 65z"/>
<path d="M19795 4260 c-13 -15 -19 -47 -26 -139 -4 -67 -13 -129 -18 -140 -7
-12 -45 -31 -105 -51 -98 -32 -122 -49 -112 -75 8 -23 60 -18 116 10 75 38 84
35 74 -22 -13 -71 -11 -183 5 -220 27 -65 88 -83 182 -54 67 21 157 74 166 98
11 27 31 11 49 -39 16 -45 23 -53 44 -53 29 0 54 50 31 64 -7 4 -23 58 -37
119 -29 137 -42 170 -85 211 l-34 32 -102 -2 c-57 -2 -106 0 -109 4 -4 3 -1
27 5 52 22 86 32 197 20 212 -16 19 -43 16 -64 -7z m234 -335 c30 -26 54 -85
65 -160 5 -39 4 -42 -37 -68 -66 -43 -138 -76 -184 -83 -37 -6 -45 -3 -66 20
-35 37 -41 95 -21 185 10 42 23 82 30 90 15 17 96 39 146 40 25 1 46 -7 67
-24z"/>
<path d="M33571 4266 c-7 -8 -10 -24 -6 -36 4 -12 2 -26 -3 -33 -7 -8 -7 -29
-1 -61 11 -59 -3 -154 -31 -219 -22 -50 -71 -97 -101 -97 -27 0 -71 30 -65 45
2 7 -8 28 -23 46 -36 45 -55 130 -48 216 4 55 2 72 -11 88 -19 22 -62 22 -62
-1 0 -18 -1 -18 -50 2 -41 17 -41 17 -71 -12 -16 -15 -29 -33 -29 -39 0 -6
-11 -22 -25 -35 -13 -12 -22 -26 -20 -31 3 -4 1 -10 -5 -14 -5 -3 -10 -15 -10
-26 0 -10 -5 -19 -11 -19 -6 0 -8 -8 -4 -19 3 -11 -1 -26 -11 -35 -35 -36 -10
-229 35 -270 28 -25 105 -7 147 36 27 27 35 43 39 85 2 29 0 55 -5 58 -6 3
-10 -1 -10 -10 0 -9 -14 -37 -32 -61 -31 -44 -77 -64 -112 -51 -16 6 -31 101
-23 144 10 56 51 154 73 179 13 14 24 29 24 33 0 15 40 20 70 9 19 -6 30 -18
34 -36 18 -89 18 -103 2 -127 -21 -32 -21 -66 -1 -58 17 6 55 -23 55 -42 0 -7
22 -36 49 -65 49 -53 50 -53 101 -48 68 7 122 56 126 115 1 21 2 44 3 51 2 26
27 10 61 -39 46 -67 82 -92 135 -92 56 0 101 32 115 81 13 50 13 52 -10 52
-11 0 -20 -6 -20 -14 0 -28 -51 -57 -94 -54 -37 3 -42 7 -69 58 -15 30 -32 59
-38 65 -5 5 -9 28 -9 51 0 24 -5 46 -11 50 -7 4 -10 39 -7 97 2 77 1 92 -13
95 -9 1 -21 -4 -28 -12z"/>
<path d="M32625 4154 c-14 -15 -25 -35 -25 -44 0 -10 -7 -20 -15 -24 -8 -3
-15 -17 -15 -31 0 -38 -27 -85 -49 -85 -17 0 -32 19 -35 45 -3 18 -31 70 -50
93 -20 22 -69 30 -92 14 -6 -4 -23 -33 -37 -64 -15 -31 -32 -60 -37 -63 -6 -3
-10 -14 -10 -23 -1 -17 -33 -62 -45 -62 -3 0 -3 15 0 34 4 20 2 36 -4 40 -15
10 -14 73 2 79 8 4 7 6 -3 6 -8 1 -21 10 -28 21 -17 27 -40 25 -54 -5 -10 -21
-8 -32 10 -63 11 -21 22 -59 23 -85 2 -27 6 -50 10 -53 4 -2 13 -36 19 -74 6
-39 16 -70 21 -70 5 0 9 -20 9 -45 0 -48 11 -56 50 -35 17 9 19 19 16 72 -9
138 41 328 86 328 20 0 78 -71 78 -96 0 -11 9 -45 20 -77 10 -32 17 -64 14
-71 -3 -8 0 -25 7 -38 7 -13 12 -31 10 -40 -2 -14 5 -18 26 -18 46 0 50 9 43
85 -3 39 -3 72 1 75 4 3 10 23 14 45 4 22 13 51 21 65 7 14 16 46 19 73 6 44
8 47 35 47 23 0 32 -7 49 -43 12 -24 21 -62 21 -85 0 -23 5 -42 10 -42 6 0 10
-24 10 -52 0 -63 26 -218 39 -231 4 -4 24 -7 42 -5 30 3 34 7 37 33 2 23 -2
32 -20 40 -27 12 -46 72 -47 150 -1 28 -10 84 -21 125 -11 41 -20 88 -20 103
0 35 -45 76 -83 77 -18 0 -37 -10 -52 -26z"/>
<path d="M31740 4124 c-29 -34 -40 -348 -15 -410 36 -90 53 -104 129 -104 61
0 129 53 146 116 17 61 7 171 -19 215 -12 19 -21 42 -21 52 0 10 -7 20 -15 23
-8 4 -15 14 -15 23 0 9 -15 31 -32 48 -53 49 -133 68 -158 37z m130 -83 c20
-16 46 -49 58 -75 13 -25 27 -48 33 -51 16 -10 11 -151 -6 -165 -8 -7 -15 -21
-15 -31 0 -11 -6 -19 -14 -19 -7 0 -19 -7 -26 -15 -39 -47 -124 17 -129 98 -2
23 -3 51 -4 62 -2 25 13 195 18 213 7 21 49 13 85 -17z"/>
<path d="M26278 4049 c-98 -6 -136 -13 -168 -29 -76 -39 -80 -113 -5 -77 20 9
39 17 44 17 13 0 30 -68 40 -160 l9 -84 -39 -34 c-52 -45 -51 -62 5 -62 53 0
56 -5 56 -113 0 -45 5 -109 11 -142 6 -33 12 -71 13 -85 3 -31 31 -38 58 -14
22 21 20 69 -7 120 -8 17 -15 57 -16 94 0 36 -4 87 -8 115 -8 45 -6 51 19 76
31 32 90 50 134 42 71 -13 117 -90 151 -255 12 -59 30 -118 39 -132 9 -14 16
-41 16 -61 0 -43 18 -53 54 -30 27 18 34 43 16 61 -16 16 -41 165 -34 199 10
44 31 83 83 150 57 74 89 103 121 111 55 13 80 27 80 45 0 15 -7 19 -35 19
-76 0 -142 -47 -227 -161 -58 -79 -80 -86 -96 -31 -12 39 -92 142 -121 154
-31 13 -90 8 -136 -12 -78 -33 -82 -31 -89 53 -3 39 -8 89 -12 109 -5 34 -4
38 19 43 13 4 89 7 168 8 132 2 148 0 186 -20 71 -38 112 -26 69 20 -34 37
-80 57 -139 63 -110 10 -136 10 -259 3z"/>
<path d="M20307 3988 c-2 -7 4 -38 13 -68 10 -31 23 -113 30 -183 16 -169 19
-181 55 -185 39 -5 44 9 28 81 -22 106 -17 166 17 220 16 26 37 50 45 53 18 7
53 -31 60 -66 3 -14 10 -42 16 -63 6 -21 11 -82 13 -135 4 -103 11 -116 54
-93 14 7 21 30 31 102 13 105 41 165 108 238 29 32 45 43 52 36 6 -6 13 -58
16 -115 13 -224 35 -276 116 -273 92 4 250 74 325 145 l31 29 69 -12 c62 -11
203 -9 496 6 62 3 98 26 82 52 -13 20 -20 21 -159 4 -168 -20 -249 -24 -326
-17 -104 10 -111 16 -73 63 45 56 54 77 54 126 0 57 -16 71 -75 65 -55 -7
-112 -47 -131 -94 -19 -46 -18 -113 3 -136 24 -27 11 -44 -73 -95 -78 -48
-158 -76 -206 -71 -49 5 -61 38 -68 198 -3 74 -12 145 -18 157 -13 23 -42 43
-62 43 -21 0 -120 -103 -151 -157 -17 -29 -35 -53 -39 -53 -5 0 -17 26 -26 57
-20 68 -68 123 -108 123 -16 0 -41 -14 -65 -35 -46 -42 -51 -43 -51 -10 0 44
-21 75 -51 75 -15 0 -29 -6 -32 -12z"/>
<path d="M5194 3963 c-3 -10 -10 -28 -16 -40 -6 -12 -7 -38 -3 -60 4 -21 8
-84 10 -140 3 -98 3 -102 -15 -93 -60 32 -159 -16 -219 -105 -56 -84 -80 -147
-87 -232 -6 -71 -5 -83 10 -89 9 -3 16 -12 16 -20 0 -37 98 -46 159 -15 29 15
126 113 169 171 11 15 32 -37 26 -66 -4 -20 0 -41 9 -55 8 -13 15 -42 16 -64
3 -61 39 -81 81 -47 l23 18 -27 42 c-14 23 -26 51 -26 62 0 11 -9 46 -20 76
-10 31 -27 122 -36 203 -9 80 -19 148 -23 151 -4 3 -7 73 -8 155 -1 83 -2 153
-2 158 -2 15 -32 6 -37 -10z m-60 -460 c-3 -32 -7 -66 -9 -75 -2 -10 1 -18 5
-18 5 0 20 -4 33 -9 19 -8 23 -15 20 -35 -3 -14 -11 -26 -17 -26 -7 0 -18 -10
-25 -22 -16 -29 -93 -90 -128 -102 -17 -6 -33 -5 -45 3 -10 6 -24 11 -32 11
-24 0 -27 15 -15 67 21 93 34 128 51 147 10 11 20 28 24 38 3 10 9 18 14 18 4
0 22 14 40 30 20 19 43 30 60 30 l29 0 -5 -57z"/>
<path d="M30431 3971 c-9 -6 -11 -48 -9 -157 l3 -149 -39 -50 c-75 -96 -148
-121 -198 -67 -40 42 -70 147 -67 235 2 81 -3 97 -31 97 -20 0 -23 -12 -33
-105 -3 -22 -19 -71 -36 -107 -17 -37 -31 -71 -31 -76 0 -19 -62 -93 -97 -116
-21 -14 -56 -28 -78 -31 -36 -6 -43 -3 -69 24 -23 24 -30 42 -34 87 -7 83 34
204 68 204 52 0 91 88 49 111 -22 11 -109 -21 -109 -41 0 -7 -9 -25 -21 -41
-21 -30 -35 -89 -45 -195 -8 -76 7 -124 53 -175 32 -35 40 -39 84 -39 62 0 89
11 139 56 46 41 67 76 90 144 21 64 47 61 81 -7 14 -29 38 -66 53 -82 64 -67
190 -38 243 57 10 18 24 31 32 30 12 -3 39 -83 60 -179 4 -19 12 -42 17 -50 5
-8 10 -23 11 -34 1 -11 5 -38 8 -60 7 -42 9 -39 -74 -147 -12 -14 -21 -32 -21
-40 0 -8 -4 -18 -8 -23 -17 -20 -37 -132 -36 -205 2 -120 49 -195 156 -249
101 -50 198 -38 261 32 38 42 38 43 34 113 -4 77 -36 159 -86 222 -16 21 -44
66 -62 102 -17 36 -45 84 -61 108 l-29 42 27 35 c30 40 23 59 -24 68 -29 6
-52 40 -52 78 0 10 -4 27 -9 37 -18 32 -50 257 -57 394 -6 111 -10 137 -24
146 -9 5 -22 7 -29 3z m150 -847 c15 -18 23 -32 55 -90 12 -22 47 -76 78 -121
61 -91 87 -182 67 -235 -14 -37 -73 -63 -141 -62 -65 0 -117 29 -173 95 -33
38 -36 47 -39 113 -4 96 30 205 89 284 27 36 44 40 64 16z"/>
<path d="M2550 3939 c-52 -11 -140 -25 -194 -32 -98 -12 -100 -13 -107 -42 -5
-18 -4 -34 3 -42 12 -15 54 -18 62 -4 3 5 18 12 33 15 52 13 178 36 226 42
l47 7 -7 -34 c-4 -19 -7 -63 -6 -99 8 -556 11 -651 23 -665 17 -21 30 -18 65
11 28 23 29 26 13 38 -10 7 -14 16 -10 20 4 4 -1 13 -11 20 -15 12 -17 35 -19
214 -1 111 -4 199 -7 198 -12 -8 -6 293 6 305 8 8 52 10 155 6 78 -3 154 -7
168 -9 34 -4 39 31 8 52 -38 25 -327 25 -448 -1z"/>
<path d="M28752 3893 c-11 -16 -23 -39 -27 -53 -4 -14 -12 -30 -17 -37 -5 -6
-12 -83 -15 -170 -6 -173 -9 -183 -70 -209 -47 -20 -126 -18 -145 4 -41 48
-68 168 -68 305 0 65 -3 76 -24 97 -23 20 -26 21 -41 7 -13 -13 -14 -30 -9
-96 4 -49 3 -91 -4 -108 -6 -15 -20 -60 -32 -99 -20 -69 -72 -144 -99 -144
-18 0 -61 50 -61 71 0 10 -4 20 -9 23 -5 3 -15 60 -21 126 -7 67 -17 123 -22
126 -4 3 -8 25 -8 49 0 36 -4 45 -21 50 -47 15 -48 -21 -10 -254 24 -147 35
-181 75 -228 66 -78 159 -17 202 131 5 16 14 31 19 33 9 3 45 -65 45 -85 0
-12 54 -69 77 -81 42 -21 117 -13 179 20 l58 30 49 -27 c40 -21 57 -25 92 -21
53 8 135 46 135 64 0 8 7 16 15 19 20 8 19 34 -1 34 -9 0 -22 -7 -28 -16 -13
-16 -73 -33 -122 -34 -21 0 -39 9 -58 29 l-28 30 31 53 c60 106 89 293 55 356
-23 42 -64 44 -92 5z"/>
<path d="M27606 3819 c-90 -78 -187 -246 -194 -335 -5 -65 8 -90 52 -98 51
-10 98 14 176 90 64 62 69 65 73 43 3 -13 12 -64 21 -113 9 -48 16 -89 14 -90
-10 -7 -87 -40 -140 -61 -154 -58 -182 -77 -176 -117 5 -36 49 -36 95 0 21 17
80 49 131 73 82 37 95 41 108 28 8 -9 28 -67 45 -130 87 -323 88 -329 84 -394
-5 -72 7 -90 50 -79 25 6 26 9 22 58 -7 81 -43 256 -65 316 -10 30 -27 84 -37
120 -9 36 -24 85 -32 110 l-14 45 38 33 c21 17 53 42 70 55 62 42 29 61 -36
19 -14 -8 -39 -18 -57 -22 -32 -7 -33 -7 -40 34 -5 22 -7 122 -5 221 l3 181
-49 22 c-67 30 -96 28 -137 -9z m102 -51 c21 -21 14 -103 -13 -154 -44 -83
-148 -164 -211 -164 -16 0 -10 66 10 112 24 55 94 154 133 188 36 32 62 37 81
18z"/>
<path d="M28990 3811 c0 -19 11 -42 30 -63 17 -18 33 -44 36 -58 3 -14 10 -38
15 -55 6 -16 16 -66 24 -109 16 -91 38 -122 79 -112 l25 6 -6 129 c-6 123 -5
130 18 167 13 22 30 44 39 51 23 19 65 15 86 -8 17 -19 19 -38 19 -182 l0
-162 43 -3 c51 -4 63 15 37 54 -14 22 -17 48 -16 143 1 142 -12 188 -60 213
-41 22 -81 23 -118 4 -34 -18 -78 -74 -83 -106 -7 -52 -58 -18 -58 39 0 26
-58 81 -86 81 -20 0 -24 -5 -24 -29z"/>
<path d="M27205 3806 c-56 -25 -115 -87 -150 -157 -19 -38 -35 -77 -35 -88 0
-11 -4 -23 -10 -26 -5 -3 -10 -23 -10 -44 0 -30 -6 -42 -25 -55 -35 -23 -31
-41 12 -63 20 -10 44 -31 53 -47 18 -33 73 -66 110 -66 58 0 142 31 197 72 42
32 52 44 38 46 -10 2 -27 -1 -39 -6 -43 -21 -131 -45 -166 -45 -47 0 -76 16
-95 52 l-14 29 108 108 108 109 13 74 14 74 -28 23 c-31 27 -40 28 -81 10z
m60 -67 c15 -23 -44 -114 -107 -167 -94 -78 -108 -71 -57 31 52 104 139 177
164 136z"/>
<path d="M6937 3656 c-20 -8 -44 -20 -53 -27 -23 -19 -94 -126 -94 -141 0 -8
-5 -19 -10 -24 -6 -6 -17 -48 -25 -94 -13 -73 -13 -92 0 -154 18 -87 44 -116
108 -123 70 -8 110 11 177 85 l60 67 50 -53 c44 -46 54 -52 89 -52 48 0 112
31 145 71 27 31 36 36 36 17 0 -20 43 -76 68 -87 13 -6 46 -11 74 -11 44 0 57
5 94 36 48 39 68 69 58 85 -4 7 -14 4 -28 -8 -37 -32 -83 -53 -116 -53 -43 0
-91 50 -108 113 -12 49 -7 152 10 173 4 6 6 18 4 25 -2 8 -7 27 -11 42 -9 41
-43 33 -68 -17 -17 -32 -20 -57 -19 -140 1 -97 -1 -102 -26 -129 -43 -46 -78
-60 -115 -47 -64 21 -102 113 -111 269 -4 77 -10 108 -22 122 -22 24 -31 24
-39 -1 -8 -26 -22 -25 -31 3 -4 12 -6 22 -4 22 2 0 -2 10 -9 23 -13 25 -30 27
-84 8z m53 -93 c0 -10 5 -25 10 -33 8 -12 13 -13 29 -3 18 12 20 9 26 -45 3
-31 11 -80 17 -109 10 -48 9 -55 -16 -97 -34 -58 -118 -126 -154 -126 -15 1
-40 11 -56 24 -24 20 -29 32 -33 90 -8 99 31 207 106 289 28 31 71 37 71 10z"/>
<path d="M8071 3624 c-30 -21 -90 -116 -98 -154 -3 -17 -10 -33 -14 -36 -5 -3
-9 -15 -9 -28 0 -12 -16 -45 -35 -72 l-35 -49 0 34 c0 77 -35 241 -54 253 -18
12 -53 9 -65 -6 -9 -11 -7 -23 9 -53 15 -30 23 -73 31 -177 6 -76 9 -146 6
-156 -3 -11 3 -26 14 -36 17 -15 21 -15 53 0 24 11 36 25 41 45 3 16 21 54 39
84 21 34 35 74 39 107 5 40 17 68 45 109 22 30 44 57 50 59 13 4 14 -1 37
-153 18 -124 37 -189 65 -223 21 -25 110 -47 138 -33 9 5 44 17 77 27 62 19
105 51 105 79 0 21 -8 20 -117 -17 -87 -29 -98 -30 -121 -17 -14 8 -33 28 -42
44 -18 32 -21 46 -39 160 -31 196 -33 205 -51 215 -26 14 -42 12 -69 -6z"/>
<path d="M4130 3609 c-46 -26 -72 -84 -78 -170 -3 -56 0 -75 22 -120 14 -29
24 -54 23 -55 -75 -51 -116 -74 -133 -74 -22 0 -64 38 -64 58 0 7 -4 12 -10
12 -5 0 -10 15 -10 33 0 19 -8 42 -20 55 -11 12 -20 27 -20 34 0 14 -21 77
-31 93 -4 6 -10 26 -14 45 -12 54 -26 70 -62 70 -43 0 -93 -51 -93 -94 0 -14
-6 -40 -14 -58 -8 -18 -17 -45 -21 -60 -3 -16 -12 -28 -20 -28 -17 0 -45 38
-45 61 0 9 -6 19 -14 22 -7 3 -16 23 -20 45 -7 45 -57 92 -99 92 -23 0 -71
-30 -93 -58 -13 -17 -50 -11 -46 8 7 29 -64 43 -75 14 -3 -9 1 -28 9 -43 17
-29 36 -178 40 -313 2 -79 5 -88 25 -99 18 -9 26 -9 38 1 13 10 14 29 10 101
-3 49 -1 89 3 89 4 0 8 35 10 77 3 68 6 81 33 115 35 44 69 50 91 16 17 -28
52 -174 49 -208 -1 -14 4 -45 10 -69 10 -34 10 -46 1 -49 -18 -6 -14 -20 7
-32 13 -7 28 -7 45 0 22 8 26 16 26 50 0 22 7 51 15 64 8 13 17 41 19 63 2 23
13 61 25 85 11 24 21 51 21 60 0 9 7 18 15 22 8 3 15 12 15 21 0 8 9 15 20 15
22 0 50 -46 50 -84 0 -14 5 -28 10 -31 6 -3 10 -16 10 -27 0 -12 6 -29 14 -37
8 -9 19 -32 24 -51 39 -130 64 -157 136 -146 27 4 66 21 95 42 59 40 68 41
123 13 81 -41 248 -12 248 43 0 18 -5 19 -88 13 -68 -6 -95 -4 -125 8 -43 19
-46 35 -12 69 13 14 26 34 28 45 2 12 9 28 16 37 7 8 10 19 7 25 -3 5 1 22 9
37 20 39 19 77 -5 130 -19 41 -23 44 -58 44 -20 0 -53 -10 -72 -21z m117 -84
c11 -33 11 -41 -2 -55 -9 -10 -15 -21 -13 -26 1 -5 -11 -28 -26 -52 -38 -55
-65 -54 -84 3 -8 22 -11 55 -8 74 8 53 67 104 110 97 5 -1 15 -19 23 -41z"/>
<path d="M6115 3618 c-11 -6 -30 -20 -42 -30 -16 -15 -29 -18 -52 -13 -33 7
-71 -8 -71 -29 0 -8 7 -26 15 -42 7 -15 17 -53 20 -83 6 -58 21 -125 35 -151
4 -8 5 -29 3 -46 -6 -39 13 -56 53 -45 29 7 47 46 27 60 -5 3 -15 37 -22 75
-25 139 41 288 105 235 8 -7 13 -18 10 -25 -3 -7 -1 -16 4 -19 13 -8 38 -128
45 -220 9 -112 11 -118 43 -110 39 10 52 24 52 56 0 34 26 137 39 153 5 6 17
38 27 71 50 170 103 77 130 -230 6 -61 25 -95 53 -95 32 0 40 32 24 96 -8 32
-18 88 -22 124 -11 98 -48 214 -80 253 -30 37 -116 13 -125 -35 -1 -7 -9 -29
-17 -48 -9 -19 -24 -59 -34 -87 -11 -29 -22 -53 -25 -53 -4 0 -13 26 -19 58
-19 85 -32 113 -69 154 -36 40 -68 48 -107 26z"/>
<path d="M2906 3612 c-16 -3 -17 -10 -12 -54 4 -27 9 -106 11 -176 6 -166 15
-265 24 -280 7 -12 45 -12 57 1 4 3 3 27 0 52 -5 31 -12 45 -23 45 -12 0 -14
6 -8 28 4 15 9 79 11 142 2 63 6 126 9 138 3 13 2 29 -3 35 -5 7 -12 24 -16
38 -6 29 -20 38 -50 31z"/>
<path d="M5524 3579 c-10 -12 -18 -23 -16 -25 2 -2 -1 -19 -6 -37 -5 -19 -6
-58 -1 -92 5 -33 11 -86 15 -118 3 -37 12 -64 24 -75 10 -9 21 -28 25 -42 3
-14 22 -36 40 -49 70 -47 167 -13 210 73 18 36 23 202 7 218 -7 7 -12 25 -12
42 0 22 -11 40 -44 71 -47 45 -76 55 -166 55 -45 0 -61 -4 -76 -21z m218 -78
c40 -37 42 -43 49 -112 11 -106 -11 -163 -73 -195 -42 -22 -72 -8 -113 51 -30
44 -36 60 -30 85 4 20 3 30 -5 30 -9 0 -10 19 -5 72 9 86 27 107 93 108 36 0
49 -6 84 -39z"/>
<path d="M36301 3282 c-43 -7 -69 -30 -64 -56 4 -18 0 -26 -17 -31 -18 -6 -20
-9 -9 -16 24 -15 54 -10 67 11 10 16 23 20 64 20 50 0 55 -2 100 -51 27 -29
48 -56 48 -60 0 -5 8 -9 17 -9 9 0 13 -3 10 -7 -4 -3 4 -21 18 -39 14 -18 25
-35 25 -37 0 -3 16 -33 35 -67 19 -34 35 -69 35 -78 0 -9 9 -34 20 -57 18 -38
35 -118 45 -215 2 -19 4 -35 5 -35 3 0 10 -98 11 -160 2 -110 -12 -235 -32
-290 -11 -27 -19 -54 -19 -58 0 -18 42 0 55 23 15 29 55 195 57 237 2 64 -23
340 -33 365 -6 15 -9 34 -6 41 3 7 -1 21 -9 32 -8 10 -14 28 -14 39 0 39 -70
201 -127 292 -39 62 -122 155 -154 172 -63 32 -93 40 -128 34z"/>
<path d="M32630 3085 c-13 -14 -20 -25 -16 -25 5 0 1 -11 -8 -25 -9 -13 -16
-36 -16 -50 0 -14 -4 -25 -9 -25 -16 0 -30 -288 -17 -347 7 -29 5 -32 -31 -44
-85 -28 -142 -74 -143 -116 0 -12 -4 -25 -10 -28 -16 -10 -12 -23 10 -30 22
-7 53 11 45 25 -10 16 7 39 46 64 21 14 47 26 56 26 23 0 53 -71 53 -124 0
-21 8 -51 17 -67 16 -26 16 -31 3 -39 -8 -5 -10 -10 -4 -10 6 0 14 -22 18 -50
4 -27 11 -50 16 -50 6 0 10 -12 10 -26 0 -14 6 -52 14 -83 8 -31 17 -87 19
-126 5 -72 11 -81 52 -71 22 6 23 9 14 43 -6 21 -13 45 -16 53 -3 8 -7 29 -8
45 -5 58 -39 219 -54 256 -6 13 -17 65 -26 114 -8 50 -18 100 -21 112 -4 14 1
28 16 43 19 19 31 22 89 18 82 -4 122 -30 151 -96 23 -52 60 -226 60 -284 0
-43 5 -47 45 -41 l30 5 0 137 c0 86 4 143 11 152 14 17 24 59 30 118 6 60 19
79 60 87 37 7 41 27 6 32 -31 5 -68 -27 -87 -73 -10 -22 -23 -52 -31 -67 -8
-14 -14 -31 -14 -38 0 -6 -9 -23 -20 -37 l-20 -25 -10 27 c-5 14 -10 34 -10
44 0 30 -68 99 -108 111 -20 5 -74 10 -119 10 -45 0 -85 5 -88 10 -12 19 -10
264 2 295 6 17 16 49 22 73 10 35 16 42 36 42 34 0 50 -32 36 -72 -6 -17 -11
-43 -11 -58 0 -15 -7 -33 -15 -40 -22 -18 -3 -34 29 -26 18 4 26 13 26 29 0
12 7 44 15 70 14 47 11 102 -6 113 -5 3 -9 12 -9 21 0 44 -74 56 -110 18z"/>
<path d="M9917 2914 c-17 -17 -1 -39 111 -151 64 -65 126 -136 137 -158 11
-22 28 -52 37 -66 38 -57 101 -281 118 -416 13 -101 0 -243 -31 -353 -11 -41
-23 -88 -26 -105 -3 -16 -14 -42 -24 -57 -20 -27 -26 -68 -10 -68 46 0 122
184 147 352 13 92 14 132 5 213 -15 146 -43 285 -62 310 -4 6 -16 36 -27 67
-52 147 -264 421 -337 434 -17 3 -33 2 -38 -2z"/>
<path d="M25888 2813 c0 -5 -2 -12 -3 -18 0 -5 -13 -35 -27 -65 -22 -48 -49
-164 -78 -332 -24 -134 -28 -361 -8 -463 25 -137 124 -265 228 -297 98 -30
142 -32 170 -10 29 24 28 24 -70 42 -36 7 -78 19 -94 27 -52 27 -128 106 -151
158 -54 123 -58 358 -10 592 29 141 50 205 89 276 14 25 26 51 26 58 0 25 -67
54 -72 32z"/>
<path d="M36069 2818 c0 -2 -2 -52 -4 -112 -3 -103 -17 -166 -36 -166 -5 0 -9
-9 -9 -20 0 -11 -3 -20 -8 -20 -4 0 -18 -18 -32 -40 -14 -22 -28 -40 -32 -40
-3 0 -13 -6 -20 -13 -18 -17 -65 -37 -88 -37 -11 0 -34 9 -51 19 -29 18 -32
25 -32 66 1 62 23 163 43 200 12 22 24 30 43 30 23 -1 26 2 21 25 -6 25 -47
70 -64 70 -18 0 -69 -117 -79 -179 -5 -34 -12 -65 -16 -70 -11 -18 -15 -140
-5 -146 16 -10 11 -43 -7 -49 -10 -3 -40 -8 -66 -12 -43 -6 -51 -4 -76 20
l-27 26 2 145 2 145 -30 25 c-16 14 -36 25 -45 25 -23 0 -73 -39 -73 -58 -1
-29 -84 -177 -100 -177 -12 0 -16 17 -18 79 -2 44 1 83 6 88 5 5 2 30 -7 58
-16 52 -32 61 -65 37 -13 -10 -15 -18 -8 -37 9 -25 24 -188 27 -291 2 -62 -4
-73 -55 -109 -30 -22 -46 -25 -115 -25 -61 0 -88 4 -108 18 -32 21 -46 49 -29
55 7 2 12 8 12 14 0 15 42 98 50 98 3 0 7 12 8 26 1 14 11 39 22 54 45 64 34
177 -20 205 -42 22 -65 19 -104 -15 -25 -22 -36 -42 -41 -73 -4 -23 -11 -46
-15 -52 -11 -13 -15 -201 -6 -246 8 -33 6 -36 -33 -62 -60 -40 -99 -36 -134
12 -15 22 -32 63 -37 92 -6 29 -16 59 -23 67 -8 10 -12 53 -12 131 l0 116 -27
3 c-27 3 -28 2 -29 -45 -4 -122 -8 -165 -18 -177 -5 -6 -24 -49 -40 -95 -39
-104 -84 -171 -115 -171 -46 0 -55 16 -77 140 -12 63 -27 123 -41 162 -7 18
-6 45 2 82 6 31 9 60 5 66 -8 13 -48 13 -61 0 -13 -13 3 -201 22 -258 8 -23
14 -57 14 -75 0 -54 18 -101 56 -145 30 -36 41 -42 74 -42 43 0 100 39 100 69
0 9 4 21 9 27 6 5 15 40 21 79 19 117 49 126 83 25 13 -36 38 -86 57 -112 32
-43 38 -47 80 -47 25 -1 59 7 75 16 103 56 93 54 132 28 70 -48 171 -46 245 4
55 37 68 39 68 8 0 -29 29 -57 58 -57 30 0 34 11 38 103 2 45 8 91 13 102 6
11 24 52 41 90 50 113 64 135 81 135 20 0 31 -70 28 -177 -2 -75 18 -163 37
-163 6 0 17 -7 24 -15 19 -22 85 -18 139 8 38 20 57 23 113 19 54 -3 77 0 110
16 44 21 108 77 108 94 0 5 9 21 20 35 11 14 20 36 20 49 0 13 4 24 9 24 10 0
60 -99 86 -170 18 -48 42 -104 56 -132 7 -14 -2 -28 -43 -65 -85 -79 -88 -82
-88 -103 0 -10 -6 -23 -14 -27 -26 -15 -40 -86 -39 -193 0 -95 3 -111 28 -160
39 -77 90 -127 152 -150 72 -27 111 -25 161 7 47 31 52 46 47 143 -6 124 -13
164 -43 250 -3 8 -4 20 -3 27 1 6 -3 14 -9 18 -5 3 -10 15 -10 26 0 10 -4 27
-9 37 -65 129 -64 142 24 211 34 27 76 56 93 65 23 12 32 24 32 41 0 14 -6 25
-12 25 -7 0 -23 3 -35 6 -15 4 -23 1 -27 -14 -4 -10 -28 -34 -54 -53 -26 -18
-56 -41 -66 -51 -30 -27 -50 -19 -58 22 -3 14 -20 63 -38 110 -38 103 -60 234
-53 322 6 72 -6 108 -37 108 -11 0 -20 -1 -21 -2z m-1087 -145 c22 -20 23 -36
0 -93 -31 -81 -86 -160 -112 -160 -14 0 -13 137 1 145 6 4 8 13 5 20 -5 13 16
66 37 93 13 17 47 15 69 -5z m1248 -595 c0 -9 5 -18 11 -20 12 -4 55 -129 69
-198 5 -25 14 -65 19 -90 17 -76 14 -154 -8 -178 -21 -25 -77 -29 -130 -11
-45 16 -127 119 -135 170 -4 22 -13 42 -22 46 -9 3 -13 12 -9 22 4 9 14 43 22
76 22 85 48 132 101 181 38 36 48 41 64 31 10 -7 18 -19 18 -29z"/>
<path d="M30209 2758 c-14 -26 -16 -149 -5 -275 9 -90 8 -93 -11 -93 -11 0
-26 7 -33 15 -21 26 -75 18 -114 -15 -70 -62 -115 -192 -123 -357 -5 -93 -7
-102 -27 -107 -73 -20 -125 10 -148 85 -41 130 -52 178 -57 238 -5 54 -10 67
-33 84 -14 11 -31 17 -36 13 -6 -3 -14 -32 -17 -64 -13 -110 -102 -323 -138
-330 -14 -3 -17 6 -17 60 0 35 -5 94 -11 133 -9 62 -14 74 -51 112 -23 24 -47
43 -53 43 -6 0 -44 14 -85 32 -41 17 -95 36 -120 43 l-45 11 -1 101 c-1 108
-5 123 -34 123 -26 0 -33 -29 -28 -124 3 -88 -7 -116 -43 -116 -25 0 -58 -65
-42 -81 8 -8 17 -8 31 0 11 6 30 11 41 11 17 0 21 -6 21 -29 0 -17 5 -33 10
-36 6 -3 10 -24 10 -45 0 -41 35 -203 51 -232 5 -10 9 -31 9 -47 0 -40 34 -52
63 -22 20 19 20 22 5 53 -15 31 -41 108 -66 203 -6 22 -14 66 -17 98 -5 55 -4
57 18 57 29 0 139 -35 187 -60 70 -36 77 -51 84 -194 4 -98 10 -136 24 -160
25 -43 68 -47 105 -10 15 15 27 33 27 40 0 8 4 22 9 32 35 71 54 124 58 169 9
81 36 65 48 -27 4 -30 13 -68 21 -84 8 -16 14 -34 14 -41 0 -7 16 -29 36 -49
56 -58 104 -70 163 -40 29 15 33 14 65 -5 56 -35 77 -29 145 45 65 71 81 107
88 203 3 48 2 53 -12 41 -9 -7 -15 -20 -13 -29 6 -45 -108 -201 -147 -201 -72
0 -29 283 59 388 30 35 51 39 80 17 11 -8 27 -15 35 -15 12 0 16 -12 18 -50 1
-36 13 -74 42 -135 23 -47 41 -89 41 -94 0 -4 13 -26 30 -49 68 -94 187 -100
286 -16 28 24 56 44 62 44 6 0 28 -11 48 -25 52 -35 105 -47 193 -42 79 4 182
35 189 56 3 10 -23 11 -114 5 -138 -7 -188 2 -239 47 -36 32 -37 51 -4 79 10
8 23 38 29 65 7 28 20 84 30 125 12 49 17 93 13 127 -5 46 -10 56 -38 73 -18
11 -44 20 -59 20 -35 0 -86 -57 -109 -124 -15 -45 -16 -63 -7 -151 6 -55 18
-121 27 -147 16 -44 16 -48 -1 -67 -26 -28 -130 -81 -160 -81 -58 0 -126 64
-126 118 0 11 -5 22 -12 24 -33 11 -73 314 -70 543 1 80 -1 92 -18 103 -17 10
-21 9 -31 -10z m561 -308 c17 -41 0 -123 -41 -207 -37 -77 -59 -83 -60 -15 0
26 -4 56 -8 66 -13 33 7 138 31 163 31 33 63 30 78 -7z"/>
<path d="M28387 2738 c-49 -66 -59 -113 -64 -283 -3 -88 -1 -190 4 -226 l9
-66 -70 -73 c-38 -41 -83 -78 -100 -84 -17 -6 -42 -19 -55 -28 -23 -16 -23
-18 -7 -42 32 -50 80 -29 177 75 l58 64 20 -25 c11 -13 22 -38 25 -54 4 -18
27 -50 57 -79 51 -49 52 -49 105 -45 44 4 60 11 97 44 24 21 50 49 57 62 14
22 40 30 40 12 0 -6 20 -33 45 -59 57 -61 99 -71 157 -39 21 12 41 32 44 44 3
13 12 25 20 28 8 3 14 12 14 20 0 30 -22 27 -60 -8 -58 -52 -90 -47 -138 20
-39 56 -53 133 -40 227 17 135 17 142 -12 145 -37 4 -56 -49 -59 -162 -3 -123
-33 -188 -114 -247 -74 -53 -116 -31 -166 90 -36 85 -38 113 -12 150 11 15 23
40 27 57 4 16 15 45 26 64 10 19 21 50 24 70 4 19 10 40 14 45 15 19 22 116
15 202 -6 72 -12 91 -31 110 -35 34 -77 31 -107 -9z m92 -51 c20 -51 22 -132
7 -202 -16 -77 -81 -208 -99 -202 -9 3 -12 49 -12 153 0 125 3 155 19 189 42
88 68 107 85 62z"/>
<path d="M8099 2723 c-16 -19 -17 -90 -4 -235 l6 -76 -53 -20 c-29 -11 -70
-26 -92 -33 -42 -15 -76 -51 -76 -81 0 -28 30 -35 49 -10 18 24 89 52 131 52
41 0 52 -20 46 -87 -14 -145 -17 -445 -5 -459 17 -21 43 -17 69 11 24 25 24
26 6 56 -17 28 -18 49 -11 254 4 122 10 227 14 232 9 15 117 -10 149 -34 36
-27 41 -77 34 -313 -4 -163 -3 -187 11 -199 24 -19 64 -6 81 27 8 15 17 49 21
75 6 39 5 47 -9 47 -9 0 -16 -7 -16 -15 0 -8 -5 -15 -12 -15 -8 0 -9 34 -5
128 13 266 -12 318 -173 362 -25 7 -56 16 -70 19 l-25 8 0 149 c0 82 -4 155
-8 162 -12 17 -42 15 -58 -5z"/>
<path d="M33820 2704 c-43 -18 -130 -124 -130 -159 0 -7 -7 -15 -15 -19 -8 -3
-15 -12 -15 -20 0 -7 -7 -17 -16 -20 -9 -3 -14 -12 -11 -20 3 -8 -2 -22 -12
-32 -19 -21 -20 -31 -23 -157 l-1 -87 -41 -12 c-23 -6 -68 -12 -101 -12 -65
-1 -107 20 -138 67 -15 23 -14 26 29 71 24 26 44 56 44 66 0 10 4 20 9 22 6 2
16 26 23 53 7 28 16 52 19 55 3 3 9 35 13 71 7 62 6 68 -16 83 -12 9 -30 16
-39 16 -17 0 -88 -71 -107 -106 -19 -37 -42 -146 -42 -203 0 -48 -4 -61 -25
-81 -34 -32 -31 -46 9 -60 18 -6 38 -21 43 -33 6 -12 23 -29 39 -37 16 -8 37
-21 47 -29 11 -9 40 -15 80 -15 49 0 72 5 112 27 38 20 64 27 107 27 73 0 101
13 165 78 29 29 57 51 62 47 6 -3 13 -32 17 -65 4 -33 11 -60 16 -60 28 0 -32
-38 -214 -137 -87 -48 -101 -59 -104 -88 -3 -31 24 -45 87 -45 43 0 47 5 24
30 -14 15 -7 22 81 80 112 74 119 73 147 -16 11 -32 22 -66 25 -74 3 -8 4 -21
3 -28 -1 -8 5 -25 14 -38 9 -13 15 -30 14 -37 -1 -6 3 -24 9 -39 6 -16 9 -49
5 -78 -6 -49 -5 -50 20 -50 44 0 74 49 47 76 -5 5 -16 44 -24 86 -8 42 -22 88
-31 102 -9 14 -15 33 -14 43 1 10 0 25 -4 33 -3 8 -12 36 -20 62 l-15 47 88
87 c49 48 94 101 100 117 l10 30 -24 -24 c-50 -50 -143 -109 -171 -109 -11 0
-14 21 -15 103 -1 56 -2 111 -2 122 0 11 2 72 6 136 6 108 5 117 -14 134 -20
18 -101 30 -130 19z m83 -86 c8 -31 -4 -239 -15 -260 -5 -10 -13 -18 -19 -18
-5 0 -23 -15 -40 -34 -59 -68 -165 -99 -186 -53 -13 28 -5 87 14 109 9 10 12
25 8 37 -4 15 -2 21 8 21 7 0 20 18 27 40 7 22 21 48 32 59 10 11 18 27 18 35
0 8 19 31 42 50 50 44 102 50 111 14z"/>
<path d="M5213 2578 c-17 -22 -24 -50 -14 -62 4 -6 12 -54 16 -106 4 -52 10
-133 13 -178 5 -62 4 -86 -6 -94 -18 -15 -49 16 -79 80 -22 44 -29 52 -53 52
-44 0 -108 -56 -146 -129 -19 -35 -38 -69 -44 -76 -5 -6 -15 -55 -22 -107 -25
-202 39 -298 163 -243 19 8 43 23 54 33 30 27 85 136 85 168 l-1 29 -19 -24
c-11 -13 -20 -31 -20 -41 0 -21 -77 -95 -109 -105 -13 -4 -38 -4 -56 -1 -25 5
-35 13 -40 34 -11 39 -13 142 -3 142 4 0 8 11 8 25 0 14 4 33 9 43 6 9 21 42
35 72 26 60 74 103 108 98 21 -3 27 -11 47 -60 11 -30 47 -38 69 -16 18 18 37
-4 24 -29 -7 -12 -7 -24 0 -37 6 -10 16 -48 24 -85 16 -80 42 -151 55 -151 5
0 9 -7 9 -16 0 -21 65 -47 102 -39 16 4 55 17 86 30 l57 23 38 -30 c51 -40
100 -57 167 -57 108 0 190 30 198 73 5 21 -39 21 -118 -1 -51 -14 -68 -14
-115 -4 -30 7 -55 17 -55 22 0 5 -7 9 -15 9 -8 0 -15 7 -15 15 0 8 -6 15 -14
15 -26 0 -27 17 -2 62 34 60 61 117 74 159 14 42 16 159 3 159 -6 0 -7 24 -4
55 5 49 3 59 -17 80 -55 59 -115 4 -161 -145 -13 -41 -17 -236 -7 -324 2 -24
-3 -34 -31 -53 -46 -31 -91 -30 -125 3 -14 15 -26 32 -26 38 0 6 -7 25 -16 41
-9 17 -19 70 -23 118 -6 69 -12 91 -27 102 -18 14 -18 14 0 15 17 0 18 5 12
52 -4 29 -10 55 -14 58 -6 4 -8 49 -11 228 -1 59 -29 105 -48 80z m464 -311
c1 -18 2 -50 2 -71 0 -22 6 -43 13 -47 10 -7 10 -9 1 -9 -7 0 -13 -9 -13 -19
0 -11 -4 -23 -10 -26 -5 -3 -10 -18 -10 -33 0 -15 -11 -44 -25 -65 -40 -58
-52 -50 -65 44 -9 65 6 169 28 191 7 7 12 19 12 27 0 8 10 25 22 38 26 28 42
17 45 -30z"/>
<path d="M31355 2570 c-7 -11 3 -65 16 -90 12 -21 40 -134 50 -200 19 -122 27
-146 82 -244 41 -74 55 -83 95 -67 37 15 42 32 48 140 2 46 9 89 15 97 6 7 8
18 5 23 -9 14 -10 183 -2 209 4 11 16 22 26 25 13 3 18 11 14 21 -3 9 -10 16
-14 16 -17 0 -70 -72 -72 -98 0 -15 -2 -55 -3 -89 -4 -92 -15 -173 -25 -173
-5 0 -10 -10 -12 -22 -6 -38 -26 -30 -56 22 -23 40 -34 79 -47 168 -10 64 -24
129 -31 144 -8 15 -14 41 -14 57 0 45 -56 91 -75 61z"/>
<path d="M3364 2531 c-33 -20 -74 -95 -94 -171 -7 -25 -16 -53 -21 -62 -5 -10
-9 -35 -9 -55 -1 -21 -5 -58 -10 -83 -4 -25 -6 -49 -2 -55 3 -5 7 -54 7 -110
1 -55 5 -118 9 -141 6 -37 4 -43 -28 -77 -19 -21 -55 -46 -79 -56 -57 -24 -66
-39 -39 -61 27 -23 68 -15 107 19 77 68 66 67 122 11 45 -44 55 -50 93 -50 72
0 116 20 207 96 48 41 91 74 94 74 3 0 15 -22 27 -48 31 -68 62 -94 119 -99
40 -4 55 -1 91 23 23 15 42 31 42 36 0 4 7 8 15 8 9 0 15 9 15 25 0 31 -1 31
-46 0 -46 -31 -95 -41 -125 -24 -13 7 -28 13 -34 14 -5 0 -14 19 -19 43 -6 23
-15 42 -22 42 -13 0 -29 84 -19 99 3 5 1 12 -5 16 -6 4 -4 19 6 43 9 20 20 59
24 87 6 43 4 52 -14 67 -37 31 -60 21 -94 -40 -13 -24 -9 -111 10 -174 10 -35
9 -39 -33 -89 -51 -61 -143 -124 -194 -133 -27 -5 -44 -2 -70 14 -37 23 -80
86 -64 95 5 4 16 21 25 38 8 18 26 52 39 77 14 25 20 47 15 48 -17 6 -11 23 6
20 13 -2 21 12 35 60 9 34 14 62 9 62 -9 0 -20 -25 -20 -46 0 -9 -13 -32 -29
-52 -16 -20 -40 -57 -53 -81 -24 -45 -38 -53 -49 -30 -14 30 -26 107 -25 162
1 31 -1 57 -5 57 -12 0 22 175 42 212 5 10 9 25 9 33 0 24 30 78 54 97 27 22
101 25 93 4 -3 -8 2 -30 11 -48 24 -49 29 -9 6 58 -23 68 -67 83 -130 45z"/>
<path d="M26488 2444 c-62 -40 -99 -134 -117 -296 -12 -104 9 -196 57 -250 47
-55 134 35 162 167 6 33 14 66 16 73 6 22 34 13 45 -15 6 -16 15 -36 20 -45 5
-10 9 -26 9 -37 0 -24 75 -118 101 -126 54 -17 129 43 129 104 0 36 -21 41
-35 9 -14 -32 -60 -56 -82 -42 -32 20 -54 60 -86 159 -26 82 -32 116 -32 190
0 100 -7 119 -39 111 -12 -3 -34 1 -50 9 -38 20 -54 18 -98 -11z m91 -58 c7
-8 17 -45 22 -82 7 -52 6 -72 -4 -88 -7 -12 -19 -43 -27 -71 -10 -38 -67 -160
-86 -183 -1 -2 -12 -1 -23 3 -73 23 -31 376 50 421 31 17 54 17 68 0z"/>
<path d="M9695 2401 c-76 -23 -114 -66 -150 -170 -20 -60 -22 -79 -15 -128 4
-32 13 -71 19 -87 9 -21 8 -32 0 -42 -21 -25 -138 -74 -177 -74 -66 0 -71 12
-81 221 -8 146 -13 186 -26 195 -8 6 -15 16 -15 23 0 25 -40 51 -79 51 -62 0
-107 -45 -152 -155 -15 -34 -18 -37 -24 -20 -44 128 -65 155 -119 155 -24 0
-43 -13 -88 -60 -31 -33 -59 -60 -61 -60 -3 0 -8 19 -12 43 -4 23 -11 50 -17
60 -10 19 -43 23 -54 6 -12 -19 2 -299 22 -456 6 -47 20 -53 67 -32 22 10 23
14 14 57 -5 26 -11 79 -14 118 -4 62 -1 78 20 120 14 27 46 71 71 99 42 45 48
48 62 33 25 -25 43 -130 51 -286 7 -158 13 -171 61 -135 23 17 26 27 29 92 1
39 7 80 12 89 4 9 12 44 16 77 11 94 66 185 111 185 31 0 51 -71 58 -210 8
-178 21 -228 65 -257 35 -24 108 -32 126 -14 6 5 53 28 107 51 l96 42 68 -27
c64 -26 75 -27 205 -23 143 4 163 9 179 53 17 45 -10 56 -74 30 -62 -26 -178
-31 -246 -10 -32 10 -62 25 -65 33 -3 8 13 46 36 84 51 85 76 192 58 250 -15
48 -57 87 -84 79z m40 -111 c12 -55 -23 -148 -79 -215 l-26 -30 -21 25 c-18
21 -20 33 -14 74 16 122 121 232 140 146z"/>
<path d="M6627 2382 c-19 -21 -22 -58 -6 -68 6 -3 9 -19 5 -35 -3 -16 1 -41 9
-56 15 -31 44 -166 49 -228 2 -22 6 -47 9 -55 3 -8 11 -40 17 -70 13 -58 51
-110 81 -110 32 0 48 12 78 59 24 36 34 69 47 153 18 118 13 248 -11 268 -23
19 -35 -19 -24 -71 8 -31 7 -60 -1 -99 -30 -142 -43 -190 -54 -205 -11 -15
-14 -15 -34 2 -28 22 -41 69 -53 188 -5 50 -13 110 -18 135 -6 25 -13 75 -16
112 -5 54 -11 71 -28 83 -27 19 -30 19 -50 -3z"/>
<path d="M26928 2395 c-3 -3 -2 -25 3 -48 4 -23 8 -65 9 -92 0 -28 5 -56 10
-61 6 -6 15 -67 21 -135 12 -157 26 -189 70 -156 15 11 16 26 6 140 -8 99 -8
142 2 189 12 61 35 108 52 108 39 0 81 -118 132 -375 12 -57 14 -60 42 -60 30
0 30 0 33 63 2 37 -2 69 -8 77 -8 10 -8 21 3 42 8 15 17 62 20 105 7 81 22
128 43 128 22 0 65 -92 80 -171 8 -42 18 -120 24 -174 7 -77 13 -103 29 -119
17 -16 26 -18 48 -10 37 13 40 40 10 72 -21 23 -27 44 -37 132 -6 58 -16 121
-22 140 -52 174 -71 203 -133 198 -36 -3 -42 -7 -60 -43 -11 -22 -24 -71 -30
-110 -5 -38 -14 -69 -20 -68 -5 1 -15 26 -21 56 -6 29 -18 64 -27 78 -9 13
-17 31 -17 39 0 28 -43 60 -82 60 -38 0 -55 -14 -82 -68 -15 -28 -20 -31 -32
-21 -10 8 -14 22 -10 39 3 15 0 32 -7 39 -11 11 -40 15 -49 6z"/>
<path d="M4099 2363 c-15 -18 -19 -114 -5 -124 16 -12 -4 -27 -47 -34 -125
-18 -193 -51 -181 -88 8 -29 14 -33 47 -41 25 -6 28 -4 22 13 -10 32 32 53
102 49 l58 -3 3 -190 c6 -308 5 -294 26 -301 13 -4 24 0 33 12 15 21 17 64 3
64 -5 0 -10 8 -10 18 0 14 2 15 10 2 13 -20 13 -12 -4 111 -7 52 -10 121 -6
152 3 31 2 61 -3 66 -5 5 -3 18 5 30 22 35 76 29 116 -14 19 -19 31 -39 28
-44 -3 -5 1 -14 9 -21 8 -7 15 -20 15 -29 0 -9 11 -47 25 -86 13 -38 25 -82
25 -96 0 -38 36 -79 69 -79 50 0 85 20 126 70 22 27 45 49 50 49 6 0 20 -22
33 -50 32 -70 72 -87 155 -68 32 8 59 18 60 23 1 6 -26 15 -60 21 -35 6 -66
15 -70 18 -3 4 -13 1 -20 -5 -12 -9 -14 -9 -11 3 3 14 -15 82 -34 129 -6 14
-11 79 -12 145 -1 103 -3 120 -18 123 -23 4 -31 -23 -43 -150 -4 -43 -11 -78
-16 -78 -5 0 -9 -12 -9 -26 0 -14 -5 -35 -11 -47 -18 -36 -72 -87 -90 -87 -25
0 -59 47 -59 81 0 15 -4 31 -10 34 -5 3 -10 17 -10 31 0 34 -49 133 -73 145
-14 8 -16 13 -7 24 9 11 3 19 -27 39 -21 13 -58 30 -83 36 -25 7 -48 17 -52
24 -4 6 -8 46 -8 89 0 81 -11 97 -41 60z"/>
<path d="M27667 2362 c-23 -25 -21 -77 2 -116 14 -23 22 -66 31 -161 6 -71 16
-175 21 -230 6 -55 13 -127 15 -160 4 -59 28 -171 45 -210 4 -11 14 -40 20
-65 20 -72 43 -88 80 -54 14 13 16 21 8 42 -5 14 -8 31 -5 38 3 8 -4 20 -15
28 -12 8 -27 23 -34 34 -12 16 -36 168 -59 365 l-6 47 46 0 c81 0 192 74 205
137 7 37 -7 76 -48 139 -42 63 -112 115 -184 137 -31 10 -62 24 -69 32 -17 20
-33 19 -53 -3z m156 -117 c35 -15 101 -81 126 -128 21 -40 7 -72 -46 -104 -27
-17 -60 -33 -75 -36 -14 -4 -33 -9 -40 -12 -12 -5 -17 19 -27 122 -7 70 -15
138 -18 151 -4 18 -1 22 20 22 13 0 40 -7 60 -15z"/>
<path d="M1076 2341 c-10 -11 -15 -24 -12 -30 4 -5 -2 -15 -13 -21 -20 -10
-61 -89 -61 -116 0 -8 -4 -22 -9 -32 -30 -61 -41 -100 -60 -207 -12 -66 -27
-143 -33 -172 -14 -66 -5 -258 15 -305 8 -19 36 -52 61 -73 42 -34 52 -38 99
-36 32 1 61 8 76 19 46 34 38 42 -33 35 -64 -6 -66 -5 -98 28 -59 62 -70 93
-69 192 1 49 3 93 6 96 2 4 5 27 6 52 2 57 33 210 54 272 9 27 14 51 11 55 -3
3 1 13 9 22 8 9 16 30 18 46 1 16 21 54 45 85 46 61 56 109 24 109 -11 0 -27
-9 -36 -19z"/>
<path d="M1508 2135 c-34 -23 -76 -83 -128 -185 -19 -38 -24 -65 -27 -165 -4
-116 -3 -122 24 -175 30 -60 53 -71 102 -50 25 10 101 90 101 105 0 13 48 64
54 58 3 -4 6 -21 6 -38 0 -17 3 -35 6 -38 4 -4 8 -20 9 -37 5 -57 40 -75 82
-42 19 15 22 30 27 124 7 144 22 221 58 296 31 65 48 78 48 39 0 -13 3 -27 8
-31 7 -7 48 -202 59 -279 3 -20 9 -40 14 -43 5 -3 9 -27 9 -54 0 -39 4 -50 19
-55 34 -11 61 15 62 60 2 135 11 218 26 242 10 14 19 35 20 46 4 22 35 57 51
57 6 0 13 -26 17 -57 4 -32 11 -65 16 -74 5 -9 10 -50 12 -91 2 -41 8 -81 12
-88 4 -7 8 -26 7 -42 -1 -39 23 -46 53 -18 25 23 30 42 39 135 6 66 25 152 42
192 8 17 14 35 14 40 0 5 11 20 24 32 l24 23 16 -30 c8 -16 20 -47 25 -68 5
-22 15 -57 21 -79 6 -22 11 -47 11 -55 0 -25 30 -133 46 -167 19 -38 53 -44
91 -15 l23 18 -30 22 c-40 29 -65 87 -75 172 -1 14 -8 35 -14 47 -7 12 -9 29
-6 37 3 9 -3 36 -15 61 -12 25 -21 55 -21 68 0 51 -80 88 -111 51 -15 -18 -35
-52 -45 -74 -3 -8 -10 -24 -15 -35 -4 -11 -16 -44 -25 -72 -17 -55 -44 -72
-44 -29 0 14 -4 28 -10 31 -5 3 -10 15 -10 25 0 40 -43 120 -68 127 -28 7 -65
-24 -82 -70 -7 -18 -16 -41 -21 -52 -4 -11 -13 -39 -20 -62 -7 -24 -16 -43
-20 -43 -8 0 -27 29 -27 43 -1 4 -10 32 -21 63 -12 30 -21 65 -21 78 0 13 -6
29 -14 36 -8 6 -12 18 -10 25 3 7 -4 18 -15 24 -36 20 -56 13 -74 -24 -9 -19
-22 -35 -28 -35 -5 0 -8 -8 -5 -18 4 -10 0 -38 -9 -61 -8 -24 -16 -67 -17 -97
-2 -33 -8 -56 -16 -59 -9 -3 -11 -15 -7 -38 5 -24 2 -37 -9 -46 -13 -11 -17
-10 -22 5 -3 11 -10 30 -14 44 -21 63 -25 94 -31 235 -4 70 -8 85 -33 118 -34
45 -65 48 -118 12z m69 -95 c2 -14 8 -73 14 -132 10 -104 10 -109 -13 -150
-29 -54 -96 -138 -111 -138 -6 0 -21 10 -34 22 -17 16 -23 32 -23 64 0 25 -5
44 -12 47 -10 3 -10 9 0 26 6 11 12 39 12 60 0 22 5 43 10 46 6 3 10 17 10 29
0 13 7 29 15 36 8 6 17 22 21 33 3 12 20 37 37 55 38 39 71 40 74 2z"/>
<path d="M2680 2131 c0 -16 -4 -41 -9 -54 -7 -18 -5 -27 8 -38 26 -23 38 -80
56 -264 9 -93 23 -231 30 -305 8 -74 14 -179 14 -232 1 -61 5 -98 11 -98 6 0
24 7 40 15 30 16 37 29 21 39 -11 7 -24 117 -21 193 0 35 -2 68 -6 74 -3 6 -8
34 -10 63 -2 28 -6 61 -9 74 -5 20 3 27 77 61 82 38 146 90 172 141 23 44 28
95 11 126 -8 16 -15 40 -15 53 0 13 -13 40 -29 60 -15 20 -33 46 -40 59 -6 12
-18 22 -26 22 -8 0 -15 4 -15 9 0 16 -87 31 -174 31 l-86 0 0 -29z m201 -44
c47 -16 96 -58 105 -91 3 -14 10 -29 16 -32 5 -3 6 -14 3 -25 -4 -11 -2 -19 4
-19 14 0 14 -40 1 -74 -27 -73 -166 -174 -197 -144 -15 16 -33 102 -40 193 -2
33 -9 63 -16 68 -9 7 -9 10 1 14 14 6 17 73 2 73 -14 0 -13 23 2 38 15 15 71
14 119 -1z"/>
</g>
</svg>
