<?xml version="1.0" standalone="no"?>
<!DOCTYPE svg PUBLIC "-//W3C//DTD SVG 20010904//EN"
 "http://www.w3.org/TR/2001/REC-SVG-20010904/DTD/svg10.dtd">
<svg version="1.0" xmlns="http://www.w3.org/2000/svg"
 width="1858.000000pt" height="1105.000000pt" viewBox="0 0 1858.000000 1105.000000"
 preserveAspectRatio="xMidYMid meet">
<metadata>
Created by potrace 1.16, written by Peter Selinger 2001-2019
</metadata>
<g transform="translate(0.000000,1105.000000) scale(0.100000,-0.100000)"
fill="#000000" stroke="none">
<path d="M5432 10064 c13 -13 15 -31 11 -97 -4 -65 -1 -94 14 -137 19 -55 17
-99 -6 -141 -15 -27 -25 -129 -12 -129 6 0 11 10 11 22 0 37 23 89 37 83 11
-4 12 6 7 46 -7 50 -7 51 15 38 11 -8 21 -22 21 -31 0 -10 5 -18 10 -18 6 0 8
10 6 23 -3 12 -8 48 -11 80 -5 42 -10 57 -22 57 -13 0 -14 -8 -9 -42 l6 -43
-22 45 c-25 51 -38 180 -19 180 16 0 3 52 -17 68 -23 18 -39 15 -20 -4z"/>
<path d="M4758 10004 c-16 -8 -25 -20 -22 -28 3 -8 1 -17 -5 -21 -18 -11 -12
-23 9 -18 11 3 20 13 20 23 0 21 48 43 82 38 18 -2 22 -8 20 -28 -1 -14 -4
-50 -5 -80 -1 -30 -9 -75 -17 -98 -10 -33 -11 -48 -3 -62 8 -12 8 -21 1 -28
-5 -5 -8 -20 -6 -33 3 -21 4 -22 20 -6 36 37 43 24 39 -79 -2 -49 3 -75 28
-133 32 -75 37 -96 24 -104 -5 -2 -3 -2 4 -1 17 4 26 -12 18 -35 -4 -13 -12
-17 -29 -14 -13 3 -27 0 -30 -6 -4 -6 0 -11 9 -11 13 0 16 -6 11 -25 -4 -14
-3 -25 2 -25 12 0 52 75 52 98 0 11 5 22 11 24 6 2 -1 24 -19 53 -34 57 -67
176 -57 212 6 27 46 93 56 93 16 0 18 -34 4 -60 -8 -16 -15 -55 -15 -88 0 -48
4 -62 23 -80 24 -23 76 -42 111 -42 30 0 13 10 -39 23 -32 8 -55 21 -69 40
l-20 27 21 71 c22 76 18 120 -14 146 -13 10 -13 18 -4 44 6 18 11 43 11 57 0
29 -30 102 -42 102 -13 0 -9 -23 7 -44 21 -28 19 -106 -4 -133 -28 -33 -37
-29 -50 21 -14 57 -14 56 5 56 8 0 13 4 9 9 -3 5 -9 31 -14 56 -7 37 -6 48 6
52 11 4 10 10 -8 29 -26 28 -88 32 -131 8z"/>
<path d="M4936 10001 c-20 -22 -21 -35 -2 -28 7 3 18 1 23 -4 6 -6 16 -2 27
10 20 22 53 17 61 -9 3 -9 14 -25 23 -34 17 -15 20 -14 47 14 16 17 36 30 45
30 9 0 33 -18 53 -41 40 -43 41 -52 10 -112 -8 -16 -12 -35 -9 -44 4 -11 -1
-9 -22 5 -15 10 -34 21 -43 24 -8 4 -23 21 -32 40 -16 32 -15 34 5 49 22 17
22 17 -5 12 -38 -7 -41 -17 -21 -68 11 -30 23 -45 34 -45 10 0 23 -7 30 -15 7
-8 19 -15 26 -15 10 0 14 -16 14 -61 0 -67 8 -87 55 -140 38 -43 62 -35 57 19
-4 35 22 102 38 102 15 0 12 98 -2 102 -9 3 -8 24 6 84 10 44 17 89 15 99 -5
23 -40 31 -66 16 -15 -9 -13 -10 10 -5 21 5 28 3 26 -7 -1 -8 1 -21 5 -30 4
-9 -2 -50 -12 -92 -16 -63 -17 -77 -6 -81 8 -3 14 -20 14 -42 0 -28 -3 -35
-15 -31 -11 5 -13 0 -8 -23 7 -39 -13 -40 -28 -2 -6 15 -16 36 -21 46 -8 15
-6 23 11 35 19 15 20 18 6 56 -20 58 -18 75 13 109 15 17 18 24 7 16 -11 -8
-23 -19 -26 -24 -11 -14 -39 1 -39 21 0 19 -57 63 -81 63 -9 0 -28 -13 -44
-30 -27 -28 -30 -29 -47 -13 -22 20 -24 43 -3 43 8 0 15 4 15 8 0 4 -29 8 -64
10 -50 1 -67 -2 -80 -17z"/>
<path d="M9720 9973 c-55 -10 -167 -46 -196 -64 -17 -10 -41 -19 -52 -19 -27
0 -49 -33 -58 -86 -5 -37 -3 -45 26 -78 l32 -36 -41 -45 c-40 -43 -52 -77 -31
-90 18 -11 11 -69 -10 -82 -17 -11 -21 -8 -38 31 -11 24 -26 47 -33 52 -11 6
-11 5 0 -9 8 -10 19 -41 26 -70 11 -49 10 -53 -17 -93 -16 -24 -35 -59 -43
-78 -9 -20 -19 -36 -23 -36 -4 0 -18 20 -32 44 -13 25 -32 47 -42 49 -24 7
-23 47 1 95 20 38 75 95 101 105 9 3 4 6 -11 6 -66 2 -165 -185 -118 -223 8
-7 33 -32 56 -57 42 -44 42 -45 31 -84 -6 -22 -11 -43 -10 -46 1 -4 -3 -33 -8
-65 -16 -98 -14 -290 5 -379 62 -296 196 -484 437 -612 64 -35 121 -63 125
-63 5 0 26 -9 48 -20 22 -11 48 -20 58 -20 11 0 37 -5 58 -12 43 -13 44 -15
28 -104 -57 -321 -76 -376 -174 -509 -50 -69 -80 -115 -120 -186 -50 -89 -127
-222 -204 -352 -101 -171 -262 -508 -301 -632 -31 -95 -48 -149 -104 -335 -19
-63 -48 -195 -64 -293 -27 -165 -31 -181 -59 -210 -54 -58 -73 -95 -105 -199
-35 -115 -40 -193 -15 -248 15 -33 16 -34 22 -12 10 29 29 29 21 -1 -6 -27 36
-82 71 -92 30 -8 109 70 146 145 32 67 60 216 54 286 -9 90 -60 164 -114 164
-28 0 -29 17 -8 127 9 43 20 107 25 143 14 99 156 560 205 665 18 39 51 111
74 160 55 120 104 211 169 320 30 50 66 110 79 135 35 64 231 391 248 414 8
11 18 17 22 13 10 -10 -26 -126 -120 -392 -47 -132 -93 -269 -102 -305 -9 -36
-36 -128 -61 -206 -60 -189 -129 -534 -154 -768 -11 -105 -23 -197 -25 -204
-2 -7 -7 -58 -10 -115 -3 -56 -7 -125 -10 -152 -7 -57 10 -289 24 -344 5 -20
15 -63 22 -96 27 -130 138 -404 211 -520 13 -22 42 -74 63 -115 22 -41 54 -92
71 -112 18 -20 45 -55 59 -77 26 -39 26 -40 11 -88 -22 -68 -53 -249 -66 -378
-32 -337 -67 -618 -89 -718 -31 -135 -62 -432 -71 -662 l-9 -250 22 -21 c26
-24 59 -79 51 -87 -3 -3 11 -17 31 -33 30 -22 38 -25 45 -14 7 12 10 11 16 -3
8 -22 92 -24 132 -3 15 8 46 17 67 21 65 11 75 15 75 33 0 13 2 14 9 3 16 -24
71 -4 86 33 17 40 5 186 -19 232 -20 39 -96 74 -158 74 -114 0 -255 -45 -301
-95 -17 -19 -18 -13 -14 200 5 213 15 310 61 575 19 110 63 444 71 540 16 194
27 285 52 408 15 72 30 132 34 132 4 0 12 -13 17 -29 9 -24 72 -80 130 -115
39 -23 179 -47 308 -53 207 -8 328 20 462 110 59 39 76 46 88 36 18 -15 98
-180 134 -279 16 -41 48 -122 73 -180 54 -126 148 -390 212 -595 26 -82 77
-231 112 -330 74 -204 122 -373 123 -427 0 -50 50 -100 113 -117 26 -6 47 -16
47 -22 0 -8 44 -10 154 -7 172 5 190 11 288 97 26 23 51 41 55 39 15 -6 44 66
39 98 -8 57 -66 125 -135 161 -61 32 -67 33 -161 29 -78 -2 -103 -7 -126 -23
-16 -11 -44 -28 -63 -38 -50 -25 -145 -105 -166 -138 -9 -16 -19 -27 -21 -24
-2 2 -13 40 -24 84 -12 44 -35 118 -52 164 -17 46 -84 242 -149 434 -147 437
-167 493 -228 635 -26 63 -63 153 -81 200 -18 47 -56 129 -83 183 l-50 97 29
38 c156 195 217 296 312 512 79 181 113 303 128 465 20 215 5 514 -37 714 -10
52 -19 106 -19 121 0 14 -11 64 -23 110 -13 47 -30 110 -36 140 -7 30 -19 78
-26 105 -8 28 -26 100 -41 160 -15 61 -39 151 -55 200 -15 50 -41 137 -57 195
-41 144 -125 388 -151 438 -12 23 -21 46 -21 53 0 6 -22 57 -50 113 -27 56
-50 106 -50 110 0 10 202 -177 264 -244 28 -30 96 -100 151 -155 244 -244 508
-555 607 -717 18 -29 67 -102 109 -163 45 -65 93 -151 119 -210 23 -55 60
-126 81 -159 21 -32 39 -60 39 -62 0 -11 -46 -21 -57 -12 -16 12 -91 -10 -120
-35 -40 -36 -59 -130 -43 -216 20 -112 62 -177 137 -215 55 -28 161 -15 190
23 11 14 12 14 13 -2 0 -29 37 -3 60 42 23 45 27 99 11 158 -13 49 -45 106
-54 96 -4 -3 -7 2 -7 13 0 10 26 46 58 79 31 34 84 92 117 130 33 39 100 113
150 165 49 53 122 138 162 190 40 52 104 131 143 175 39 44 113 144 166 223
53 79 98 141 101 139 3 -3 -7 -61 -21 -129 -59 -279 -160 -925 -185 -1183 -6
-55 -17 -165 -24 -245 -16 -162 -15 -371 2 -470 6 -36 28 -121 50 -188 34
-105 48 -134 98 -199 108 -141 321 -301 518 -389 l70 -32 -5 -98 c-3 -55 -4
-130 -3 -169 1 -80 2 -355 0 -525 0 -63 3 -183 8 -266 6 -108 4 -184 -5 -265
-7 -63 -15 -117 -17 -122 -2 -4 -21 2 -42 14 -33 18 -50 20 -137 17 -119 -4
-168 -25 -253 -104 -51 -47 -56 -55 -55 -92 3 -87 11 -105 74 -152 59 -44 62
-45 133 -44 96 2 183 25 262 71 64 37 66 39 85 104 26 86 25 105 -6 142 l-27
32 9 120 c5 66 8 156 7 200 -7 314 -10 990 -4 1049 l6 71 40 -3 c22 -2 67 -13
100 -25 52 -19 78 -21 190 -19 124 2 133 4 200 35 69 33 119 73 163 131 12 15
27 26 34 23 7 -3 36 -49 63 -103 28 -54 76 -141 107 -193 32 -53 58 -100 58
-105 0 -4 13 -27 28 -50 30 -45 162 -311 162 -327 0 -6 20 -49 45 -97 52 -98
155 -320 155 -331 0 -4 18 -52 41 -107 22 -54 45 -112 51 -129 6 -16 14 -39
19 -50 4 -11 10 -35 13 -52 5 -32 4 -33 -28 -33 -19 0 -64 -11 -100 -25 -37
-14 -75 -25 -85 -25 -27 0 -106 -64 -140 -113 -77 -112 -111 -203 -103 -276
11 -111 106 -117 292 -20 90 47 196 139 187 162 -3 8 5 25 18 37 30 28 59 112
50 141 -4 12 -8 34 -9 50 -1 15 -10 36 -19 46 -9 11 -32 62 -51 116 -20 53
-40 104 -45 114 -6 10 -26 61 -46 113 -43 112 -51 129 -146 325 -40 83 -80
170 -89 195 -35 91 -121 252 -256 481 -34 58 -81 143 -104 190 -23 46 -47 87
-52 90 -6 4 3 34 20 70 66 142 93 255 114 489 18 201 16 387 -6 575 -18 160
-27 204 -66 345 -11 41 -27 109 -34 150 -8 42 -26 100 -39 131 -14 30 -29 68
-32 84 -14 59 -37 121 -72 195 -19 41 -55 122 -79 180 -24 58 -56 132 -73 165
-16 33 -27 63 -24 67 11 19 99 -69 282 -284 45 -54 86 -98 89 -98 4 0 23 -24
42 -53 41 -63 101 -144 155 -212 44 -55 116 -162 160 -239 15 -28 47 -75 70
-105 23 -31 47 -71 54 -88 8 -18 17 -33 22 -33 5 0 9 -7 9 -15 0 -8 18 -50 39
-93 49 -97 94 -224 89 -254 -2 -19 -8 -22 -31 -20 -79 8 -152 -71 -177 -192
-19 -92 9 -213 57 -250 36 -27 130 -33 174 -11 82 42 110 93 111 205 1 82 -22
153 -66 200 -13 14 -29 41 -35 60 -42 135 -75 227 -91 255 -10 18 -22 41 -28
51 -58 116 -82 158 -122 214 -26 36 -59 88 -74 115 -14 28 -36 64 -48 80 -150
200 -226 305 -243 331 -28 46 -212 251 -330 369 -136 137 -213 254 -260 395
-15 47 -38 107 -51 134 -13 27 -27 65 -30 85 -4 20 -11 39 -16 42 -6 4 -11 73
-12 155 l-3 149 54 58 c29 32 62 75 72 96 11 21 27 44 37 52 16 13 17 12 11
-11 -20 -82 -36 -212 -42 -324 -3 -71 -8 -133 -11 -138 -3 -4 -1 -8 5 -8 18 0
22 18 31 172 12 184 35 306 55 286 14 -13 9 -263 -8 -382 -17 -120 -16 -157 2
-128 13 21 36 242 36 347 0 55 -6 125 -14 156 -12 49 -12 62 3 105 14 43 35
199 36 262 0 14 5 22 12 20 8 -3 20 -54 30 -129 18 -121 18 -243 3 -464 -5
-60 -3 -68 8 -53 10 13 16 70 20 202 7 195 -1 282 -41 456 -11 47 -25 117 -32
155 -7 39 -16 75 -20 80 -4 6 -16 36 -26 68 -16 52 -54 107 -54 79 0 -7 4 -12
9 -12 5 0 15 -26 22 -57 7 -32 16 -63 21 -70 15 -19 35 -170 28 -215 -5 -40
-7 -35 -28 72 -13 63 -25 126 -27 140 -3 14 -14 52 -25 85 -13 38 -17 62 -11
68 7 7 0 23 -18 46 -16 20 -38 56 -51 81 -12 25 -51 73 -87 107 -72 69 -74 89
-10 80 66 -9 27 12 -44 24 -38 6 -72 18 -85 30 -11 10 -25 19 -31 19 -6 0 -13
4 -15 8 -1 4 -18 18 -36 31 -45 32 -32 45 41 38 39 -4 56 -2 49 5 -5 5 -37 12
-71 15 -51 5 -61 9 -61 24 0 27 -18 24 -22 -3 -2 -19 -9 -23 -38 -22 -45 2
-93 21 -85 34 3 5 27 10 52 10 26 0 43 3 39 7 -3 4 -48 6 -98 4 -82 -2 -90 -1
-79 13 22 26 112 64 199 83 45 10 82 21 82 25 0 12 -18 9 -130 -20 -58 -16
-125 -41 -150 -57 -25 -15 -47 -29 -50 -29 -14 -1 -40 -33 -40 -48 0 -9 -5
-20 -11 -24 -23 -14 -69 -99 -69 -128 0 -36 13 -25 29 24 6 19 29 56 52 83 36
42 45 47 81 47 52 0 113 -35 133 -76 19 -40 19 -49 -1 -80 -22 -33 -7 -45 18
-15 25 32 32 22 48 -74 25 -146 -2 -364 -60 -488 -12 -25 -20 -52 -18 -59 7
-19 65 109 83 183 9 35 20 113 24 173 6 97 10 111 30 127 56 45 60 24 36 -165
-18 -133 -35 -184 -100 -290 -25 -41 -45 -78 -45 -82 0 -19 55 47 87 104 50
90 69 158 84 307 7 72 17 133 23 137 6 4 28 8 49 8 20 0 37 5 37 10 0 6 -22
10 -49 10 l-48 0 -12 57 c-14 73 -14 73 9 73 14 0 20 -7 20 -22 0 -18 6 -23
27 -25 31 -1 62 -34 70 -75 4 -21 11 -28 28 -28 32 0 37 -20 11 -48 l-21 -23
30 4 c42 5 76 -32 109 -123 15 -41 36 -93 46 -115 19 -40 26 -66 55 -207 15
-73 17 -158 4 -158 -3 0 -14 30 -24 68 -10 37 -25 78 -35 92 -9 14 -22 44 -30
68 -7 23 -16 42 -20 42 -4 0 -10 13 -13 29 -7 32 -93 136 -101 122 -3 -4 10
-23 29 -41 20 -19 49 -68 71 -119 20 -47 43 -95 49 -106 7 -11 21 -49 30 -85
9 -36 20 -81 26 -101 18 -71 5 -149 -26 -149 -8 0 -15 -7 -15 -15 0 -8 5 -15
10 -15 21 0 8 -38 -36 -110 -25 -41 -60 -90 -77 -109 -52 -55 -145 -110 -236
-139 -82 -25 -95 -27 -281 -26 -167 1 -204 4 -260 22 -126 40 -312 134 -410
207 -19 14 -47 35 -62 45 -25 19 -98 122 -131 186 -20 39 -57 213 -57 267 0
93 49 268 108 386 28 55 52 77 52 46 0 -9 5 -13 10 -10 6 3 10 23 10 43 0 26
11 53 37 91 49 70 55 47 13 -46 -27 -58 -32 -84 -37 -175 -6 -105 -5 -109 21
-149 15 -22 30 -38 33 -35 4 3 -2 15 -12 26 -26 29 -32 156 -11 238 25 99 78
202 136 265 91 100 126 104 60 7 -93 -137 -136 -276 -126 -409 3 -46 11 -91
17 -100 7 -11 8 12 4 81 -7 113 8 191 60 305 32 70 123 208 132 200 2 -3 -14
-33 -36 -67 -24 -36 -41 -75 -41 -92 0 -40 15 -35 29 11 13 46 77 145 118 182
36 34 73 46 73 25 0 -21 13 -20 33 2 12 13 14 21 6 29 -7 7 -2 17 19 32 31 22
86 28 97 11 3 -5 11 -10 16 -10 6 0 8 4 5 8 -3 5 4 23 15 41 26 43 87 69 207
86 l97 14 -96 -4 c-111 -5 -167 -23 -222 -72 -21 -19 -42 -31 -48 -28 -5 4
-25 31 -44 60 -19 30 -48 61 -64 70 -43 22 -52 18 -14 -6 28 -18 83 -97 83
-120 0 -12 -59 -41 -70 -34 -6 3 -10 12 -10 18 0 18 -49 61 -98 86 -53 27 -54
22 -3 -12 50 -33 91 -77 91 -97 0 -8 -21 -25 -47 -38 -27 -12 -55 -27 -63 -32
-8 -5 -54 -28 -102 -51 -64 -30 -101 -56 -138 -95 -27 -29 -50 -47 -50 -40 0
23 56 101 93 129 51 38 142 79 169 75 13 -1 25 1 28 5 7 9 -89 77 -109 77 -9
0 -2 -9 17 -21 17 -12 32 -25 32 -29 0 -14 -191 -110 -219 -110 -86 0 -196
-69 -280 -175 -34 -42 -61 -73 -62 -68 -12 107 78 286 179 356 58 41 148 67
211 60 31 -3 51 -1 51 5 0 29 -150 14 -222 -21 -94 -46 -204 -174 -227 -262
-5 -22 -12 -114 -15 -205 -3 -102 -11 -184 -20 -215 -25 -85 -39 -213 -33
-309 4 -71 13 -113 40 -188 20 -53 46 -139 58 -190 12 -51 26 -97 32 -103 6
-6 7 -3 4 10 -3 11 -9 43 -13 70 -4 28 -27 111 -52 185 -37 112 -45 151 -49
230 -6 133 18 254 72 361 24 46 24 47 3 41 -20 -5 -21 -3 -15 58 8 74 31 123
90 191 59 69 177 151 177 123 0 -4 -24 -32 -52 -63 -67 -72 -111 -154 -137
-256 -30 -118 -37 -191 -21 -221 11 -20 12 -40 1 -113 -7 -49 -10 -104 -6
-122 3 -19 7 -104 9 -189 3 -145 5 -160 35 -240 18 -47 43 -115 56 -152 13
-36 42 -104 64 -151 23 -47 41 -97 41 -112 0 -15 4 -24 10 -20 19 11 10 55
-24 123 -18 37 -45 99 -59 137 -14 39 -39 104 -55 145 -40 98 -68 300 -43 300
5 0 16 -21 25 -46 8 -25 36 -74 61 -109 48 -67 53 -81 33 -88 -10 -3 -4 -29
21 -98 18 -52 43 -123 56 -159 19 -55 90 -216 102 -229 1 -2 5 -2 8 1 4 4 -19
66 -55 143 -34 73 -100 272 -100 301 0 41 10 43 46 9 94 -87 439 -255 524
-255 16 0 32 -4 35 -10 6 -10 -4 -101 -31 -267 -22 -138 -53 -216 -129 -328
-38 -55 -90 -131 -116 -170 -27 -38 -80 -106 -119 -150 -39 -44 -90 -105 -113
-135 -82 -107 -155 -195 -187 -225 -18 -16 -79 -83 -136 -147 -136 -153 -179
-198 -190 -198 -5 0 -17 14 -26 30 -9 17 -24 30 -33 30 -11 0 -15 7 -13 23 1
13 -17 52 -49 100 -28 44 -64 109 -78 145 -42 104 -57 132 -105 197 -25 33
-70 98 -100 145 -49 78 -145 209 -228 314 -17 22 -44 57 -60 77 -68 88 -341
370 -705 727 -42 42 -80 85 -83 94 -3 10 -13 18 -22 18 -11 0 -24 17 -36 48
-11 26 -71 152 -134 281 -77 157 -112 238 -106 247 5 7 70 43 144 82 252 129
426 276 490 414 37 79 50 230 30 348 -7 41 -14 89 -14 105 0 17 -5 33 -10 36
-16 12 5 29 37 29 18 0 43 7 56 16 22 16 23 21 16 83 -4 36 -7 94 -6 129 0 36
-5 75 -13 90 -13 24 -13 22 -8 -26 2 -29 0 -52 -5 -52 -5 0 -28 9 -51 20 -51
25 -75 25 -129 0 -38 -17 -44 -17 -51 -3 -6 9 -5 32 0 56 6 26 5 51 -2 73 -15
45 -30 43 -20 -2 8 -34 4 -64 -7 -64 -12 0 -32 36 -33 59 0 15 -5 21 -14 18
-15 -6 -42 35 -32 51 6 10 -39 34 -48 25 -11 -11 -7 -19 29 -64 19 -24 35 -49
35 -55 0 -7 -15 -34 -34 -61 -39 -57 -51 -89 -36 -98 16 -10 12 -43 -7 -48
-10 -3 -3 -5 15 -6 35 -1 37 2 22 46 -9 25 -6 40 17 91 15 34 31 62 36 62 15
0 36 -33 37 -55 0 -26 -28 -67 -41 -60 -5 4 -9 -3 -9 -14 0 -29 14 -26 43 9
41 48 54 32 17 -20 -19 -27 -20 -31 -5 -75 13 -36 14 -50 4 -61 -17 -21 -22
-18 -42 27 -15 32 -17 43 -7 55 16 18 9 27 -15 18 -23 -9 -14 -56 20 -99 13
-18 27 -44 31 -59 9 -39 24 -31 24 13 0 46 18 64 54 55 30 -7 34 -34 7 -51
-20 -12 -34 -50 -22 -58 4 -2 15 12 25 31 12 27 21 35 39 32 18 -2 26 -16 44
-70 53 -164 50 -361 -8 -482 -59 -124 -238 -274 -463 -390 -125 -64 -165 -80
-241 -96 -85 -19 -335 -16 -400 4 -27 9 -60 16 -73 16 -13 0 -40 8 -60 19
-251 126 -316 170 -399 274 -93 115 -149 241 -177 398 -21 118 -26 399 -6 399
5 0 7 -14 4 -32 -6 -32 -6 -32 9 -12 11 14 17 46 18 100 1 43 8 99 15 123 13
43 100 181 115 181 8 0 29 -55 29 -76 0 -7 11 -25 24 -39 13 -14 31 -40 39
-58 15 -30 15 -33 -5 -54 -26 -27 -35 -28 -60 -6 -18 16 -18 16 -12 -3 4 -10
13 -26 21 -35 18 -21 8 -45 -25 -59 -24 -9 -10 -9 27 1 16 5 35 -54 28 -83 -6
-21 6 -24 21 -5 5 7 6 21 1 32 -17 43 -10 86 21 125 17 21 30 47 30 58 0 29
18 72 30 72 5 0 10 -8 10 -19 0 -19 36 -71 50 -71 4 0 -1 17 -11 37 -25 48
-24 94 1 126 31 39 23 51 -10 15 l-29 -33 -1 41 c0 22 5 45 11 51 8 8 8 13 0
17 -6 4 -11 17 -11 29 0 12 -5 29 -11 37 -7 11 -8 3 -4 -28 6 -35 4 -46 -11
-56 -15 -11 -15 -18 -6 -46 7 -18 12 -44 12 -57 0 -24 -28 -83 -40 -83 -13 0
-70 98 -70 121 0 15 -7 32 -15 39 -8 7 -15 18 -15 26 0 18 108 104 131 104 10
0 19 5 19 10 0 6 26 23 57 38 49 24 58 32 71 70 11 35 18 43 35 40 34 -5 33
-36 0 -49 -15 -6 -23 -13 -16 -16 7 -2 27 2 45 11 18 8 60 22 93 31 33 10 69
21 80 25 39 16 -38 10 -80 -6 -72 -27 -75 -28 -75 -8 0 36 -16 49 -44 36 -21
-9 -28 -8 -42 5 -15 15 -17 15 -26 0 -6 -11 -22 -17 -43 -17 -19 0 -36 -4 -39
-9 -3 -5 17 -9 45 -9 28 -1 54 -3 56 -6 8 -8 -48 -70 -86 -96 -33 -21 -35 -22
-48 -4 -18 25 -16 64 5 87 17 19 16 20 -11 13 -35 -8 -63 6 -82 44 -27 53 -15
100 28 100 10 0 33 10 50 23 44 31 91 47 167 54 45 4 58 9 45 14 -11 4 -22 7
-25 7 -3 0 -16 -3 -30 -5z m1428 -719 c12 -8 22 -23 21 -32 0 -17 -99 -102
-118 -102 -14 0 -54 84 -49 106 7 40 102 59 146 28z m56 -118 c15 -98 -28
-140 -101 -101 -45 24 -55 63 -22 84 13 9 40 30 59 48 19 18 40 31 45 29 6 -1
14 -28 19 -60z m1576 -509 c0 -9 -94 -182 -137 -255 -28 -45 -67 -126 -88
-180 -48 -122 -60 -135 -51 -57 10 93 44 211 80 284 35 69 157 211 182 211 8
0 14 -1 14 -3z m-2334 -644 c4 -10 42 -92 87 -183 151 -310 197 -411 197 -431
0 -10 7 -19 15 -19 8 0 15 -6 15 -14 0 -7 11 -34 25 -58 58 -105 202 -493 259
-703 13 -49 34 -121 46 -160 12 -38 25 -86 30 -105 25 -106 104 -417 125 -495
14 -50 25 -103 25 -117 0 -14 9 -68 19 -119 32 -158 44 -334 38 -542 -3 -106
-11 -219 -16 -253 -27 -154 -130 -408 -252 -619 -72 -124 -177 -255 -206 -255
-7 0 -13 -10 -13 -22 0 -16 -18 -35 -61 -66 -93 -66 -205 -106 -328 -117 -66
-6 -267 7 -351 23 -57 10 -161 71 -157 92 3 15 -51 108 -94 163 -12 15 -19 30
-16 33 3 3 36 -1 74 -10 245 -55 289 -60 523 -59 241 2 295 11 420 64 73 32
150 81 150 97 0 18 -12 15 -51 -14 -40 -31 -113 -65 -201 -94 -55 -18 -94 -21
-298 -25 -129 -3 -255 -1 -280 4 -25 5 -94 19 -155 31 -212 42 -237 56 -295
170 -12 25 -45 82 -72 127 -88 146 -183 399 -220 584 -19 99 -22 142 -21 329
1 134 7 254 17 320 8 58 18 137 21 175 12 136 60 417 96 565 16 64 57 203 84
285 13 39 29 95 36 125 12 53 22 84 116 350 88 249 181 554 206 678 l22 107
64 -3 c35 -2 83 -7 108 -10 25 -4 99 -3 164 2 107 8 119 11 119 28 0 11 -5 16
-10 13 -6 -4 -25 -8 -43 -11 -18 -2 -63 -8 -102 -13 -63 -7 -187 2 -270 22
-21 5 -25 37 -11 93 6 24 8 25 94 22 119 -4 218 3 266 18 54 17 56 17 62 -3z
m3437 -845 c5 -69 3 -91 -9 -102 -7 -8 -14 -19 -14 -23 0 -26 -100 -93 -139
-93 -11 0 -22 -4 -26 -10 -3 -5 -12 -7 -20 -3 -26 9 -65 -6 -65 -26 0 -23 -31
-81 -43 -81 -10 0 1 61 14 75 19 19 6 22 -102 24 -61 1 -119 6 -129 11 -30 16
-47 11 -54 -15 -4 -14 -11 -25 -16 -25 -13 0 -13 27 1 36 6 3 8 16 5 27 -5 20
9 151 20 188 4 14 30 17 182 22 146 4 187 9 231 26 56 21 71 20 71 -5 0 -8 10
-31 23 -52 13 -20 27 -46 31 -57 5 -12 10 -15 13 -8 2 6 -7 36 -21 66 -14 30
-26 61 -26 70 0 18 52 59 61 49 4 -4 9 -46 12 -94z m106 -448 c12 -41 38 -106
58 -145 58 -109 80 -155 103 -215 12 -30 35 -82 51 -115 15 -33 40 -91 54
-128 14 -37 46 -110 70 -162 25 -52 49 -112 54 -132 6 -21 14 -54 19 -73 5
-19 18 -53 30 -76 11 -22 26 -69 32 -105 14 -81 47 -212 65 -264 24 -66 70
-533 60 -600 -3 -16 -12 -112 -20 -213 -33 -412 -145 -637 -362 -729 -28 -12
-75 -16 -178 -17 -126 -1 -144 1 -186 22 -25 12 -52 22 -60 22 -8 0 -25 7 -37
16 -12 8 -31 13 -41 9 -41 -13 -229 92 -400 223 -110 83 -147 123 -105 109
170 -55 519 -99 674 -86 319 27 484 78 601 186 51 48 74 83 52 83 -3 0 -35
-27 -69 -60 -100 -96 -220 -140 -491 -179 -131 -20 -364 -7 -542 30 -52 10
-105 19 -119 19 -14 0 -44 11 -66 24 -36 21 -44 22 -60 11 -20 -15 -16 -19
-92 87 -28 40 -48 94 -96 263 -26 92 -35 349 -19 518 39 405 39 408 86 717 55
370 138 817 177 960 11 41 23 90 25 108 7 43 24 49 66 23 48 -30 72 -27 87 9
17 42 43 41 28 -1 -13 -37 -4 -48 45 -56 33 -5 37 -3 37 15 0 11 5 24 11 28 8
5 10 -1 5 -19 -3 -15 -2 -27 5 -29 21 -7 182 11 193 22 5 5 17 10 26 10 20 0
97 37 129 61 l23 19 28 -58 c15 -31 37 -91 49 -132z"/>
<path d="M10165 7383 c-11 -29 -27 -478 -20 -608 3 -66 12 -223 20 -350 8
-126 17 -291 20 -365 12 -261 36 -547 61 -735 15 -104 29 -221 33 -259 3 -42
11 -71 19 -74 16 -5 16 32 -3 138 -49 279 -63 429 -89 935 -9 160 -20 362 -27
450 -14 211 -14 667 1 778 8 58 9 92 2 99 -6 6 -12 3 -17 -9z"/>
<path d="M10315 9949 c-104 -17 -150 -49 -150 -103 0 -30 -2 -31 -45 -34 -29
-2 -48 -10 -57 -22 -7 -10 -23 -20 -36 -22 -17 -2 -23 -11 -25 -37 -4 -41 5
-81 18 -81 5 0 7 13 4 30 -9 44 16 77 66 85 22 4 44 13 48 22 18 30 39 -27 40
-106 0 -40 5 -78 11 -84 6 -6 11 -41 11 -78 0 -58 3 -69 26 -93 19 -18 30 -23
39 -16 14 12 25 3 25 -19 1 -16 33 -61 44 -61 12 0 5 38 -9 50 -8 7 -15 16
-15 20 0 14 91 100 105 100 7 0 18 -13 24 -30 12 -35 12 -35 51 -15 38 20 58
59 66 130 5 44 10 55 23 53 13 -3 15 -14 13 -54 -5 -71 12 -123 54 -166 42
-45 53 -49 25 -9 -12 16 -21 36 -21 44 0 8 -6 17 -14 20 -17 7 -18 113 -1 127
9 7 23 1 49 -23 39 -36 47 -66 19 -68 -24 -2 -25 -2 -47 7 -18 7 -18 6 -1 -13
17 -21 46 -21 72 0 9 6 15 4 19 -7 3 -9 15 -16 26 -16 19 0 19 1 5 24 -14 21
-14 26 -2 36 8 7 12 16 9 21 -2 5 13 47 36 94 22 48 40 96 40 109 0 12 5 27
12 34 9 9 8 15 -8 27 -29 22 -31 19 -26 -40 4 -45 0 -61 -22 -99 -14 -25 -31
-48 -36 -51 -5 -3 -15 15 -21 40 -6 25 -16 45 -21 45 -14 0 -69 -30 -106 -57
-31 -23 -35 -24 -51 -9 -10 9 -22 16 -27 16 -5 1 -19 9 -32 20 -21 17 -23 26
-20 101 l3 82 42 22 c23 11 46 24 50 29 13 12 -50 -6 -74 -22 -21 -13 -24 -12
-44 22 -20 34 -24 36 -67 35 -26 -1 -70 -5 -97 -10z m55 -17 c0 -5 -17 -15
-39 -22 -51 -16 -94 -52 -90 -73 4 -15 8 -15 47 3 23 11 64 37 90 60 27 22 56
40 65 40 24 0 33 -47 13 -69 -21 -23 -20 -28 6 -27 27 1 33 -19 23 -81 -6 -44
-7 -45 -41 -41 -41 5 -43 -4 -8 -29 l26 -19 -27 -32 c-15 -18 -33 -32 -41 -32
-8 0 -14 -9 -14 -20 0 -11 5 -20 10 -20 6 0 10 -13 10 -28 0 -20 -9 -35 -31
-51 -17 -13 -32 -21 -34 -19 -2 2 2 23 11 46 11 32 12 48 3 63 -6 12 -9 30 -6
40 3 11 -1 31 -8 45 -21 41 -10 61 32 56 48 -6 35 14 -20 30 -23 6 -53 19 -67
29 -14 9 -36 20 -50 24 -47 14 -55 64 -15 91 52 34 155 58 155 36z m-113 -182
c45 0 73 -83 48 -143 -10 -24 -15 -60 -13 -99 2 -48 0 -62 -14 -71 -14 -9 -22
-7 -39 10 -24 24 -26 49 -11 138 11 67 7 80 -14 50 -14 -18 -15 -14 -13 50 3
78 6 92 22 76 6 -6 21 -11 34 -11z m280 -106 c3 -8 2 -39 -2 -70 -5 -40 -14
-64 -34 -86 l-26 -30 -33 50 c-17 27 -32 58 -32 68 0 10 16 35 36 55 27 28 41
35 60 31 14 -2 28 -11 31 -18z"/>
<path d="M9822 9651 c-48 -6 -59 -12 -102 -58 -45 -48 -48 -53 -43 -96 4 -34
14 -53 38 -77 31 -30 62 -34 52 -6 -3 6 -2 31 2 56 4 25 4 56 1 70 -5 20 -8
14 -14 -30 -11 -71 -18 -86 -35 -66 -20 24 -10 108 14 121 11 5 30 20 42 31
11 12 36 25 54 29 48 11 69 -19 69 -96 0 -62 -21 -129 -40 -129 -6 0 -8 -4 -5
-10 8 -13 -11 -48 -48 -87 -17 -18 -26 -33 -21 -33 26 0 108 120 118 170 19
105 19 118 -3 156 -12 20 -20 43 -17 50 3 8 2 13 -2 13 -4 -1 -31 -5 -60 -8z"/>
<path d="M5396 9549 c6 -8 9 -30 7 -49 -4 -32 -9 -37 -46 -48 -52 -16 -117
-60 -117 -78 0 -22 16 -16 35 12 30 46 145 85 145 49 0 -14 -27 -72 -48 -102
-4 -7 -32 -17 -62 -23 -29 -6 -62 -18 -72 -27 -15 -13 -23 -14 -44 -5 -31 15
-54 15 -54 2 0 -5 9 -10 21 -10 12 0 23 -8 26 -20 7 -26 56 -50 102 -50 56 0
107 -18 138 -49 94 -94 121 -153 130 -288 4 -60 1 -94 -11 -129 -16 -47 -13
-72 4 -44 30 48 38 199 15 265 -23 63 -18 70 21 35 21 -18 55 -40 78 -50 64
-28 82 -51 96 -123 10 -54 7 -127 -5 -127 -1 0 -19 7 -38 15 -42 18 -47 18
-47 6 0 -5 13 -12 29 -16 49 -11 56 -28 32 -78 -23 -48 -25 -57 -12 -57 8 0
36 67 43 102 2 15 11 11 50 -20 70 -55 116 -114 130 -166 10 -39 10 -56 -4
-109 -13 -49 -14 -58 -3 -43 26 34 38 116 25 165 -12 46 -82 129 -145 172 -32
22 -33 26 -32 83 1 34 -2 78 -6 99 -4 20 -4 37 1 37 18 0 123 -104 180 -180
56 -73 62 -87 62 -128 0 -26 -4 -64 -9 -85 -7 -28 -6 -37 2 -34 7 2 16 27 21
55 8 49 26 72 26 34 0 -10 4 -22 8 -27 23 -26 34 -97 29 -177 -3 -45 -9 -94
-13 -108 -5 -19 -4 -22 5 -14 6 6 15 34 20 63 10 64 18 73 26 28 5 -25 1 -46
-15 -77 l-21 -42 20 7 c25 8 27 -8 6 -45 -8 -14 -14 -44 -15 -67 0 -52 -73
-223 -126 -294 -39 -54 -121 -129 -163 -150 -45 -22 -121 -72 -117 -76 6 -6
63 24 71 37 4 6 22 17 41 25 51 21 150 111 199 180 48 68 110 217 119 287 4
26 18 80 31 120 13 39 21 76 18 81 -9 14 7 57 21 57 27 0 28 -120 1 -240 -4
-18 -1 -16 12 10 15 28 18 62 18 178 1 102 -3 142 -11 142 -8 0 -12 20 -11 60
0 76 20 75 27 -1 6 -51 6 -52 15 -24 6 17 10 71 10 120 0 79 -4 97 -29 149
-16 33 -43 75 -61 95 -17 20 -57 71 -88 113 -59 79 -100 118 -123 118 -8 0
-31 16 -52 34 -21 19 -61 46 -88 60 -27 14 -60 34 -73 46 l-24 20 23 25 c13
14 19 25 13 25 -16 0 -53 -45 -54 -66 0 -18 -1 -18 -9 1 -11 29 -36 47 -57 42
-16 -4 -15 -6 5 -12 23 -8 30 -29 12 -40 -5 -3 9 -22 31 -42 44 -40 69 -81 69
-113 0 -20 -4 -21 -42 -15 -56 10 -167 74 -168 98 0 9 5 17 12 17 6 0 8 3 5 6
-4 4 -18 -1 -31 -10 -24 -15 -28 -15 -63 5 -21 11 -51 33 -68 48 -49 45 -94
73 -106 65 -8 -4 -2 -12 15 -21 41 -21 33 -36 -16 -28 -24 4 -47 10 -51 14
-14 14 45 71 74 71 42 0 89 20 89 38 0 10 9 28 20 42 23 30 26 73 5 90 -10 8
-14 26 -13 49 2 28 -1 36 -17 39 -15 3 -17 1 -9 -9z m401 -395 c17 -13 34 -37
38 -54 4 -16 11 -32 16 -35 13 -9 11 -75 -2 -75 -6 0 5 -18 24 -40 48 -52 79
-103 105 -173 35 -94 28 -108 -21 -40 -50 67 -118 129 -162 148 -31 14 -60 47
-88 102 -21 40 -8 50 35 29 17 -9 41 -16 52 -16 19 1 19 2 5 13 -9 7 -18 29
-22 50 -3 22 -18 54 -32 72 -14 19 -25 39 -25 45 0 16 38 3 77 -26z m78 -44
c3 -11 15 -25 27 -31 13 -7 18 -17 15 -30 -4 -14 0 -19 14 -19 13 0 19 -7 19
-21 0 -30 21 -109 29 -109 10 0 -11 124 -22 131 -5 4 -6 12 -2 19 5 8 12 7 26
-6 10 -9 19 -21 19 -26 0 -5 16 -26 35 -46 19 -20 35 -47 35 -59 0 -14 6 -23
16 -23 11 0 14 -5 10 -16 -3 -9 -6 -27 -6 -40 0 -21 -5 -24 -35 -24 -26 0 -35
-4 -35 -17 0 -12 3 -14 11 -6 6 6 20 8 31 5 18 -4 20 -11 14 -56 -3 -31 -2
-43 3 -31 19 45 31 93 31 123 0 18 5 32 10 32 6 0 10 -21 10 -47 1 -65 22
-141 38 -135 8 2 12 -7 12 -27 0 -16 5 -33 10 -36 12 -7 14 -155 2 -155 -4 0
-31 21 -59 48 -56 52 -98 125 -109 187 -10 58 -68 181 -116 242 -34 45 -39 57
-31 76 10 21 9 28 -15 74 -7 13 -12 27 -12 33 0 18 18 11 25 -10z"/>
<path d="M5495 9511 c7 -24 -4 -51 -22 -51 -9 0 -13 -7 -10 -17 3 -10 8 -40
12 -67 4 -27 15 -65 26 -85 10 -20 19 -41 19 -47 0 -15 51 -49 69 -45 9 2 12
-3 7 -14 -5 -13 -2 -15 17 -9 12 3 23 7 24 8 1 1 -8 22 -20 47 -16 34 -32 50
-60 63 -44 19 -67 63 -67 123 1 34 2 36 14 21 18 -24 22 -17 18 36 -3 27 -10
47 -19 50 -10 4 -13 1 -8 -13z"/>
<path d="M4860 9303 c-28 -25 -52 -37 -76 -38 -19 -1 -34 -5 -34 -9 0 -3 0
-11 0 -17 0 -6 7 -9 15 -6 19 8 24 -3 14 -30 -5 -14 -17 -23 -30 -23 -18 0
-20 4 -15 28 6 26 5 26 -26 -11 -18 -20 -42 -37 -53 -37 -17 -1 -18 -2 -4 -10
11 -6 15 -19 12 -37 -9 -52 -10 -55 -33 -41 -14 9 -23 10 -28 3 -4 -6 -18 -20
-32 -30 -40 -31 -177 -179 -155 -167 11 6 45 36 75 66 30 31 60 56 67 56 7 0
13 6 13 13 0 8 9 22 20 32 30 27 37 -4 11 -46 -25 -41 -27 -72 -5 -93 14 -15
13 -16 -10 -16 -14 0 -26 5 -26 10 0 16 -27 11 -34 -6 -9 -23 -8 -24 14 -24
11 0 20 -2 20 -5 0 -10 -72 -135 -78 -135 -4 0 -13 14 -20 30 -13 28 -12 33
19 72 38 48 15 39 -26 -10 -15 -17 -30 -30 -33 -28 -4 2 -16 0 -27 -5 -16 -6
-17 -8 -3 -8 22 -1 78 -49 78 -67 0 -8 -24 -61 -54 -118 -33 -63 -55 -118 -57
-142 -1 -21 -7 -44 -12 -51 -5 -7 -6 -16 -4 -21 3 -4 2 -14 -3 -22 -12 -19
-24 109 -15 165 3 25 24 84 46 131 47 104 49 118 6 43 -18 -31 -37 -62 -43
-70 -18 -23 -37 -154 -31 -213 3 -31 2 -56 -2 -56 -14 0 -33 28 -27 38 3 6 -1
15 -9 22 -26 21 -20 107 10 146 16 21 20 32 11 28 -25 -10 -56 -69 -56 -108 0
-20 -4 -36 -8 -36 -13 0 -42 56 -42 82 0 34 36 96 83 147 23 24 35 41 27 39
-24 -7 -110 -119 -122 -160 -15 -52 -1 -82 85 -170 l72 -73 1 -100 c0 -96 2
-105 48 -214 26 -63 57 -131 68 -150 44 -72 162 -202 234 -257 55 -42 304
-119 304 -93 0 5 -9 9 -20 9 -23 0 -186 52 -221 70 -38 21 -129 104 -197 183
-84 95 -163 252 -192 382 -10 43 2 215 17 255 3 8 8 33 10 54 5 43 77 196 93
196 13 0 13 2 -5 -67 -15 -58 -12 -118 6 -107 5 3 9 27 9 54 0 76 26 190 56
248 15 28 31 52 35 52 5 0 9 9 9 21 0 11 5 17 10 14 6 -3 10 -2 10 3 0 4 15
26 33 48 19 21 32 45 30 52 -3 7 4 12 15 12 11 0 22 6 25 13 2 6 8 9 12 5 3
-3 -5 -40 -19 -80 -43 -127 -73 -348 -46 -348 10 0 14 25 10 67 -6 85 67 362
105 395 11 10 29 16 41 13 14 -3 24 1 28 10 3 8 1 15 -4 15 -21 0 -9 27 28 63
43 42 98 65 114 49 8 -8 6 -13 -8 -18 -27 -10 -116 -75 -110 -81 3 -3 24 9 48
26 23 17 46 31 50 31 18 0 6 -61 -26 -126 -49 -101 -66 -157 -66 -224 0 -91
17 -72 21 23 4 79 7 90 61 195 35 69 52 112 45 115 -9 3 -8 11 2 33 l13 29 10
-25 9 -25 20 27 c12 16 26 25 34 21 20 -7 19 -37 -1 -54 -45 -37 -90 -196 -78
-278 7 -50 36 -106 59 -115 8 -3 15 -1 15 4 0 6 -4 10 -8 10 -15 0 -41 57 -48
107 -11 83 18 189 74 273 l47 69 27 -26 c43 -41 63 -113 62 -222 0 -65 2 -85
8 -65 16 58 10 167 -12 227 -12 31 -26 57 -31 57 -5 0 -9 14 -9 31 0 30 -1 31
-36 24 -20 -3 -44 -11 -54 -17 -10 -6 -25 -8 -34 -5 -14 6 -15 11 -5 28 12 23
2 21 -31 -6 -18 -15 -67 -25 -135 -29 -27 -1 -58 -6 -67 -10 -15 -7 -18 -3
-18 21 0 32 21 56 58 67 12 4 22 11 22 16 0 5 10 18 22 30 12 11 16 20 10 20
-7 0 -30 -16 -52 -37z m4 -132 c5 -8 -111 -131 -124 -131 -21 0 -73 -36 -100
-68 -16 -20 -33 -33 -36 -29 -11 11 26 89 55 116 18 17 24 32 23 56 -3 36 10
50 35 41 12 -5 13 -9 3 -21 -9 -11 -9 -15 -1 -15 6 0 14 7 17 15 3 8 21 17 40
21 19 3 37 10 40 15 7 12 41 12 48 0z"/>
<path d="M12830 9063 c-68 -11 -192 -60 -252 -100 -80 -52 -102 -78 -156 -175
-65 -118 -83 -186 -87 -318 -2 -63 -1 -97 1 -75 15 134 36 221 69 297 20 46
42 97 50 114 53 121 261 236 431 238 64 1 75 -2 93 -22 18 -22 41 -23 41 -3 0
25 -129 54 -190 44z"/>
<path d="M2898 9015 c-56 -37 -63 -56 -63 -180 0 -98 4 -122 35 -220 31 -96
41 -116 82 -157 26 -27 54 -48 63 -48 22 0 19 21 -5 27 -11 3 -20 9 -20 14 0
5 7 6 15 3 20 -8 19 5 -2 29 -17 19 -17 19 5 13 26 -9 31 14 7 34 -16 14 -21
50 -6 50 5 0 11 -10 13 -22 3 -20 8 -22 37 -20 21 2 31 0 27 -7 -4 -5 -13 -8
-21 -4 -10 3 -15 -1 -15 -15 0 -11 7 -22 15 -26 22 -8 18 -26 -5 -26 -23 0
-25 -17 -5 -44 9 -12 20 -16 31 -12 13 5 15 9 6 18 -15 15 -16 32 -2 23 6 -3
10 -1 10 6 0 9 4 9 15 -1 17 -14 35 -5 35 17 0 10 6 14 20 10 14 -3 27 3 41
21 18 24 20 38 17 117 -2 54 -10 104 -19 125 -9 19 -25 62 -35 95 -24 74 -65
130 -128 173 -58 38 -97 40 -148 7z"/>
<path d="M9865 8989 c-10 -28 -22 -214 -14 -223 5 -6 9 -20 9 -33 0 -31 31
-93 46 -93 19 0 44 41 44 71 0 60 62 37 85 -31 17 -52 14 -82 -16 -142 -27
-53 -63 -78 -116 -78 -101 0 -181 90 -166 185 4 24 19 47 50 76 25 22 42 43
40 46 -9 9 -43 -15 -80 -57 -32 -35 -37 -46 -37 -91 0 -41 6 -59 32 -95 44
-62 103 -89 176 -80 67 8 90 26 136 109 32 56 33 60 20 98 -20 58 -55 107 -86
121 -23 10 -30 23 -39 68 -19 97 -70 186 -84 149z"/>
<path d="M10260 8968 c-6 -18 -14 -71 -17 -118 -4 -66 -12 -98 -34 -144 -35
-71 -35 -83 -7 -142 40 -85 140 -124 222 -86 83 39 117 105 96 184 -13 47 -78
118 -108 118 -26 0 -42 20 -42 53 0 41 -28 121 -51 146 -28 30 -45 26 -59 -11z
m170 -218 c72 -51 93 -151 44 -210 -46 -54 -119 -74 -173 -45 -73 37 -106 121
-76 191 l17 39 16 -35 c9 -19 28 -40 41 -46 21 -11 27 -10 41 9 9 12 20 40 24
62 12 64 20 68 66 35z"/>
<path d="M14206 8453 c44 -85 69 -146 100 -243 17 -54 19 -176 3 -186 -15 -9
-6 -84 22 -189 17 -65 20 -100 17 -193 -3 -76 -1 -109 6 -102 15 15 25 128 25
285 0 165 -31 361 -73 449 -14 30 -26 61 -27 68 -1 22 -93 191 -106 195 -7 3
8 -35 33 -84z"/>
<path d="M4815 8491 c-101 -17 -208 -120 -230 -218 -8 -38 -8 -38 -65 -18 -64
23 -78 20 -50 -10 13 -14 33 -25 45 -25 30 0 45 -20 97 -130 55 -118 98 -159
195 -191 54 -17 78 -20 109 -13 l39 8 -40 3 c-134 10 -219 67 -275 189 -40 85
-49 158 -26 219 20 50 87 125 136 150 45 23 131 31 161 14 13 -7 30 -12 37
-10 23 4 116 -84 145 -138 23 -42 28 -63 29 -128 1 -68 -3 -84 -26 -125 -15
-27 -52 -74 -82 -105 -29 -31 -52 -58 -50 -60 10 -11 116 103 140 151 16 31
30 56 32 56 2 0 12 -17 23 -39 29 -55 69 -100 120 -133 39 -24 55 -28 118 -28
86 0 125 14 181 65 42 37 102 159 102 207 1 29 22 58 43 58 9 0 19 5 22 10 3
6 17 10 31 10 13 0 24 5 24 10 0 19 -29 22 -52 6 -41 -29 -61 -20 -91 39 -63
119 -159 175 -301 175 -115 0 -162 -33 -207 -145 l-16 -39 -16 30 c-22 43
-120 132 -153 139 -16 4 -39 11 -52 16 -25 10 -37 10 -97 0z m668 -37 c62 -21
142 -109 162 -178 22 -72 19 -109 -16 -191 -51 -122 -123 -166 -262 -157 -45
3 -53 8 -115 70 -81 80 -102 131 -102 241 0 80 26 150 78 204 24 26 30 27 117
27 57 0 109 -6 138 -16z"/>
<path d="M5287 8383 c-4 -3 -7 -13 -7 -22 0 -9 -7 -29 -16 -46 -19 -36 -29
-129 -20 -178 4 -20 20 -50 36 -67 25 -27 33 -30 45 -20 11 9 12 17 4 31 -7
14 -6 19 4 19 28 0 37 27 38 116 2 96 -13 144 -50 164 -23 12 -26 12 -34 3z"/>
<path d="M3132 8423 c6 -11 110 -227 168 -348 55 -114 177 -302 274 -420 36
-44 104 -132 150 -195 91 -124 158 -193 306 -315 52 -43 183 -167 290 -276
107 -108 215 -211 240 -228 25 -17 63 -45 84 -61 38 -29 55 -33 41 -10 -4 6
-41 35 -84 65 -43 30 -131 109 -197 177 -169 174 -237 239 -334 321 -141 117
-247 226 -335 342 -46 61 -127 166 -180 234 -152 197 -187 259 -366 639 -21
45 -43 82 -50 82 -6 0 -9 -3 -7 -7z"/>
<path d="M4897 8353 c-20 -31 -27 -55 -32 -123 -7 -94 3 -141 37 -177 34 -36
54 -30 72 25 12 36 13 60 6 102 -14 92 -28 134 -48 151 -18 14 -18 16 -3 26
12 8 13 14 5 22 -8 9 -18 2 -37 -26z"/>
<path d="M7112 8242 c-23 -21 -51 -61 -63 -88 -14 -31 -48 -75 -93 -119 -84
-83 -115 -137 -151 -265 -15 -52 -38 -111 -50 -130 -13 -19 -36 -61 -50 -93
-26 -56 -27 -63 -21 -185 8 -181 54 -339 119 -409 35 -39 40 -25 8 20 -17 23
-44 79 -61 125 -51 139 -38 147 36 22 26 -44 48 -80 50 -80 14 0 -3 38 -48
111 -50 82 -78 163 -77 224 0 17 15 61 33 98 18 37 29 70 24 73 -7 5 -21 -21
-41 -78 -4 -10 -12 -18 -18 -18 -17 0 -2 67 30 130 36 70 51 75 51 17 0 -35 6
-51 34 -83 19 -21 37 -36 41 -32 4 4 -2 17 -14 29 -23 25 -25 30 -41 111 -8
42 -8 62 0 78 6 12 13 42 15 68 8 100 128 282 199 300 27 7 31 13 31 43 0 41
34 98 83 139 20 16 32 30 26 30 -6 0 -29 -17 -52 -38z"/>
<path d="M8211 8191 c67 -45 101 -85 104 -123 2 -25 10 -37 36 -51 50 -28 77
-55 120 -121 51 -77 49 -93 -4 -34 -25 27 -63 56 -92 69 -85 37 -134 100 -87
112 9 3 4 5 -13 6 -18 1 -35 9 -43 21 -16 27 -91 80 -111 80 -12 -1 -11 -3 4
-12 40 -22 115 -102 115 -124 0 -13 14 -31 38 -47 48 -34 74 -69 89 -121 l13
-41 -4 53 c-2 29 0 55 4 57 15 9 113 -110 141 -170 45 -96 71 -214 67 -300 -3
-74 4 -97 16 -52 3 12 6 42 7 67 1 42 2 41 11 -20 6 -46 6 -71 -3 -87 -14 -27
-6 -291 18 -531 13 -138 13 -185 3 -300 -6 -75 -14 -172 -17 -215 -3 -42 -9
-79 -13 -82 -4 -2 -15 4 -25 15 -14 15 -20 45 -25 108 -4 48 -12 100 -19 116
-10 24 -8 35 15 80 26 52 26 53 9 90 -13 27 -16 49 -11 84 4 26 11 85 16 132
5 47 12 100 16 119 5 24 4 32 -4 27 -6 -3 -16 -31 -22 -61 -12 -58 -23 -67
-40 -35 -8 15 -3 32 26 85 31 56 37 77 37 128 2 140 -55 394 -114 509 -24 47
-152 189 -217 241 -26 20 -77 58 -114 84 -38 25 -68 48 -68 51 0 3 8 10 17 17
15 11 10 12 -30 8 -41 -5 -52 -2 -72 17 -32 30 -31 45 0 66 14 9 23 19 21 21
-3 3 -19 -5 -35 -16 l-31 -22 -64 30 c-35 17 -77 31 -92 30 -26 0 -25 -1 11
-13 49 -15 102 -42 110 -56 3 -6 -3 -22 -14 -36 -22 -28 -28 -54 -12 -54 5 0
14 14 21 30 18 43 25 44 60 14 l30 -27 -20 -22 c-11 -12 -20 -28 -20 -36 0
-10 5 -8 18 6 40 49 45 49 116 5 37 -22 69 -40 72 -40 7 0 40 -38 54 -62 9
-14 6 -16 -18 -8 -15 4 -39 13 -53 18 -15 6 -62 12 -105 13 -68 2 -79 0 -82
-15 -3 -15 -1 -16 19 -6 30 17 128 8 204 -18 37 -13 62 -17 66 -11 6 11 45
-40 41 -54 -1 -4 8 -11 21 -16 26 -10 73 -62 90 -98 6 -13 16 -23 22 -23 7 0
18 -15 25 -32 6 -18 22 -57 36 -86 15 -33 24 -71 24 -102 0 -38 3 -48 14 -44
14 6 16 -1 35 -141 12 -81 14 -176 5 -199 -5 -13 -9 -14 -20 -5 -10 9 -15 8
-18 -2 -2 -8 -12 -37 -20 -64 -15 -46 -22 -54 -71 -80 -44 -24 -58 -38 -71
-70 -10 -28 -29 -50 -62 -72 -62 -42 -233 -123 -261 -123 -24 0 -25 -2 -11
-44 5 -17 16 -60 26 -95 9 -36 18 -71 21 -78 3 -8 2 -13 -3 -11 -5 1 -22 -5
-39 -14 -127 -68 -374 -86 -497 -37 -24 10 -28 17 -27 53 0 22 4 64 8 91 5 28
5 52 1 55 -4 3 -12 15 -19 28 -6 12 -15 22 -19 22 -10 0 -9 -144 1 -151 8 -6
-13 -172 -35 -274 -15 -74 -29 -80 -97 -43 -31 17 -88 53 -127 79 -39 26 -104
61 -145 79 -41 17 -93 42 -116 56 -23 13 -46 24 -52 24 -6 0 -39 13 -73 29
-35 16 -87 39 -117 51 -30 12 -66 29 -80 39 -14 10 -66 35 -116 55 -49 21
-120 54 -156 72 -36 19 -68 34 -72 34 -4 0 -45 18 -91 40 -46 21 -108 47 -138
56 -87 27 -157 53 -198 74 -54 28 -174 106 -187 122 -6 7 -21 48 -32 91 -12
42 -28 92 -36 110 -8 19 -24 89 -35 158 -32 181 -31 179 -41 179 -9 0 -6 -111
4 -127 3 -4 10 -35 17 -68 21 -107 42 -189 56 -222 8 -18 26 -85 40 -150 13
-65 36 -165 50 -223 15 -58 30 -150 35 -205 5 -55 15 -133 24 -175 8 -41 19
-118 25 -170 6 -52 16 -113 21 -135 11 -38 31 -172 64 -416 8 -59 19 -126 24
-150 19 -85 32 -436 21 -563 -26 -300 -67 -468 -158 -654 -43 -86 -50 -95
-110 -134 -89 -58 -231 -97 -382 -104 -128 -6 -196 4 -375 54 -60 17 -174 47
-252 66 -120 29 -153 42 -210 78 -142 93 -154 120 -156 360 -1 209 35 451 109
728 14 52 50 192 80 310 30 118 64 247 76 285 11 39 33 117 48 175 66 252 100
378 113 415 15 42 54 184 82 300 10 39 35 125 56 193 22 68 39 130 39 138 0 9
7 14 16 12 14 -2 23 -13 41 -47 1 -1 8 1 15 5 7 5 19 9 26 10 25 4 26 15 4 21
-20 5 -22 10 -16 37 8 37 59 214 68 236 4 10 -2 19 -16 25 -18 8 -23 18 -22
43 1 17 -1 32 -5 32 -11 0 -60 -112 -67 -155 -3 -22 -14 -60 -24 -85 -19 -49
-31 -91 -54 -190 -9 -36 -24 -90 -35 -120 -10 -30 -29 -93 -40 -140 -48 -192
-64 -248 -86 -315 -12 -38 -32 -106 -44 -150 -12 -44 -49 -179 -82 -300 -70
-252 -145 -539 -159 -605 -5 -25 -19 -76 -30 -115 -24 -79 -61 -247 -92 -410
-27 -142 -35 -478 -14 -570 8 -33 22 -95 31 -138 21 -93 70 -174 170 -277 64
-65 72 -70 109 -69 l41 1 -43 15 c-33 11 -60 35 -117 101 -89 103 -131 179
-141 252 l-7 55 24 -21 c71 -63 166 -105 330 -145 90 -22 207 -53 259 -69 132
-40 242 -54 365 -46 105 7 262 43 329 76 84 41 56 -11 -79 -145 -97 -98 -116
-112 -138 -108 -33 6 -47 -20 -24 -45 22 -24 54 -159 66 -283 12 -113 31 -211
55 -294 20 -67 63 -285 71 -360 3 -33 12 -91 20 -130 8 -38 21 -119 29 -180 8
-60 21 -130 29 -155 15 -45 34 -135 57 -280 17 -103 34 -183 55 -260 l18 -65
-36 -54 c-21 -30 -37 -65 -37 -81 0 -23 7 -31 40 -44 22 -9 46 -16 53 -16 7 0
18 -9 25 -21 13 -20 14 -20 28 -2 14 17 15 17 9 -4 -5 -18 -1 -23 17 -27 86
-19 233 -24 319 -13 41 6 65 16 90 38 l34 30 -33 -16 c-19 -9 -36 -15 -38 -12
-2 2 8 10 24 18 15 7 47 27 72 44 25 16 48 29 51 28 3 -1 16 17 27 41 25 50
30 147 9 164 -15 13 -158 67 -232 88 -70 20 -145 18 -200 -6 -26 -11 -57 -20
-70 -20 -16 0 -30 -11 -43 -32 -31 -50 -80 -94 -86 -77 -31 92 -56 188 -65
244 -25 172 -41 264 -56 315 -29 104 -61 281 -91 505 -14 110 -35 219 -59 308
-39 147 -46 176 -54 232 -6 33 -13 92 -16 130 -5 63 -34 205 -50 246 -4 12 4
22 27 36 172 102 384 432 448 698 30 127 58 328 66 475 7 137 -8 407 -31 540
-31 184 -55 357 -55 387 0 18 -9 70 -19 115 -11 46 -25 128 -31 183 -6 55 -18
127 -25 160 -7 33 -16 100 -20 150 -4 49 -15 121 -26 160 -27 104 -51 225 -47
241 2 11 16 5 55 -21 66 -44 197 -105 293 -135 41 -13 105 -39 143 -57 37 -18
70 -33 72 -33 3 0 43 -18 89 -40 46 -21 111 -50 144 -64 33 -14 100 -45 149
-69 48 -25 119 -57 157 -72 169 -66 436 -206 556 -292 14 -10 32 -18 40 -18
34 0 23 -74 -44 -310 -14 -49 -38 -134 -52 -188 -31 -117 -95 -240 -229 -442
-51 -77 -108 -169 -125 -205 -18 -36 -63 -119 -100 -185 -37 -66 -81 -154 -99
-195 -50 -119 -65 -145 -86 -148 -28 -5 -73 -50 -96 -93 -51 -101 -74 -279
-48 -374 13 -45 73 -111 110 -120 40 -10 92 19 116 64 16 31 18 38 6 34 -11
-4 -14 -1 -11 13 2 10 10 18 19 17 8 -2 21 13 32 37 21 49 21 54 1 46 -10 -4
-14 -2 -11 6 2 7 9 12 16 11 15 -4 22 31 24 118 2 80 -1 88 -67 185 l-40 58
24 65 c12 36 43 104 67 151 25 47 79 150 121 229 41 80 117 206 168 282 51 75
104 160 119 189 14 28 28 50 31 47 3 -2 -9 -62 -25 -133 -60 -258 -92 -421
-102 -509 -32 -300 -38 -368 -38 -445 -1 -137 22 -277 54 -340 32 -63 147
-187 215 -230 46 -30 90 -39 90 -20 0 6 -7 10 -16 10 -25 0 -72 36 -161 124
-46 44 -83 89 -83 99 0 14 4 16 19 7 34 -18 90 -11 169 21 42 17 93 31 113 31
39 0 117 -38 159 -77 82 -78 190 -71 310 19 106 80 119 82 214 31 92 -49 154
-49 228 -1 59 38 93 72 132 132 15 23 38 46 53 53 26 12 109 6 118 -8 10 -17
-28 -153 -64 -228 -51 -107 -109 -182 -196 -255 -77 -66 -134 -98 -210 -118
-27 -8 -61 -20 -75 -27 -46 -24 -229 -13 -365 22 -27 7 -77 18 -110 23 -123
21 -137 26 -215 71 -25 14 -90 41 -90 37 0 -2 23 -18 50 -35 28 -17 53 -37 56
-45 3 -7 -11 -85 -29 -172 -34 -154 -43 -215 -67 -429 -18 -154 -56 -385 -90
-540 -44 -201 -48 -223 -52 -290 -2 -48 0 -60 12 -60 12 0 15 15 16 75 1 64
45 302 84 450 5 19 25 163 44 320 29 230 97 611 112 629 2 2 44 -6 93 -18 49
-11 102 -21 116 -21 14 0 35 -4 45 -10 24 -13 133 -30 245 -38 72 -6 99 -4
139 10 55 20 66 17 66 -18 0 -13 4 -24 9 -24 17 0 95 -218 140 -390 28 -108
64 -313 90 -514 7 -49 25 -130 40 -180 41 -133 81 -305 81 -348 0 -21 -7 -55
-16 -77 -16 -40 -16 -40 16 -80 19 -23 38 -37 46 -34 8 3 14 -1 14 -11 0 -9 7
-16 15 -16 22 0 30 4 28 12 -2 5 3 8 11 8 7 0 16 -9 19 -20 4 -17 11 -19 39
-13 58 11 80 22 74 38 -3 10 1 15 12 15 16 0 134 74 183 115 68 57 131 193
110 234 -26 47 -47 54 -170 58 l-118 4 -99 -82 c-77 -63 -101 -90 -109 -118
-6 -20 -13 -31 -17 -26 -3 6 -22 74 -42 152 -20 78 -47 182 -62 230 -14 48
-32 140 -40 203 -35 278 -82 481 -164 710 -51 140 -60 197 -34 206 60 19 145
77 228 153 120 112 214 306 231 476 6 64 -13 210 -38 285 -8 25 -24 83 -36
130 -11 47 -34 132 -51 188 -17 57 -29 106 -26 110 3 3 16 -8 28 -24 13 -16
51 -61 85 -101 35 -39 92 -116 128 -171 61 -94 65 -103 65 -158 1 -80 15 -136
56 -220 22 -45 44 -75 60 -82 13 -7 24 -19 24 -27 0 -12 6 -15 19 -10 11 3 22
1 26 -5 3 -5 -2 -10 -12 -11 -16 0 -16 -1 2 -9 31 -13 101 -12 112 3 6 6 18
46 28 88 16 72 16 79 0 134 -14 50 -28 70 -89 131 -79 80 -136 107 -180 86
-23 -10 -27 -6 -89 91 -37 56 -98 138 -138 182 -99 111 -151 192 -147 230 1
18 -2 29 -9 28 -12 -3 -24 25 -68 165 -31 95 -31 98 21 245 22 66 34 111 28
115 -6 4 -23 25 -39 47 -16 22 -63 76 -105 120 -42 44 -84 91 -92 105 -9 14
-30 81 -47 149 -18 68 -45 163 -61 210 -15 47 -33 111 -40 141 -6 30 -22 89
-35 130 -13 41 -27 94 -30 117 -6 41 -5 43 27 57 107 46 193 88 219 107 17 12
32 19 34 17 3 -2 -14 -40 -36 -84 -34 -67 -42 -93 -49 -169 -9 -100 0 -164 30
-210 24 -36 25 -30 5 18 -19 46 -20 203 -1 272 16 61 53 135 67 135 21 0 21
-33 0 -70 -25 -44 -27 -88 -6 -116 10 -13 14 -47 15 -115 0 -153 45 -270 103
-269 20 1 20 2 -5 16 -26 14 -58 69 -58 100 0 8 8 14 19 14 32 0 91 29 91 45
0 28 17 15 35 -26 18 -38 57 -79 76 -79 5 0 9 18 9 40 0 22 7 84 16 138 19
117 22 370 6 502 -15 124 -19 385 -8 477 10 79 -7 196 -47 323 -44 143 -144
299 -213 332 -34 17 -44 28 -49 54 -7 42 -47 89 -104 126 -59 37 -77 36 -20
-1z m-121 -1868 c6 -32 26 -105 45 -163 43 -134 76 -262 84 -323 3 -26 10 -47
15 -47 5 1 24 -54 43 -121 l33 -121 -35 -49 c-92 -125 -151 -289 -112 -311 10
-5 17 -15 17 -23 0 -7 12 -23 27 -35 20 -16 34 -19 57 -14 41 9 100 56 118 94
12 24 17 28 25 18 12 -14 63 -171 63 -192 0 -8 13 -56 29 -107 55 -176 111
-374 122 -433 6 -33 19 -80 29 -105 11 -28 19 -81 21 -136 l4 -90 -57 3 c-65
4 -121 -22 -134 -60 -9 -29 -91 -115 -136 -144 -54 -34 -114 -32 -182 6 -108
61 -149 57 -246 -25 -98 -83 -180 -97 -252 -42 -79 59 -146 98 -180 104 -26 4
-55 -4 -114 -28 -102 -44 -179 -47 -219 -9 -15 14 -31 33 -37 44 -19 35 -36
191 -32 296 6 158 42 469 70 605 14 66 29 147 35 180 6 33 26 123 46 200 19
77 45 183 58 235 13 52 41 158 63 235 55 194 122 477 122 519 0 19 4 37 8 40
4 2 32 -3 62 -13 86 -28 270 -21 386 14 49 15 97 33 108 41 11 8 24 14 28 14
3 0 12 -26 18 -57z"/>
<path d="M7097 8144 c-38 -20 -30 -26 16 -12 20 6 39 9 42 6 9 -8 -56 -98
-105 -148 -56 -56 -120 -152 -120 -179 0 -11 5 -32 12 -46 10 -21 8 -33 -12
-71 -19 -39 -22 -57 -18 -115 4 -56 2 -74 -12 -92 -10 -12 -32 -56 -50 -97
-40 -95 -37 -152 13 -249 19 -37 49 -105 66 -153 16 -48 37 -101 46 -117 8
-17 15 -48 15 -71 0 -24 9 -57 22 -79 l22 -38 -22 -28 c-34 -42 -38 -88 -13
-129 12 -19 30 -38 40 -41 15 -5 18 -15 17 -59 -1 -58 16 -89 55 -99 27 -7 99
57 99 87 0 48 -50 220 -74 255 -31 45 -31 42 -4 72 15 17 19 19 15 6 -4 -10 7
-51 24 -94 37 -93 69 -223 69 -281 0 -30 4 -41 11 -36 24 15 -7 186 -56 311
-28 69 -31 100 -11 126 13 16 16 15 54 -15 28 -23 39 -38 36 -51 -3 -10 -1
-23 4 -30 24 -30 46 -288 28 -337 -8 -22 -7 -23 7 -11 9 7 20 29 23 49 8 43
-13 241 -31 295 -15 43 -7 46 42 12 25 -17 37 -32 38 -52 2 -15 10 -70 18
-121 11 -64 13 -102 6 -119 -12 -31 -11 -36 2 -28 5 4 15 19 20 33 12 32 -6
183 -27 225 -18 34 -8 34 55 2 125 -63 292 -81 449 -49 77 16 133 43 62 30
-202 -37 -339 -29 -465 27 -157 70 -254 134 -302 201 -20 28 -47 62 -59 76
-30 34 -108 183 -128 245 -24 76 -47 226 -37 239 5 6 5 20 0 31 -4 11 -8 32
-8 47 -1 19 -5 26 -15 22 -14 -5 -26 52 -26 123 0 41 47 134 91 181 17 18 28
36 24 40 -4 4 -22 -10 -40 -30 -17 -21 -37 -38 -44 -38 -17 0 -13 72 7 101 39
57 88 111 118 130 20 12 37 34 44 54 6 19 26 47 45 63 l33 30 -30 6 c-42 8
-49 7 -81 -10z m-147 -743 c0 -126 33 -249 103 -389 l42 -83 -35 -29 c-19 -16
-38 -30 -42 -30 -19 0 -84 173 -94 251 -7 51 -12 57 -32 37 -17 -17 -43 52
-45 121 -2 46 5 70 36 136 36 75 39 79 53 61 8 -12 14 -43 14 -75z"/>
<path d="M7323 8043 c-7 -2 -13 -16 -13 -29 0 -13 -5 -24 -11 -24 -6 0 -9 -7
-6 -14 4 -10 1 -13 -8 -10 -9 4 -12 0 -9 -13 3 -11 -12 -41 -39 -78 -46 -63
-82 -150 -93 -225 -4 -25 -16 -67 -26 -95 -11 -27 -25 -72 -32 -100 -24 -93
-52 -55 -55 72 -1 77 44 212 95 284 33 44 36 67 6 37 -8 -8 -12 -8 -12 -1 0 6
7 13 15 17 8 3 15 9 14 13 -3 21 2 33 16 33 9 0 12 -6 8 -17 -6 -14 -2 -14 23
4 35 25 70 63 59 63 -5 0 -17 -7 -27 -17 -10 -9 -18 -11 -18 -5 0 6 21 29 48
51 26 23 42 41 36 41 -6 0 -19 -9 -29 -20 -10 -11 -40 -34 -66 -51 -27 -17
-49 -35 -49 -39 0 -5 -8 -11 -17 -15 -10 -3 -31 -17 -48 -31 -26 -22 -27 -25
-7 -19 29 8 28 -5 -7 -62 -16 -27 -41 -77 -55 -113 -15 -36 -36 -82 -47 -103
-21 -40 -17 -66 7 -46 8 6 16 10 18 8 7 -7 47 -164 48 -184 0 -11 -3 -48 -7
-82 -9 -73 7 -143 38 -170 13 -11 17 -12 11 -3 -26 35 -38 118 -27 178 27 135
64 272 75 272 4 0 14 -15 22 -32 19 -45 43 -75 52 -66 4 5 0 16 -9 25 -21 24
-37 69 -39 109 -1 27 9 44 57 96 32 34 97 92 145 128 110 83 179 118 285 146
31 7 40 13 25 13 -97 3 -335 -133 -447 -257 -23 -25 -46 -43 -50 -39 -28 29
113 269 188 320 23 16 38 31 35 34 -4 4 -12 1 -18 -5 -20 -20 -41 -15 -35 8 5
20 2 22 -20 13z"/>
<path d="M16355 7900 c-106 -10 -140 -29 -169 -92 -13 -29 -23 -54 -21 -56 2
-2 17 7 34 19 23 17 34 20 42 12 8 -8 16 -6 30 8 12 12 34 19 62 20 60 1 109
-1 130 -7 9 -3 17 -1 17 3 0 5 -29 15 -64 22 -50 10 -76 10 -121 1 -62 -13
-81 -7 -50 16 35 26 98 37 213 37 110 1 112 1 65 13 -52 14 -63 14 -168 4z"/>
<path d="M12964 7879 c-15 -17 -19 -34 -18 -85 3 -123 97 -254 134 -185 19 36
10 113 -23 201 -35 93 -56 109 -93 69z"/>
<path d="M13386 7881 c-25 -27 -29 -79 -12 -143 27 -104 89 -156 128 -108 10
12 18 34 18 49 0 49 -82 221 -105 221 -7 0 -20 -8 -29 -19z"/>
<path d="M16520 7749 c0 -6 -7 -8 -16 -5 -55 21 -252 -47 -351 -121 -43 -32
-67 -43 -94 -43 -51 0 -98 -35 -118 -90 -14 -38 -26 -50 -86 -87 -39 -23 -95
-54 -125 -68 -30 -14 -63 -33 -73 -43 -29 -26 -79 -117 -131 -237 -26 -60 -53
-116 -61 -125 -9 -10 -17 -50 -21 -106 -4 -49 -13 -104 -22 -123 -12 -26 -13
-37 -4 -51 6 -11 16 -45 21 -77 21 -127 46 -197 88 -255 24 -31 47 -59 53 -63
20 -12 9 15 -18 47 -57 66 -117 243 -92 273 9 11 8 20 -7 42 -19 28 -20 73 -2
73 5 0 9 -4 9 -10 0 -5 7 -10 15 -10 20 0 19 5 -6 57 -14 29 -19 53 -15 71 4
15 11 46 16 68 11 51 75 172 86 161 2 -1 -3 -40 -11 -86 -14 -78 -11 -161 5
-161 4 0 10 46 12 103 6 112 30 191 74 241 31 35 42 27 21 -16 -8 -18 -21 -62
-27 -98 -13 -69 -5 -174 11 -164 6 3 8 12 5 20 -3 7 1 17 8 21 8 5 15 37 19
83 11 142 64 244 150 285 28 14 51 24 53 22 8 -9 -19 -125 -41 -178 -33 -78
-41 -109 -27 -109 5 0 24 38 43 85 18 47 34 83 36 81 2 -2 5 -30 7 -62 9 -142
11 -139 16 26 l5 175 58 19 c32 10 61 16 64 12 4 -4 -14 -49 -40 -102 -46 -92
-57 -134 -37 -134 6 0 10 6 10 14 0 7 18 51 41 96 32 64 44 80 57 75 10 -4 24
-9 32 -12 8 -2 30 -27 49 -56 45 -68 52 -131 22 -183 -12 -20 -19 -39 -17 -42
9 -9 45 41 55 77 6 18 18 39 28 46 10 7 15 17 11 21 -4 4 -14 2 -21 -5 -12 -9
-17 -3 -31 31 -18 49 -100 148 -122 148 -18 0 -18 14 0 29 16 13 122 6 166
-12 l25 -10 -32 -8 c-30 -9 -31 -11 -22 -42 5 -17 9 -49 9 -69 0 -20 5 -40 11
-44 9 -5 10 9 5 54 -8 69 -2 76 49 66 33 -6 36 -10 56 -76 23 -74 29 -169 16
-228 -7 -32 -7 -34 7 -16 20 24 30 96 22 149 -18 109 -18 127 -6 142 19 23
-10 49 -101 91 -57 26 -82 32 -110 28 -20 -4 -39 -2 -42 3 -10 15 -161 -13
-234 -44 -7 -2 -13 2 -13 10 0 11 -8 8 -28 -11 -16 -15 -57 -43 -92 -62 -35
-19 -95 -64 -132 -99 -37 -35 -68 -58 -68 -51 0 20 77 144 107 171 42 40 70
52 77 34 4 -11 11 -8 34 13 16 15 50 42 76 61 l46 34 43 -16 c45 -17 112 -12
155 12 19 10 22 9 22 -9 0 -23 10 -26 28 -8 10 10 17 10 31 1 15 -10 20 -9 25
2 6 18 73 20 125 5 45 -13 51 -6 12 14 -17 9 -55 16 -87 16 -46 0 -55 3 -50
15 3 8 9 22 12 30 8 19 -48 75 -75 75 -29 0 -26 11 12 47 75 72 279 143 364
127 25 -5 33 -3 33 9 0 8 -7 18 -16 21 -21 8 -24 8 -24 -5z"/>
<path d="M17520 7695 c-24 -12 -81 -88 -111 -145 -7 -14 -15 -71 -17 -127 -4
-100 -4 -104 28 -168 18 -36 39 -65 47 -65 10 0 13 -6 9 -16 -4 -10 -1 -14 6
-12 7 3 21 -3 31 -13 18 -17 18 -22 3 -141 -9 -67 -29 -172 -46 -233 -16 -60
-41 -159 -55 -220 -14 -60 -33 -139 -42 -175 -9 -36 -57 -145 -108 -246 -60
-119 -106 -226 -133 -310 -23 -71 -57 -154 -75 -184 -19 -30 -53 -88 -76 -127
-23 -40 -46 -73 -51 -73 -6 0 -10 -6 -10 -14 0 -16 50 -137 60 -146 10 -9 78
-155 91 -195 6 -22 32 -83 56 -135 53 -114 50 -105 106 -255 100 -264 114
-312 139 -497 11 -78 10 -89 -5 -106 -9 -10 -17 -23 -17 -28 0 -12 -79 -89
-135 -131 -79 -60 -236 -131 -336 -152 -194 -40 -217 -41 -404 -9 -113 20
-173 34 -178 44 -4 8 -16 14 -26 14 -22 0 -81 60 -81 83 0 9 -6 17 -14 17 -14
0 -81 103 -113 175 -24 53 -24 259 0 445 35 266 74 539 88 613 5 26 9 68 9 91
0 24 9 88 21 142 11 55 23 141 26 192 4 64 11 100 22 113 16 19 17 19 81 1 36
-11 73 -23 84 -27 14 -6 18 -5 14 6 -2 7 -33 22 -69 32 -35 10 -76 22 -90 28
l-26 10 4 111 c1 62 6 115 10 118 5 3 50 14 102 24 52 10 127 34 167 52 40 19
79 34 86 34 8 0 19 -12 25 -27 l12 -28 -2 29 c-1 16 3 31 9 33 17 6 36 -50 32
-93 -4 -38 -4 -38 -15 -14 -7 14 -12 20 -12 13 -1 -7 10 -29 24 -49 13 -20 27
-52 31 -73 7 -40 71 -187 79 -180 5 5 -23 89 -34 104 -5 5 -11 22 -15 37 -3
14 -9 34 -13 44 -5 13 -3 16 10 11 23 -9 22 12 -2 66 -11 23 -25 60 -31 82 -7
22 -16 44 -21 50 -15 15 -10 55 6 62 9 3 22 -2 30 -13 19 -26 53 -120 61 -171
4 -24 11 -43 16 -43 15 0 0 86 -24 140 -44 97 -48 108 -48 122 0 21 68 84 78
72 9 -10 42 -142 42 -168 0 -9 4 -16 10 -16 12 0 2 95 -16 143 -20 54 -18 75
16 140 39 72 47 155 30 277 -10 69 -10 94 -2 102 7 7 12 27 12 45 0 18 7 51
16 73 12 29 14 56 10 107 -12 124 -18 163 -25 163 -11 0 -33 -59 -26 -70 3 -5
13 -10 21 -10 20 0 19 -125 -2 -165 -9 -17 -14 -48 -12 -74 7 -96 -43 -32 -66
86 -9 45 -16 58 -30 58 -13 0 -24 15 -37 51 -12 30 -35 66 -59 87 -21 20 -43
45 -49 54 -8 15 -12 16 -23 5 -11 -11 -10 -16 5 -26 9 -7 17 -18 17 -25 0 -6
11 -17 25 -23 25 -11 34 -28 14 -28 -5 0 -8 -4 -5 -9 3 -5 14 -7 24 -5 13 4
21 -6 35 -42 9 -26 15 -49 13 -52 -11 -10 -36 9 -36 28 0 25 -15 26 -24 3 -3
-10 -9 -24 -12 -32 -5 -10 -2 -12 10 -8 17 7 35 -23 34 -54 -4 -61 4 -129 13
-129 8 0 10 20 7 64 -7 81 6 99 39 51 13 -19 23 -37 23 -40 0 -3 11 -23 24
-43 20 -32 24 -52 24 -115 1 -67 -2 -81 -24 -106 -34 -41 -30 -48 10 -17 l34
25 6 -32 c16 -83 -36 -183 -161 -314 -75 -78 -100 -97 -168 -128 -148 -67
-207 -78 -383 -70 -118 5 -167 11 -206 26 -63 25 -137 57 -152 67 -46 30 -76
52 -122 91 -61 51 -86 47 -27 -5 72 -62 178 -128 265 -163 73 -29 100 -35 193
-39 l107 -5 1 -31 c3 -100 -4 -225 -16 -270 -7 -28 -10 -55 -6 -61 10 -12 -5
-166 -19 -210 -5 -16 -14 -75 -19 -130 -6 -55 -15 -129 -21 -165 -6 -36 -17
-112 -25 -170 -7 -58 -18 -132 -24 -165 -6 -33 -15 -103 -20 -155 -6 -52 -15
-135 -21 -185 -5 -49 -10 -138 -10 -196 -1 -118 17 -184 69 -256 16 -22 37
-55 46 -74 65 -126 273 -315 366 -333 36 -6 36 -7 58 -95 14 -60 25 -147 31
-275 6 -108 19 -228 31 -284 11 -53 31 -162 44 -242 13 -80 31 -180 40 -223 8
-43 15 -90 15 -104 0 -24 -2 -25 -47 -18 -147 19 -297 3 -388 -42 -69 -35 -94
-60 -106 -110 -6 -23 -17 -48 -25 -54 -10 -8 -11 -16 -4 -29 6 -10 7 -26 4
-35 -5 -11 0 -18 15 -22 12 -3 21 -13 21 -24 0 -18 15 -24 48 -20 6 1 12 -4
12 -12 0 -28 161 -47 224 -27 17 5 63 19 101 31 202 63 296 149 265 244 -6 19
-28 48 -49 64 -43 34 -45 44 -102 376 -16 94 -38 215 -49 269 -11 58 -22 164
-26 250 -5 149 -14 219 -36 304 -14 57 -5 63 87 57 90 -5 233 22 351 68 148
58 135 61 162 -35 67 -238 112 -378 122 -378 5 0 2 21 -6 48 -8 26 -23 79 -33
117 -38 137 -83 280 -92 291 -7 8 5 21 38 43 87 57 147 125 177 199 26 64 27
73 21 182 -6 112 -35 285 -55 325 -5 11 -23 62 -40 113 -16 52 -38 110 -49
130 -10 21 -29 69 -41 107 -11 39 -45 120 -75 180 -29 61 -56 125 -60 144 -4
19 -16 48 -26 65 -10 17 -19 41 -19 53 0 12 -9 28 -20 36 -29 20 -63 106 -56
145 3 18 40 94 82 169 43 74 85 163 94 197 32 115 51 161 141 341 88 179 117
255 139 370 6 33 25 112 42 175 17 63 34 131 39 150 5 19 18 95 28 167 11 73
22 137 26 143 3 5 14 10 25 10 22 0 83 59 106 103 9 18 26 50 37 71 11 22 23
63 25 93 8 97 -48 241 -89 228 -9 -3 -22 1 -29 10 -6 8 -27 17 -46 21 -34 6
-57 24 -32 24 8 0 23 7 34 15 18 14 18 14 -11 14 -16 0 -41 -6 -55 -14z m-135
-3686 c-14 -64 -56 -135 -107 -185 -84 -80 -128 -102 -128 -64 0 11 -7 20 -15
20 -17 0 -20 -21 -5 -36 17 -17 -7 -31 -122 -75 -150 -57 -240 -73 -369 -66
-59 4 -124 12 -146 20 -63 22 -236 147 -222 162 4 3 29 0 55 -8 95 -28 322
-59 382 -52 257 30 452 111 596 247 39 37 75 67 79 68 5 0 6 -14 2 -31z"/>
<path d="M13754 7668 c-24 -47 -86 -128 -125 -164 -48 -44 -149 -101 -216
-120 -62 -18 -233 -15 -256 5 -7 5 -44 18 -83 29 -70 20 -103 34 -136 60 -17
14 -38 9 -38 -9 0 -5 12 -14 28 -19 15 -6 36 -15 47 -20 11 -5 73 -25 138 -46
109 -33 126 -36 215 -32 86 3 105 7 167 38 114 56 185 114 241 195 27 39 54
91 54 105 0 21 -20 9 -36 -22z"/>
<path d="M16606 7651 c-4 -5 -2 -20 3 -32 l8 -24 7 23 c10 31 33 28 97 -16 55
-36 87 -69 122 -124 17 -27 17 -28 -3 -28 -11 0 -20 -4 -20 -10 0 -5 4 -10 8
-10 5 0 18 -17 30 -39 23 -41 28 -96 12 -121 -9 -13 -11 -13 -20 0 -5 8 -10
23 -10 33 0 18 -25 24 -35 7 -3 -5 -2 -10 4 -10 5 0 13 -15 16 -32 4 -18 16
-43 27 -55 12 -12 18 -29 15 -37 -8 -21 -1 -20 23 4 25 25 29 60 5 40 -9 -7
-19 -10 -23 -6 -4 4 2 14 13 22 17 13 20 26 20 87 0 67 -4 78 -44 147 -54 93
-72 114 -138 156 -50 33 -105 44 -117 25z"/>
<path d="M16391 7549 c-86 -19 -111 -32 -111 -55 0 -18 2 -18 48 6 85 44 248
63 303 34 40 -20 32 -39 -16 -39 -22 0 -40 -5 -42 -12 -3 -9 9 -13 40 -13 42
0 48 -4 104 -63 52 -56 113 -93 113 -69 0 4 -21 28 -46 52 -25 25 -55 61 -66
80 -27 45 -66 80 -89 80 -10 0 -21 5 -24 10 -10 16 -122 10 -214 -11z"/>
<path d="M15745 7431 c-74 -26 -85 -34 -142 -93 -61 -65 -89 -118 -133 -253
-19 -55 -44 -116 -56 -135 -12 -19 -30 -61 -39 -92 -14 -50 -15 -66 -3 -115
l13 -58 5 90 c5 86 16 121 46 156 8 9 26 56 40 105 63 219 170 355 301 382 21
4 37 12 36 17 -3 16 -16 15 -68 -4z"/>
<path d="M5040 7351 c0 -6 9 -11 21 -11 11 0 43 -7 71 -17 l51 -16 -6 -127
c-3 -69 -9 -133 -12 -142 -4 -11 1 -17 19 -20 29 -6 32 2 14 31 -9 15 -9 40
-1 108 6 48 9 103 6 121 -5 32 -5 33 23 27 50 -11 54 -14 54 -37 0 -13 8 -74
17 -135 l17 -113 41 1 c33 0 36 2 18 9 -30 12 -40 35 -57 133 -9 47 -18 97
-22 112 -6 24 -4 25 35 25 23 0 41 4 41 8 0 5 -24 7 -54 4 -46 -4 -166 17
-258 44 -10 3 -18 1 -18 -5z"/>
<path d="M7496 7317 c-36 -47 -42 -108 -21 -201 25 -116 73 -157 104 -90 6 14
11 76 11 144 0 113 -1 120 -26 149 -14 17 -30 31 -34 31 -5 0 -20 -15 -34 -33z"/>
<path d="M7895 7300 c-32 -71 -6 -300 34 -300 17 0 60 60 71 98 23 83 6 199
-33 227 -35 24 -53 18 -72 -25z"/>
<path d="M16436 7267 c-3 -13 0 -25 9 -30 8 -4 15 -14 15 -21 0 -8 7 -16 15
-19 19 -8 55 -80 55 -111 0 -27 16 -44 23 -24 2 7 2 4 -1 -7 -3 -11 -6 -45 -8
-75 -1 -30 -5 -75 -9 -100 -5 -32 -4 -42 3 -35 16 15 44 130 46 187 0 26 4 48
9 48 15 0 6 23 -23 53 -52 55 -100 109 -100 113 0 9 39 3 45 -6 3 -5 14 -10
23 -10 24 0 4 16 -50 39 l-46 19 -6 -21z"/>
<path d="M8186 7079 c-23 -84 -115 -181 -222 -235 l-74 -37 -127 5 c-103 4
-142 10 -200 31 -74 26 -132 62 -169 106 -16 19 -23 21 -29 11 -16 -25 85
-101 178 -135 70 -25 100 -30 204 -33 175 -6 244 20 362 132 65 63 111 140
111 189 0 46 -16 30 -34 -34z"/>
<path d="M16197 6684 c-39 -21 -48 -51 -36 -124 10 -66 49 -163 70 -175 8 -6
23 3 42 26 28 33 29 36 23 118 -5 60 -13 96 -29 124 -26 48 -33 51 -70 31z"/>
<path d="M15839 6658 c-15 -29 -5 -177 15 -215 8 -15 24 -36 36 -46 48 -40 62
22 37 158 -21 108 -60 155 -88 103z"/>
<path d="M16486 6443 c-3 -3 -6 -13 -6 -22 0 -40 -60 -139 -116 -192 -51 -48
-67 -57 -119 -67 -66 -12 -134 -6 -252 24 -85 22 -209 105 -258 171 -30 42
-55 55 -55 30 0 -15 96 -110 145 -143 70 -49 132 -75 218 -95 107 -24 223 -22
274 4 73 38 171 172 186 254 6 31 -3 50 -17 36z"/>
<path d="M16860 6354 c0 -8 7 -47 16 -86 19 -82 14 -140 -15 -179 -12 -16 -26
-60 -33 -106 -12 -72 -15 -78 -36 -76 -32 4 -37 -19 -13 -63 12 -21 21 -44 21
-51 0 -7 5 -13 10 -13 13 0 13 -32 -1 -67 -13 -32 -20 -188 -9 -176 5 4 10 17
12 27 7 42 28 26 60 -46 18 -40 34 -65 36 -56 3 17 -30 94 -68 155 -14 24 -17
39 -10 62 4 16 11 92 15 168 6 113 11 149 32 198 34 84 39 146 18 243 -10 45
-22 82 -26 82 -5 0 -9 -7 -9 -16z"/>
<path d="M16130 5646 c-32 -85 -152 -381 -171 -423 -12 -26 -53 -104 -92 -173
-39 -69 -108 -199 -155 -290 -160 -313 -152 -300 -195 -300 -44 0 -107 -72
-165 -188 -44 -89 -46 -97 -48 -188 -2 -71 1 -94 11 -94 7 0 15 -10 18 -21 4
-15 11 -20 21 -16 9 4 16 2 16 -3 0 -6 -5 -10 -11 -10 -5 0 -7 -4 -4 -10 10
-15 63 -12 102 7 53 25 133 105 159 160 26 52 29 68 14 58 -5 -3 -10 -2 -10 4
0 5 5 11 11 13 7 2 13 41 16 93 l5 90 -38 44 -37 43 94 190 c52 105 140 272
196 372 71 124 125 238 174 361 39 99 82 202 96 228 17 35 21 52 14 65 -8 15
-11 13 -21 -12z"/>
<path d="M4280 3928 c0 -7 -55 -51 -123 -97 -67 -46 -189 -130 -272 -187 -82
-56 -199 -137 -260 -178 -117 -80 -481 -355 -793 -598 -48 -38 -92 -68 -98
-68 -19 0 -37 57 -30 95 10 52 -22 129 -104 249 -83 123 -130 161 -213 176
-28 6 -40 4 -46 -8 -7 -13 -13 -13 -42 5 -58 35 -83 36 -138 6 -28 -16 -64
-45 -81 -67 -27 -35 -30 -46 -30 -108 0 -55 4 -75 22 -101 83 -119 283 -267
443 -327 11 -4 33 -13 48 -19 32 -13 96 -14 114 -3 8 5 1 12 -20 22 -17 7 -26
15 -19 18 7 2 19 -1 27 -8 20 -16 48 -5 73 30 23 31 74 71 427 342 116 89 224
172 240 185 17 13 73 53 125 90 52 37 156 110 230 163 74 54 196 137 270 187
213 141 290 195 296 204 3 5 -6 9 -20 9 -14 0 -26 -6 -26 -12z"/>
<path d="M150 3263 c-40 -46 -41 -50 -37 -104 5 -54 37 -132 81 -194 11 -16
22 -43 23 -60 1 -16 4 -42 8 -56 7 -26 6 -26 -57 -33 -75 -9 -88 -18 -88 -61
0 -28 -5 -34 -40 -50 -22 -10 -40 -24 -40 -31 0 -7 20 -1 56 18 51 28 55 32
49 58 -7 32 -3 34 85 45 30 4 58 12 61 17 4 6 2 25 -4 44 -6 19 -7 37 -4 40 4
4 35 -3 69 -16 35 -12 81 -23 103 -24 29 -1 41 -6 43 -18 2 -10 -1 -18 -7 -18
-6 0 -11 -8 -11 -17 1 -17 1 -17 14 0 7 9 18 17 25 17 21 0 11 30 -25 69 -28
32 -33 44 -26 58 7 12 7 25 0 37 -6 10 -19 53 -29 94 -13 49 -33 95 -56 130
-36 52 -103 102 -136 102 -8 0 -34 -21 -57 -47z m124 -13 c54 -48 92 -113 106
-182 6 -35 16 -71 21 -80 6 -12 5 -24 -3 -37 -9 -15 -9 -25 0 -47 7 -14 10
-29 8 -32 -3 -3 -32 7 -65 22 -32 14 -63 26 -69 26 -16 0 -76 77 -106 136 -15
28 -29 75 -33 103 -6 49 -4 54 28 87 41 42 68 43 113 4z"/>
<path d="M17310 3194 c0 -21 44 -96 119 -204 68 -96 151 -241 151 -262 0 -8 4
-18 9 -24 6 -5 24 -45 42 -89 17 -44 53 -123 80 -176 27 -54 49 -102 49 -108
0 -7 -10 -9 -27 -5 -35 9 -36 9 -112 -9 -35 -9 -67 -21 -71 -27 -4 -6 -13 -8
-22 -5 -13 5 -114 -41 -145 -66 -6 -6 -24 -14 -40 -18 -15 -4 -32 -16 -38 -27
-5 -11 -20 -35 -32 -54 -23 -38 -28 -88 -11 -132 24 -64 158 -87 304 -53 138
33 198 65 234 128 16 29 27 59 25 68 -3 8 2 24 10 35 22 28 18 73 -9 108 -32
42 -123 227 -201 408 -48 111 -89 187 -168 305 -57 87 -112 173 -121 191 -18
35 -26 40 -26 16z"/>
<path d="M1240 2883 c-95 -14 -151 -38 -225 -93 -31 -23 -71 -42 -103 -49 -67
-14 -65 -14 -58 6 9 22 -10 33 -60 33 -44 0 -94 -30 -94 -56 0 -21 31 -17 37
5 3 12 17 21 39 26 48 9 60 -2 33 -31 -12 -13 -20 -27 -17 -30 4 -3 38 3 78
15 l71 20 11 -23 c7 -17 7 -29 -1 -44 -13 -25 -14 -32 -2 -32 10 0 51 91 51
113 0 20 101 86 159 104 25 8 83 15 127 16 90 2 124 -14 124 -59 0 -49 -288
-244 -359 -244 -33 0 -42 -17 -14 -27 34 -13 329 166 378 231 25 32 26 39 15
65 -20 50 -90 70 -190 54z"/>
<path d="M296 2231 c-3 -5 1 -14 9 -21 8 -7 15 -20 15 -29 0 -9 7 -29 15 -45
9 -16 13 -31 11 -33 -2 -3 -22 -7 -45 -10 -34 -5 -43 -2 -65 22 -18 20 -26 23
-26 12 0 -8 14 -27 31 -41 25 -22 37 -25 69 -20 35 6 41 3 69 -29 63 -71 122
-73 171 -5 41 57 38 71 -5 20 -20 -22 -44 -44 -55 -47 -35 -11 -110 44 -110
82 0 6 14 20 30 30 51 30 34 61 -59 106 -39 19 -48 21 -55 8z"/>
<path d="M7355 2104 c-94 -33 -165 -85 -165 -121 0 -18 -13 -40 -37 -65 -30
-31 -36 -42 -27 -55 7 -12 8 -26 0 -45 -9 -25 -7 -31 24 -64 50 -52 143 -92
234 -100 64 -6 84 -3 135 16 57 21 114 66 154 120 46 64 46 149 -1 235 -22 39
-38 55 -82 77 -70 35 -138 36 -235 2z"/>
<path d="M930 2113 c0 -6 21 -14 48 -18 55 -8 122 -35 140 -58 11 -13 10 -18
-12 -32 -33 -22 -163 -34 -239 -21 -53 8 -61 7 -73 -9 -8 -10 -14 -26 -14 -34
0 -11 5 -9 16 7 8 12 24 22 35 22 24 0 68 -48 69 -74 0 -12 5 -16 15 -12 9 3
15 0 15 -9 0 -17 -9 -19 -29 -6 -8 5 -21 5 -30 1 -9 -5 -45 -14 -81 -20 -77
-14 -130 -37 -130 -56 0 -16 -55 -20 -65 -4 -10 17 -32 11 -38 -10 -3 -11 -12
-20 -20 -20 -18 0 -67 55 -67 76 0 23 -17 16 -24 -11 -9 -34 -22 -31 -48 10
-25 38 -36 43 -45 19 -3 -9 4 -26 18 -40 35 -38 58 -48 75 -33 12 10 19 8 36
-9 20 -19 20 -24 8 -47 -11 -20 -19 -25 -35 -20 -64 22 -102 -7 -112 -84 -4
-26 -13 -47 -24 -54 -24 -15 -25 -28 -1 -20 32 11 49 33 45 57 -10 50 49 112
72 76 13 -21 45 -9 67 25 28 43 66 59 114 50 33 -6 40 -3 74 30 34 33 42 36
131 46 139 16 163 33 114 79 -35 32 -32 49 8 47 96 -3 207 32 207 66 0 18 -37
50 -83 71 -45 21 -137 33 -137 19z"/>
<path d="M215 1490 c-22 -10 -57 -19 -78 -19 -26 -1 -37 -5 -34 -13 3 -9 21
-12 55 -10 46 2 50 1 45 -18 -7 -25 38 -92 84 -127 35 -27 100 -46 105 -32 2
5 23 13 48 17 36 6 46 13 54 34 14 41 -5 71 -76 123 -35 25 -67 48 -73 53 -19
15 -90 11 -130 -8z"/>
<path d="M16545 1448 c-2 -7 -9 -31 -15 -53 -18 -58 -77 -169 -105 -195 l-24
-22 -33 37 c-53 61 -77 98 -81 128 -2 18 -13 33 -31 42 -41 21 -50 9 -21 -29
20 -27 27 -51 35 -132 19 -191 33 -264 50 -264 13 0 13 0 -10 137 -30 178 -30
179 30 114 28 -30 50 -63 50 -73 0 -10 7 -18 16 -18 9 0 30 -11 46 -25 16 -14
35 -22 41 -18 6 4 -2 17 -21 33 -18 15 -32 32 -32 39 0 22 79 145 84 130 2 -8
7 -42 9 -75 12 -150 134 -267 196 -188 11 14 21 30 24 37 2 7 18 -1 42 -22 35
-31 42 -33 92 -29 41 4 62 12 92 36 46 37 57 39 66 12 3 -11 13 -20 21 -20 25
0 78 26 98 49 24 27 30 27 72 -5 52 -40 97 -44 272 -24 163 18 199 27 221 54
22 27 5 30 -39 7 -46 -24 -205 -46 -332 -46 -72 0 -79 2 -108 30 -30 29 -32
37 -14 79 6 16 4 18 -15 13 -13 -3 -31 -1 -41 5 -31 20 -73 -1 -135 -67 -57
-61 -127 -104 -169 -105 -32 0 -84 39 -90 68 -4 15 -2 43 4 62 7 23 6 38 -1
45 -13 13 -29 -11 -29 -48 0 -62 -62 -144 -99 -132 -28 8 -80 86 -97 143 -17
57 -18 189 0 220 7 13 10 36 8 53 -4 30 -19 39 -27 17z"/>
<path d="M10722 1398 c-16 -16 -15 -78 3 -158 22 -101 21 -106 -25 -114 -50
-8 -117 -69 -126 -115 -8 -38 -45 -61 -99 -61 -53 0 -76 28 -69 83 6 39 3 46
-20 65 -34 26 -72 15 -116 -34 -25 -29 -30 -43 -30 -84 0 -38 5 -52 21 -64 25
-17 42 -13 90 25 l36 28 22 -22 c26 -27 97 -29 135 -4 16 11 35 15 54 11 49
-10 128 47 147 106 10 32 20 24 46 -42 29 -75 46 -88 91 -69 18 7 48 16 67 20
36 6 55 31 24 31 -10 0 -39 -7 -64 -16 -26 -10 -53 -14 -62 -11 -23 8 -77 158
-77 212 0 26 -4 44 -9 41 -12 -8 -18 10 -26 88 -7 63 -6 68 11 64 16 -3 20
-15 25 -68 l6 -65 1 60 c3 79 -25 124 -56 93z"/>
<path d="M13526 1378 c-7 -28 -92 -172 -110 -188 -11 -8 -25 1 -68 45 -29 31
-60 73 -68 94 -9 24 -20 36 -29 33 -7 -2 -17 2 -22 9 -6 11 -11 11 -20 2 -10
-10 -7 -17 14 -33 19 -15 27 -33 32 -68 6 -48 27 -174 46 -269 6 -29 15 -53
20 -53 5 0 9 6 9 13 0 21 -49 267 -55 277 -16 27 29 5 73 -35 48 -43 50 -47
40 -76 -12 -35 -2 -52 16 -26 18 23 31 21 54 -8 20 -25 42 -33 42 -15 0 6 -14
23 -31 38 -31 28 -31 28 -15 62 21 45 65 123 75 133 9 9 14 -6 31 -113 15 -91
62 -240 77 -240 22 0 22 16 -3 66 -27 55 -60 199 -70 307 -7 68 -26 91 -38 45z"/>
<path d="M9824 1208 c4 -51 16 -130 27 -175 l21 -83 -23 -20 c-24 -19 -23 -21
16 -24 13 0 21 -9 23 -23 2 -13 7 -23 12 -23 16 0 21 19 11 38 -9 17 -1 22 72
50 105 40 177 88 201 133 18 33 18 37 2 69 -9 19 -32 46 -52 59 -46 32 -188
73 -238 69 -24 -1 -41 2 -44 10 -2 6 -11 12 -19 12 -14 0 -15 -12 -9 -92z
m195 28 c63 -18 89 -32 124 -64 37 -35 36 -72 -5 -113 -43 -42 -162 -99 -209
-99 l-37 0 -17 72 c-19 85 -30 190 -22 212 7 19 90 15 166 -8z"/>
<path d="M3660 1274 c-19 -8 -47 -13 -62 -10 -25 5 -28 3 -28 -22 0 -46 28
-226 40 -256 9 -25 7 -32 -11 -52 -18 -19 -20 -26 -9 -39 7 -8 18 -15 26 -15
7 0 17 -7 22 -16 8 -14 10 -14 21 0 8 9 25 16 40 16 32 0 104 32 148 66 34 26
63 71 63 99 0 25 -60 55 -112 55 -27 0 -48 3 -48 7 0 4 18 24 39 44 22 19 43
48 47 64 16 63 -88 97 -176 59z m145 -24 c16 -18 17 -23 4 -46 -42 -79 -188
-137 -203 -81 -8 31 -7 80 2 94 13 21 96 53 138 53 28 0 46 -6 59 -20z m61
-190 c10 -8 20 -15 22 -16 2 -1 -4 -16 -13 -33 -25 -49 -113 -102 -172 -104
-44 -2 -48 0 -51 23 -2 14 -7 34 -12 45 -5 11 -13 37 -19 58 -9 36 -9 37 17
38 15 0 35 3 44 7 28 11 163 -2 184 -18z"/>
<path d="M4384 1253 c3 -21 8 -85 11 -143 l6 -105 -28 -27 c-30 -29 -91 -58
-121 -58 -32 0 -54 34 -47 72 7 38 49 68 96 68 33 0 39 15 10 25 -22 7 -87
-23 -113 -51 -9 -11 -22 -32 -28 -48 -9 -26 -7 -31 20 -57 16 -16 39 -29 51
-29 41 0 98 23 129 51 17 16 35 29 40 29 5 0 10 -17 12 -37 3 -37 4 -38 40
-36 38 2 109 33 141 61 15 14 19 13 36 -2 26 -24 82 -23 122 2 l34 21 34 -64
c18 -35 30 -68 27 -73 -3 -5 -27 -15 -53 -23 -116 -32 -255 -118 -294 -183
-54 -89 4 -221 123 -282 146 -75 278 -53 332 55 48 95 43 183 -22 324 l-35 78
22 15 c27 19 18 36 -14 28 -23 -6 -28 0 -60 67 -23 49 -35 88 -35 116 0 32 -4
43 -15 43 -11 0 -15 -11 -15 -39 0 -46 -35 -81 -80 -81 -42 0 -62 29 -54 79
12 72 -24 46 -40 -29 -8 -41 -113 -101 -151 -86 -34 13 -16 52 55 121 39 37
69 73 67 79 -2 6 -36 -20 -75 -58 -40 -38 -74 -67 -76 -65 -7 7 -26 180 -26
232 0 36 -4 47 -16 47 -13 0 -15 -8 -10 -37z m534 -510 c52 -113 66 -184 52
-249 -22 -100 -85 -154 -179 -154 -141 0 -281 116 -281 232 0 44 4 54 47 99
26 28 70 62 98 77 53 27 192 81 211 82 6 0 29 -39 52 -87z"/>
<path d="M7894 1226 c-3 -7 2 -44 11 -82 9 -38 23 -103 30 -144 29 -145 65
-215 65 -124 0 43 38 136 54 131 6 -2 22 -34 36 -71 14 -37 37 -82 51 -99 25
-31 26 -31 67 -18 23 8 42 18 42 22 0 15 -22 21 -33 10 -33 -33 -68 0 -105
100 -33 87 -52 103 -82 68 -11 -13 -26 -36 -31 -51 -15 -38 -27 -35 -35 10 -3
20 -14 74 -25 118 -10 45 -19 96 -19 113 0 31 -16 42 -26 17z"/>
<path d="M14118 1193 c-9 -10 -25 -37 -37 -61 -25 -48 -36 -48 -45 2 -6 32
-31 65 -41 54 -2 -2 9 -42 26 -89 17 -46 33 -90 35 -97 8 -26 21 -2 27 47 7
55 40 129 63 138 26 10 42 -17 59 -96 27 -125 43 -131 71 -29 17 61 55 118 78
118 23 0 46 -36 75 -119 16 -45 31 -85 34 -87 9 -9 147 19 147 30 0 5 -29 6
-66 3 -55 -4 -66 -2 -71 12 -14 44 -67 158 -80 174 -9 9 -24 17 -34 17 -23 0
-89 -57 -89 -76 0 -8 -7 -31 -16 -52 l-16 -37 -14 64 c-7 35 -21 72 -30 82
-21 24 -56 24 -76 2z"/>
<path d="M7310 1181 c-5 -11 -10 -27 -10 -37 0 -30 -60 -213 -73 -221 -7 -4
-12 -24 -13 -43 0 -19 -4 -54 -9 -77 -5 -30 -4 -43 4 -43 17 0 44 70 43 113
-1 20 2 37 6 37 23 1 141 20 159 25 18 6 26 -1 47 -34 14 -22 26 -46 26 -52 0
-19 26 -38 40 -29 11 7 6 21 -23 64 -25 38 -33 58 -25 60 71 20 98 31 98 38 0
5 -8 7 -17 4 -98 -28 -104 -28 -122 -4 -41 58 -101 174 -101 195 0 28 -16 30
-30 4z"/>
<path d="M13745 1143 c-3 -8 -5 -43 -5 -78 0 -58 2 -65 31 -89 35 -30 47 -31
93 -12 40 17 76 60 76 93 0 38 -31 82 -65 92 -45 15 -123 11 -130 -6z m147
-30 c21 -18 24 -70 5 -94 -29 -38 -94 -51 -117 -24 -21 26 -25 99 -5 118 22
22 92 22 117 0z"/>
<path d="M4065 1119 c-38 -22 -67 -54 -91 -101 -13 -26 -24 -49 -24 -51 0 -11
79 -57 98 -57 27 0 102 29 102 40 0 5 -23 1 -51 -8 -37 -12 -55 -13 -67 -6
-28 18 -25 38 8 52 17 8 47 29 66 47 27 26 35 40 32 62 -2 22 -9 29 -28 30
-14 2 -34 -2 -45 -8z"/>
<path d="M7735 1039 c-49 -26 -85 -58 -85 -76 0 -18 42 -33 95 -33 54 0 95
-15 95 -34 0 -8 -24 -26 -54 -41 -48 -23 -58 -25 -95 -15 -49 13 -58 25 -35
51 9 10 13 19 8 19 -18 0 -34 -24 -34 -51 0 -25 5 -29 54 -40 52 -11 58 -10
108 14 29 14 59 36 67 49 12 20 11 24 -13 45 -22 19 -39 23 -91 23 -72 0 -87
12 -53 42 31 27 61 38 89 31 18 -5 21 -3 16 11 -4 10 -7 20 -7 22 0 10 -28 2
-65 -17z"/>
<path d="M595 990 c-55 -20 -195 -91 -237 -122 -61 -43 -21 -77 104 -90 109
-10 158 -24 158 -44 0 -23 -78 -72 -137 -85 -42 -10 -62 -10 -85 -1 -37 14
-59 4 -33 -15 30 -21 118 -16 177 11 69 30 117 80 102 104 -18 28 -58 42 -140
48 -92 7 -144 20 -144 38 0 15 81 64 182 111 82 38 104 42 111 23 5 -17 37 8
37 28 0 19 -34 17 -95 -6z"/>
<path d="M895 833 c4 -10 17 -54 28 -98 11 -44 21 -82 23 -84 9 -11 32 24 38
57 7 45 45 105 68 110 12 2 20 -8 28 -40 27 -107 54 -134 126 -125 46 5 78 23
68 38 -3 5 -13 5 -24 -1 -10 -5 -34 -10 -54 -10 -36 0 -69 29 -81 73 -16 58
-39 97 -57 97 -26 0 -63 -39 -79 -83 -7 -20 -16 -37 -20 -37 -3 0 -14 27 -23
60 -12 40 -22 60 -33 60 -11 0 -13 -5 -8 -17z"/>
<path d="M713 821 c-27 -17 -32 -27 -39 -77 -6 -52 -5 -59 16 -76 27 -22 52
-23 93 -2 55 28 87 64 87 100 0 66 -88 96 -157 55z m125 -23 c23 -23 13 -56
-25 -87 -41 -34 -92 -41 -113 -16 -14 17 -1 67 27 97 19 21 92 25 111 6z"/>
</g>
</svg>
