<?xml version="1.0" standalone="no"?>
<!DOCTYPE svg PUBLIC "-//W3C//DTD SVG 20010904//EN"
 "http://www.w3.org/TR/2001/REC-SVG-20010904/DTD/svg10.dtd">
<svg version="1.0" xmlns="http://www.w3.org/2000/svg"
 width="1280.000000pt" height="640.000000pt" viewBox="0 0 1280.000000 640.000000"
 preserveAspectRatio="xMidYMid meet">
<metadata>
Created by potrace 1.16, written by Peter Selinger 2001-2019
</metadata>
<g transform="translate(0.000000,640.000000) scale(0.100000,-0.100000)"
fill="#000000" stroke="none">
<path d="M5045 5359 c-16 -5 -37 -6 -46 -4 -17 6 -119 -78 -119 -97 0 -5 5 -6
12 -2 7 4 8 3 4 -5 -4 -6 -12 -9 -17 -5 -11 7 -47 -70 -54 -118 -4 -22 0 -17
11 17 8 28 20 54 24 59 5 5 0 -19 -11 -54 -10 -34 -20 -81 -20 -103 l-2 -42
-7 40 -7 40 -2 -36 -1 -36 -113 5 c-111 5 -113 4 -145 -23 -26 -21 -32 -34
-32 -65 0 -32 7 -44 42 -75 l41 -38 81 6 c126 10 126 11 128 -92 l2 -86 6 90
6 90 2 -72 c4 -132 23 -377 37 -477 8 -55 13 -102 10 -104 -3 -3 -5 6 -6 19 0
13 -3 19 -5 12 -3 -6 -1 -26 5 -45 6 -22 10 -26 11 -13 l1 20 9 -20 c5 -11 9
-27 9 -35 1 -13 0 -13 -9 0 -19 29 -10 -9 15 -65 13 -31 29 -54 34 -51 5 4 13
1 17 -5 5 -8 3 -9 -6 -4 -8 5 -11 3 -8 -6 3 -8 10 -14 15 -14 6 0 15 -4 20 -9
5 -5 3 -6 -4 -2 -7 4 -13 3 -13 -3 0 -9 70 -70 100 -86 19 -10 4 5 -34 33 -16
12 -24 22 -18 22 6 0 14 -5 17 -10 11 -18 98 -57 153 -69 29 -6 133 -12 230
-13 l177 -2 -185 -6 -185 -6 178 -2 c161 -2 177 -4 178 -19 0 -16 1 -15 8 2 7
17 9 16 15 -9 4 -16 5 -31 1 -34 -3 -3 -5 1 -5 8 0 7 -2 11 -5 8 -8 -8 6 -39
15 -33 4 3 11 -2 14 -11 4 -9 2 -13 -5 -8 -7 4 -10 1 -7 -7 3 -8 10 -13 15
-12 5 1 9 -8 9 -20 -1 -12 4 -22 11 -22 6 0 15 -4 20 -9 5 -5 2 -6 -6 -1 -9 5
-12 3 -9 -6 3 -8 11 -13 17 -11 7 1 10 -2 7 -7 -4 -5 4 -30 16 -56 19 -39 21
-50 10 -77 -6 -17 -9 -35 -6 -40 3 -5 0 -7 -8 -6 -7 2 -13 -5 -13 -14 0 -9 -4
-20 -9 -25 -5 -5 -6 -2 -1 7 8 13 7 13 -8 1 -19 -15 -23 -36 -5 -25 7 5 8 3 4
-5 -5 -7 -11 -10 -14 -7 -7 7 -32 -13 -32 -26 0 -5 6 -6 13 -2 7 4 9 3 4 -2
-5 -5 -14 -9 -19 -9 -6 0 -13 -6 -16 -14 -3 -9 0 -11 9 -6 8 5 11 4 6 -1 -5
-5 -14 -9 -19 -9 -6 0 -13 -6 -16 -14 -3 -8 0 -11 7 -7 17 11 13 0 -6 -15 -15
-12 -16 -12 -8 1 5 9 0 8 -13 -4 -26 -23 -30 -44 -4 -25 15 11 15 11 4 -1 -7
-8 -18 -15 -24 -15 -6 0 -13 -6 -16 -14 -3 -8 0 -11 7 -7 17 11 13 0 -6 -15
-15 -12 -16 -12 -8 1 8 13 7 13 -8 1 -18 -14 -24 -36 -7 -26 16 10 11 -1 -7
-16 -15 -12 -16 -12 -8 1 8 13 7 13 -8 1 -18 -14 -24 -36 -7 -26 16 10 11 -1
-7 -16 -15 -12 -16 -12 -8 1 5 9 0 8 -13 -4 -26 -23 -30 -45 -4 -25 15 13 16
12 4 -3 -8 -10 -19 -16 -24 -15 -6 1 -13 -4 -16 -12 -3 -9 0 -11 9 -6 8 5 5
-1 -5 -13 -23 -26 -34 -29 -15 -4 11 14 10 13 -9 -2 -23 -20 -31 -42 -9 -30 8
5 7 2 -2 -9 -8 -10 -16 -15 -19 -12 -7 6 -32 -15 -32 -27 0 -5 5 -6 10 -3 16
10 11 -1 -7 -16 -15 -12 -16 -12 -8 1 5 9 0 8 -13 -4 -26 -23 -30 -44 -4 -25
14 11 13 10 -2 -9 -21 -24 -31 -29 -20 -9 4 6 -2 3 -14 -7 -26 -23 -30 -44 -4
-25 14 11 13 10 -2 -9 -21 -24 -31 -29 -20 -9 4 6 -2 3 -14 -7 -26 -23 -30
-44 -4 -25 9 7 6 1 -7 -14 -27 -30 -41 -37 -20 -9 11 14 10 13 -9 -2 -23 -20
-31 -42 -9 -30 6 4 3 -2 -7 -14 -23 -26 -34 -29 -16 -4 7 9 -10 -8 -38 -38
-50 -54 -69 -85 -34 -59 14 11 13 10 -2 -9 -21 -24 -31 -29 -20 -9 4 6 -2 3
-14 -7 -26 -23 -30 -44 -4 -25 9 7 6 1 -7 -14 -27 -30 -41 -37 -20 -9 11 14
10 13 -9 -2 -23 -20 -31 -42 -9 -30 8 5 8 2 -2 -9 -16 -20 -25 -23 -15 -4 4 6
-2 3 -14 -7 -26 -23 -30 -44 -4 -25 14 11 13 10 -2 -9 -21 -24 -31 -29 -21 -9
4 6 -7 -4 -24 -23 -34 -37 -42 -61 -13 -39 15 13 16 12 4 -3 -8 -10 -17 -16
-20 -15 -8 2 -102 -97 -102 -108 0 -4 8 -1 18 6 9 7 4 -1 -12 -19 -34 -36 -49
-44 -20 -9 10 12 4 9 -14 -7 -31 -29 -44 -54 -19 -40 8 5 8 2 -2 -9 -15 -19
-26 -23 -15 -5 5 7 3 8 -5 4 -7 -5 -10 -14 -7 -21 3 -8 -3 -19 -12 -27 -16
-12 -16 -11 -2 7 15 20 14 20 -8 1 -23 -20 -31 -42 -9 -30 7 4 9 3 4 -2 -5 -5
-14 -9 -19 -9 -6 0 -13 -6 -16 -14 -3 -9 0 -11 8 -6 9 5 11 4 6 -4 -4 -6 -11
-9 -16 -6 -14 9 -32 -34 -26 -60 5 -19 15 -25 52 -31 31 -4 54 -2 72 7 44 22
45 22 37 8 -5 -8 4 -3 18 10 30 27 37 52 10 30 -16 -13 -17 -12 -5 3 8 10 19
16 25 15 7 -1 11 6 11 15 -1 9 13 29 30 45 l31 28 -30 -35 c-29 -34 -28 -33
13 5 40 37 56 65 30 49 -7 -4 -2 5 11 19 28 31 41 36 20 9 -8 -10 12 9 43 42
55 59 76 93 41 65 -10 -7 -7 -1 6 14 27 30 41 37 20 9 -11 -14 -10 -13 9 2 23
20 31 42 10 30 -7 -4 -4 2 6 14 23 26 34 29 15 5 -11 -15 -10 -14 9 1 23 20
31 42 10 30 -7 -4 -2 5 11 19 14 15 27 27 29 27 3 0 -3 -9 -13 -20 -10 -11
-15 -20 -11 -20 9 0 55 53 56 64 0 5 -8 2 -17 -5 -10 -7 -7 -1 6 14 27 30 41
37 20 10 -11 -15 -10 -14 9 1 23 20 31 42 10 30 -7 -4 -4 2 6 14 23 26 34 29
16 5 -7 -10 10 7 38 37 50 54 69 85 35 59 -15 -11 -14 -10 1 9 21 24 31 29 20
10 -4 -7 2 -4 14 6 26 23 30 44 5 25 -10 -7 -7 -1 6 14 27 30 41 37 20 10 -11
-15 -10 -14 9 1 23 20 31 42 10 30 -9 -5 -9 -2 1 9 16 20 26 23 15 5 -5 -9 -2
-9 9 1 18 14 24 36 7 26 -16 -10 -11 1 7 16 15 12 16 12 8 -1 -8 -13 -7 -13 8
-1 18 14 24 36 7 26 -16 -10 -11 1 7 16 11 10 14 10 9 2 -15 -27 1 -11 53 50
l54 62 -51 -50 c-29 -27 -52 -47 -52 -44 0 2 26 31 59 63 37 36 61 54 66 47 3
-6 3 -10 -2 -9 -11 4 -13 -6 -12 -49 l2 -38 8 40 c6 31 7 26 4 -25 -7 -91 -47
-279 -55 -255 -5 13 -12 -1 -23 -48 -18 -71 -21 -94 -7 -62 5 13 9 14 9 5 0
-22 -17 -59 -18 -40 -1 13 -2 13 -11 0 -5 -8 -10 -22 -10 -30 0 -13 1 -13 10
0 9 13 10 13 10 0 0 -8 -5 -22 -10 -30 -9 -13 -10 -13 -10 0 0 13 -1 13 -10 0
-5 -8 -10 -22 -10 -30 0 -13 1 -13 10 0 6 9 10 10 10 3 0 -7 -6 -16 -14 -20
-8 -4 -21 -25 -30 -47 -19 -45 -19 -49 -6 -41 6 3 7 -1 4 -9 -3 -9 -10 -13
-15 -11 -11 8 -42 -67 -31 -74 5 -3 6 -15 1 -26 l-8 -20 -1 20 -1 20 -9 -20
c-13 -30 -12 -47 3 -39 7 4 9 3 4 -2 -5 -5 -14 -9 -19 -9 -6 0 -13 -6 -16 -14
-3 -8 0 -11 7 -7 7 4 9 1 5 -8 -3 -9 -11 -14 -17 -13 -6 1 -12 -7 -14 -18 -3
-16 -2 -17 6 -5 13 18 13 3 1 -25 -6 -13 -9 -15 -9 -5 -2 24 -21 -10 -20 -35
0 -18 1 -18 7 -2 4 9 7 -12 7 -47 0 -72 -5 -76 -16 -13 -6 37 -7 38 -8 10 -1
-39 16 -86 28 -78 5 3 13 0 17 -6 4 -8 3 -9 -4 -5 -17 10 -15 -2 8 -59 12 -27
19 -39 16 -26 -9 44 12 7 28 -51 17 -59 21 -97 6 -63 -11 25 -11 -1 0 -35 7
-21 8 -22 10 -5 4 38 30 -80 28 -130 -1 -44 -2 -41 -8 23 -11 98 -22 106 -14
9 l7 -77 -60 0 c-39 0 -66 -5 -79 -16 -18 -15 -18 -15 3 -5 12 6 52 10 90 9
l68 -1 -75 -6 c-41 -4 -84 -11 -95 -18 -24 -14 -100 -18 -640 -39 -398 -15
-725 -15 -793 1 -21 5 -56 29 -90 62 l-57 55 57 -50 c31 -27 72 -53 90 -57 18
-5 143 -9 278 -10 l245 -1 -245 7 c-135 3 -261 10 -280 14 -24 5 -54 27 -94
69 -33 34 -56 54 -51 46 8 -13 7 -13 -8 -1 -19 15 -23 26 -6 15 7 -4 10 -1 7
7 -3 8 -10 13 -16 12 -5 -1 -16 5 -24 15 -12 15 -11 16 5 3 9 -7 17 -9 17 -3
0 11 -22 31 -32 29 -3 -1 -10 2 -15 7 -5 5 -2 6 6 1 9 -5 12 -3 9 6 -3 8 -10
14 -16 14 -5 0 -14 4 -19 9 -5 5 -3 6 5 2 15 -9 15 -1 1 25 -5 11 -14 17 -19
14 -5 -3 -12 0 -16 6 -5 8 -3 9 6 4 8 -5 11 -3 8 6 -3 8 -10 14 -16 14 -5 0
-14 4 -19 9 -5 5 -3 6 5 2 16 -9 15 3 -3 34 -7 14 -19 25 -26 25 -7 0 -14 7
-16 15 -4 13 -3 13 6 0 20 -28 11 5 -14 55 -14 28 -31 50 -37 50 -6 0 -13 6
-16 14 -3 9 0 11 8 6 7 -4 11 -4 9 1 -2 5 -19 51 -38 102 -19 51 -37 88 -41
82 -5 -8 -9 -7 -13 4 -3 8 -2 16 4 18 11 4 -22 110 -34 109 -18 -2 -21 0 -9 7
9 6 10 15 3 33 -6 14 -10 18 -11 9 -2 -19 -19 18 -19 40 0 9 4 8 9 -5 l9 -20
-1 20 c0 11 -4 31 -8 45 l-8 25 -2 -25 c-4 -47 -29 104 -28 170 1 57 2 53 9
-34 4 -54 9 -100 11 -101 2 -2 3 60 3 138 0 78 -3 124 -6 102 -5 -33 -6 -34
-7 -10 -1 44 35 245 38 210 l2 -30 8 30 c4 17 8 44 8 60 l0 30 -8 -30 c-4 -17
-6 10 -3 60 6 99 13 126 13 50 0 -72 7 -51 13 40 3 49 2 67 -2 45 -16 -70 -11
11 6 108 10 60 19 88 23 76 5 -14 9 -9 14 20 4 21 5 41 2 44 -3 3 -6 -6 -7
-19 0 -13 -3 -19 -5 -12 -8 19 47 237 56 223 5 -8 14 9 24 45 10 31 15 60 12
63 -3 3 -6 -2 -6 -11 0 -9 -4 -18 -9 -21 -5 -4 -7 3 -4 15 3 11 11 23 18 25
16 7 48 90 40 104 -4 6 -1 9 6 8 6 -2 14 3 17 11 3 9 0 11 -9 6 -8 -5 -5 1 5
13 23 26 34 29 15 5 -11 -15 -10 -14 9 1 23 20 31 42 10 30 -8 -4 -10 -3 -5 2
5 5 14 9 20 9 5 0 12 6 15 14 3 8 0 11 -5 8 -6 -4 -4 16 3 44 7 28 11 72 9 97
-4 38 -3 41 4 17 l9 -30 0 30 c0 17 -4 41 -8 55 l-8 25 -2 -25 c-2 -24 -3 -23
-10 5 -10 40 -11 115 -1 140 6 12 8 -4 6 -45 -1 -36 -1 -51 1 -35 2 17 9 54
16 83 11 51 11 53 -17 82 -38 40 -75 40 -109 -1 -14 -17 -26 -38 -26 -47 0
-15 2 -15 10 -2 9 13 10 13 9 0 0 -8 -4 -24 -9 -35 l-9 -20 -1 20 c-2 22 -23
-38 -34 -95 -4 -26 -3 -30 3 -15 5 11 10 14 10 7 1 -17 -70 -235 -75 -230 -2
3 10 45 26 93 17 49 29 94 27 99 -3 8 -66 -171 -75 -214 -3 -13 -2 -13 7 0 6
8 11 11 11 5 0 -13 -20 -43 -20 -30 0 9 -60 -93 -60 -103 0 -2 9 6 20 19 l20
24 -17 -32 c-10 -17 -20 -31 -23 -29 -3 1 -21 -14 -40 -33 -29 -28 -30 -32
-10 -21 14 7 34 20 45 29 20 16 20 16 2 -5 -24 -29 -122 -72 -194 -85 -121
-23 -217 9 -317 104 -28 27 -45 45 -37 41 11 -5 13 -3 8 10 -4 9 0 30 8 46 19
37 19 49 0 24 -14 -18 -15 -17 -4 8 7 15 16 25 20 22 5 -3 15 12 24 32 18 43
18 47 5 39 -14 -9 -13 -1 7 39 9 19 20 33 24 30 11 -6 41 66 35 83 -3 7 0 12
6 10 13 -2 37 65 36 103 0 14 -5 1 -12 -28 -8 -29 -17 -56 -21 -60 -4 -4 -5 2
-2 13 4 11 13 53 22 93 16 71 32 102 21 40 -5 -25 -1 -20 14 17 24 59 24 58 8
49 -9 -6 -9 -3 0 9 8 9 19 15 25 14 15 -3 75 117 82 163 4 27 1 23 -11 -15 -8
-27 -20 -54 -24 -59 -5 -5 0 20 11 55 17 51 20 84 17 167 -2 56 0 95 4 85 5
-15 7 -15 7 -2 1 26 -29 90 -39 84 -5 -3 -12 0 -16 6 -4 8 -3 9 4 5 7 -4 12
-3 12 1 0 12 -73 83 -85 83 -4 0 7 -15 26 -32 20 -18 26 -25 14 -16 -27 23
-89 48 -117 48 -45 0 -98 -21 -145 -57 -27 -20 -41 -28 -33 -18 8 10 35 31 59
47 25 15 41 28 35 28 -40 0 -170 -137 -150 -158 3 -3 6 -1 6 4 0 6 7 19 15 30
14 17 14 16 0 -13 -23 -49 -18 -182 11 -288 4 -16 3 -17 -5 -5 -14 20 -14 -2
0 -34 8 -16 23 -26 44 -30 18 -4 39 -14 46 -24 11 -14 11 -15 -1 -4 -8 6 -23
12 -34 12 -19 0 -18 -2 4 -13 18 -9 26 -23 31 -52 5 -39 5 -39 11 -10 l5 30 1
-30 c0 -16 -3 -39 -8 -50 l-9 -20 -1 20 -1 20 -9 -20 c-5 -11 -8 -31 -8 -45
l0 -25 8 25 c6 16 7 6 3 -30 -6 -63 -12 -77 -14 -34 l-1 29 -8 -30 c-4 -16 -8
-39 -8 -50 l-1 -20 9 20 9 20 0 -20 c0 -11 -4 -29 -9 -40 l-9 -20 -1 20 c-1
11 -10 -6 -21 -39 -11 -32 -18 -60 -15 -63 2 -3 10 14 17 36 7 23 14 39 17 37
7 -8 -19 -75 -32 -83 -19 -11 -48 -72 -41 -84 4 -5 1 -8 -6 -7 -7 2 -14 -6
-16 -17 -3 -17 -2 -17 7 -5 8 11 9 8 4 -15 -8 -37 -14 -44 -15 -19 0 18 -1 18
-9 -1 -5 -11 -9 -27 -9 -35 -1 -13 0 -13 9 0 5 8 10 11 10 5 0 -14 -20 -43
-20 -30 0 6 -37 -64 -81 -155 -44 -90 -77 -170 -75 -177 3 -7 0 -12 -6 -10 -7
1 -13 -7 -15 -18 -3 -17 -2 -18 7 -5 10 13 11 13 7 0 -2 -8 -9 -15 -16 -15 -7
0 -24 -27 -37 -59 -27 -67 -28 -69 -14 -61 6 3 7 -1 4 -9 -3 -9 -10 -13 -15
-11 -5 3 -15 -11 -24 -31 -21 -51 -17 -67 5 -19 37 79 19 24 -38 -117 l-57
-143 0 -200 c1 -170 5 -226 29 -375 24 -145 27 -194 23 -290 -5 -118 -22 -204
-37 -181 -5 10 -9 8 -14 -4 -9 -26 -7 -42 4 -25 5 8 10 11 10 5 0 -15 -16 -37
-26 -35 -5 0 -10 -7 -12 -17 -3 -15 -1 -16 8 -3 10 13 11 13 7 0 -2 -8 -10
-14 -16 -12 -22 5 -142 -276 -141 -327 1 -9 13 22 29 69 15 47 33 94 40 105 7
11 10 13 7 5 -2 -8 -19 -57 -36 -109 -19 -59 -33 -124 -36 -175 -7 -103 -9
-109 -31 -98 -27 14 -794 -3 -872 -19 -53 -11 -60 -15 -40 -21 14 -5 8 -5 -16
-2 -22 4 -169 8 -326 9 l-286 3 1 -22 c2 -49 172 -67 428 -45 84 7 177 13 207
13 39 -1 48 2 33 7 -36 13 -25 18 15 7 49 -13 671 -4 768 11 39 6 82 20 96 31
27 19 27 19 34 -3 4 -12 8 -25 10 -29 1 -5 3 -12 4 -16 1 -9 63 -47 73 -45 3
2 32 -6 64 -17 74 -26 105 -25 140 2 19 15 24 16 15 5 -12 -15 -12 -17 1 -12
8 3 20 24 27 45 13 45 -1 91 -38 124 -24 22 -24 22 -139 34 -104 11 -114 20
-20 17 40 -1 51 0 23 2 -27 2 -54 8 -59 13 -7 7 16 101 41 166 4 12 3 15 -5
10 -8 -5 -10 -2 -6 8 3 9 11 14 17 13 6 -1 12 7 14 18 3 17 2 18 -7 5 -10 -13
-11 -13 -7 0 2 8 10 15 18 15 7 0 15 9 17 20 3 17 1 18 -8 5 -10 -13 -11 -13
-7 0 2 8 9 15 16 15 6 0 23 24 36 53 28 60 29 66 15 57 -14 -9 -11 4 11 50 10
22 16 29 13 15 -4 -14 -8 -32 -11 -40 -2 -8 5 3 16 25 21 43 29 83 11 55 -12
-18 -12 -2 0 25 6 13 9 15 9 5 1 -13 2 -13 11 0 5 8 10 22 10 30 0 13 -1 13
-10 0 -9 -13 -10 -13 -9 0 0 8 4 24 9 35 l9 20 1 -20 1 -20 9 20 c5 11 8 31 8
45 l0 25 -7 -25 c-4 -14 -6 20 -3 75 2 68 -4 171 -22 325 -31 266 -42 440 -30
463 6 11 8 -9 6 -56 -2 -40 1 -106 6 -147 8 -67 9 -58 8 78 -1 141 1 155 18
168 11 8 16 14 11 14 -5 0 -17 -8 -27 -17 -17 -15 -18 -15 -13 0 9 23 37 29
71 17 41 -16 152 -101 204 -157 l45 -48 -55 51 c-54 50 -121 103 -150 119 -22
12 -12 3 55 -49 33 -26 84 -73 114 -104 30 -31 48 -48 41 -37 -12 17 -12 18 0
7 8 -7 15 -20 15 -30 0 -9 5 -17 12 -17 6 0 15 -4 20 -9 5 -5 3 -6 -4 -2 -22
12 -14 -10 9 -30 22 -19 23 -19 8 1 -12 17 -12 18 0 7 8 -7 15 -20 15 -30 0
-9 5 -17 12 -17 6 0 15 -4 20 -9 5 -5 2 -6 -6 -1 -9 5 -12 3 -9 -6 3 -8 10
-14 16 -14 5 0 14 -4 19 -9 5 -5 2 -6 -6 -1 -9 5 -12 3 -9 -6 3 -8 10 -14 15
-14 6 0 15 -4 20 -9 5 -5 2 -6 -6 -1 -9 5 -12 3 -9 -6 3 -8 10 -13 15 -12 5 1
9 -8 9 -20 -1 -12 4 -22 11 -22 6 0 15 -4 20 -9 5 -5 3 -6 -4 -2 -17 9 -16 4
4 -39 10 -20 20 -31 24 -24 9 15 39 -77 38 -115 l-2 -31 -7 35 -7 35 -2 -43
c-1 -32 2 -41 12 -36 6 4 -1 -7 -17 -24 -16 -17 -33 -29 -37 -26 -10 6 -43
-55 -35 -64 3 -3 6 -1 6 4 0 6 7 19 15 30 11 14 10 9 -3 -23 -9 -23 -20 -37
-23 -31 -7 11 -19 -16 -18 -40 0 -14 2 -13 10 3 8 17 9 17 4 -5 -24 -129 -24
-273 0 -345 6 -19 6 -19 -5 -2 -7 10 -15 40 -20 65 -7 41 -8 43 -8 12 -1 -45
21 -105 38 -105 7 0 15 -7 17 -15 4 -13 3 -13 -7 0 -9 13 -11 12 -8 -5 2 -11
10 -20 17 -20 8 0 16 -7 18 -15 4 -13 3 -13 -7 0 -9 13 -10 12 -7 -5 2 -11 8
-19 14 -18 6 1 14 -4 17 -13 3 -9 2 -12 -5 -9 -6 5 -9 -16 -7 -62 2 -43 7 -68
15 -68 6 0 15 -4 20 -9 5 -5 2 -6 -6 -1 -9 5 -12 3 -9 -6 3 -8 10 -14 16 -14
16 0 24 -11 9 -14 -6 -2 -68 -6 -137 -10 l-125 -8 137 1 c75 1 134 -1 131 -4
-2 -3 -77 -8 -166 -11 -164 -6 -238 -22 -236 -52 0 -9 2 -9 6 0 3 10 8 9 20
-2 13 -13 59 -15 351 -10 714 13 1273 25 1559 35 436 15 1188 35 1418 37 110
1 454 4 765 7 311 2 667 10 792 16 153 8 233 8 245 1 14 -7 8 -9 -22 -5 -22 3
-98 0 -170 -5 l-130 -10 155 5 156 5 22 -31 c13 -16 30 -30 40 -29 13 0 11 3
-5 9 -13 5 -23 12 -23 15 0 4 4 4 9 1 5 -4 39 1 75 9 40 9 160 19 318 25 139
5 261 12 271 16 21 8 22 37 3 53 -27 22 -87 24 -254 6 -125 -14 -175 -16 -197
-8 -26 10 -23 10 25 6 30 -2 82 0 115 5 58 9 56 10 -40 8 l-100 -1 3 25 c2 23
2 24 -11 6 -13 -17 -14 -16 -9 12 2 18 8 29 13 26 5 -3 9 0 9 5 0 6 -8 11 -18
11 -10 0 -33 14 -52 31 -19 17 -29 27 -21 23 9 -4 12 -2 9 7 -3 8 -10 14 -16
14 -5 0 -14 4 -19 9 -5 5 -3 6 5 2 21 -12 13 10 -10 30 -22 19 -23 19 -8 -1
15 -20 14 -20 -8 -1 -23 20 -30 32 -11 20 7 -4 10 -1 7 7 -3 8 -10 14 -16 14
-5 0 -14 4 -19 9 -5 5 -2 6 6 1 9 -5 12 -3 9 6 -3 8 -10 14 -16 14 -5 0 -14 4
-19 9 -5 5 -3 6 5 2 7 -4 12 -1 12 8 0 8 34 51 75 95 41 44 75 85 75 91 0 19
-21 51 -29 45 -5 -3 -12 2 -15 11 -4 10 -2 13 6 8 8 -5 9 -2 5 10 -4 10 -7 20
-7 22 0 2 -6 4 -13 4 -7 0 -21 23 -30 52 -9 28 -12 47 -8 42 5 -5 14 -26 21
-47 7 -21 14 -37 16 -34 2 2 -9 41 -25 88 -16 46 -30 79 -30 72 -1 -6 3 -23 9
-38 5 -14 6 -24 1 -21 -5 3 -19 43 -31 88 -20 73 -22 101 -18 226 2 82 9 147
15 153 8 8 39 5 110 -10 93 -19 104 -20 157 -6 93 24 240 15 222 -14 -3 -5 2
-15 11 -22 15 -12 16 -12 10 4 -9 24 0 21 14 -4 8 -15 8 -19 0 -15 -7 5 -11
-2 -11 -16 0 -18 2 -20 10 -8 8 13 10 13 10 -2 0 -9 3 -25 6 -35 5 -15 4 -15
-5 -3 -9 12 -11 12 -11 1 0 -16 66 -81 83 -81 6 0 -5 11 -26 25 -20 14 -37 28
-37 31 0 3 13 -4 29 -15 43 -31 118 -44 175 -31 68 15 82 23 166 104 l75 71
-75 -78 c-87 -90 -132 -112 -230 -111 -52 0 -59 -1 -35 -8 36 -10 106 -2 155
18 34 14 240 210 240 228 0 5 -8 3 -18 -5 -10 -8 -2 2 19 21 l37 36 98 -4
c159 -6 344 48 439 128 l40 34 -30 -32 c-16 -17 -55 -45 -85 -61 -62 -34 -61
-42 1 -10 153 77 206 240 108 324 l-24 20 20 -24 20 -25 -25 17 c-31 21 -58
22 -90 1 l-25 -16 24 21 c13 12 19 21 14 21 -5 0 -25 -15 -44 -32 -20 -18 -26
-26 -15 -18 21 15 21 15 3 -6 l-17 -21 -103 30 c-122 35 -155 33 -222 -18 -56
-43 -65 -45 -23 -4 31 30 31 30 -11 -3 -25 -19 -47 -41 -50 -49 -3 -12 -1 -12
15 1 12 9 10 4 -5 -13 -27 -30 -41 -37 -20 -9 13 16 12 16 -4 3 -35 -27 -68
-125 -36 -105 22 13 -9 -31 -43 -61 l-33 -30 33 35 c17 20 32 40 32 45 0 5
-17 -11 -37 -36 -81 -96 -198 -209 -237 -229 -23 -11 -35 -20 -28 -20 20 0 65
26 86 49 11 12 23 21 28 21 11 0 -50 -54 -79 -69 -32 -17 -88 -14 -104 6 -10
11 -10 14 -1 9 20 -12 13 12 -10 35 -13 12 -17 19 -10 15 6 -4 12 -3 12 2 0
12 -59 67 -73 67 -7 0 -36 9 -66 19 -48 17 -72 18 -220 12 -160 -7 -231 0
-217 23 7 11 -38 53 -48 44 -4 -4 -5 -1 -1 7 3 8 -4 38 -15 65 -18 44 -21 31
-4 -22 4 -14 4 -15 -4 -3 -14 21 -40 125 -46 185 -4 37 -3 42 3 20 l9 -30 0
30 c0 17 -4 44 -8 60 l-8 30 -2 -30 c-2 -20 -5 -10 -12 30 -18 120 -38 232
-44 251 -5 16 -4 16 5 4 17 -24 14 6 -4 41 -9 16 -20 27 -25 24 -5 -3 -12 0
-16 6 -5 8 -3 9 6 4 8 -5 11 -3 8 6 -3 8 -10 13 -16 12 -6 -2 -9 3 -6 10 3 8
-5 25 -16 38 -12 13 -18 17 -14 9 7 -13 5 -13 -9 -1 -18 15 -23 26 -7 16 28
-17 4 18 -40 59 -57 54 -85 58 -123 18 -23 -24 -27 -37 -27 -83 0 -57 11 -84
32 -84 7 -1 12 -6 11 -11 -1 -6 8 -9 20 -7 15 3 31 -5 52 -28 17 -18 24 -29
18 -25 -18 10 -16 -3 7 -44 11 -19 19 -28 20 -20 0 13 1 13 10 0 5 -8 10 -22
10 -30 0 -13 -1 -13 -11 0 -8 11 -9 9 -3 -9 3 -14 12 -57 19 -95 12 -62 13
-66 15 -31 1 23 8 -6 16 -70 7 -60 17 -125 23 -143 6 -19 6 -30 0 -27 -5 4 -9
13 -9 22 0 9 -2 14 -5 11 -3 -3 -2 -19 1 -37 4 -19 10 -28 14 -21 4 7 12 -9
19 -37 7 -26 14 -57 17 -68 4 -16 3 -17 -5 -5 -23 33 -11 -14 15 -58 l26 -44
-20 -47 c-12 -26 -23 -76 -25 -116 -3 -45 -1 -63 4 -50 12 27 0 -37 -16 -90
-8 -25 -14 -32 -15 -20 l-1 20 -9 -20 c-5 -11 -9 -29 -9 -40 l0 -20 9 20 c5
13 9 14 9 5 0 -22 -17 -59 -19 -40 -1 10 -4 9 -10 -5 -12 -27 -12 -43 0 -25
12 18 12 2 0 -25 -6 -13 -9 -15 -9 -5 -1 8 -15 -9 -31 -39 -35 -63 -36 -68
-12 -50 15 13 16 12 3 -3 -7 -10 -17 -16 -21 -13 -9 6 -29 -16 -27 -30 3 -19
-59 -17 -73 2 -12 15 -12 16 0 6 8 -7 28 -12 44 -12 28 2 28 2 6 6 -14 3 -41
20 -61 40 -24 22 -43 33 -55 30 -17 -4 -16 -5 2 -6 11 0 29 -11 40 -23 l19
-23 -22 18 c-26 23 -64 19 -80 -8 -8 -13 -12 -57 -11 -120 l2 -100 6 100 7
100 -1 -105 c-1 -78 -4 -104 -13 -103 -7 2 -13 -4 -13 -13 0 -9 5 -12 12 -8 7
4 8 3 4 -5 -4 -6 -10 -9 -14 -7 -4 2 -16 -3 -27 -11 -19 -15 -19 -15 5 -9 16
4 10 -1 -15 -15 -22 -12 -49 -29 -61 -38 -11 -9 -4 -1 15 18 21 19 27 29 15
23 -33 -17 -86 -83 -80 -99 3 -8 1 -11 -4 -8 -5 3 -20 -14 -32 -39 l-22 -46
30 -31 c16 -17 38 -35 49 -41 11 -6 1 6 -22 27 -42 36 -53 58 -33 70 6 3 7 -1
4 -10 -8 -19 19 -51 60 -72 39 -20 110 -12 140 16 12 11 26 21 31 21 4 0 -9
-13 -30 -30 -21 -16 -34 -30 -30 -30 13 0 95 71 95 82 0 6 -7 5 -17 -3 -16
-13 -17 -12 -4 3 7 10 17 15 22 13 10 -7 43 54 35 63 -3 3 -6 1 -6 -4 0 -6 -7
-19 -15 -30 -13 -16 -13 -14 1 19 8 21 21 66 28 100 11 46 15 54 16 32 l2 -30
8 30 c4 17 8 41 8 55 l0 25 -8 -25 c-5 -15 -8 -18 -9 -8 -1 25 10 49 20 42 5
-3 9 1 9 9 0 8 25 31 56 52 43 28 53 39 43 46 -11 7 -9 9 6 9 23 0 49 35 39
52 -4 7 -3 8 4 4 12 -7 48 52 38 62 -3 3 -6 1 -6 -4 0 -6 -7 -19 -15 -30 -12
-15 -11 -10 2 24 9 23 19 38 23 32 9 -15 30 34 29 68 0 24 -2 22 -14 -13 -14
-40 -14 -40 -9 -5 7 40 21 60 28 39 10 -34 26 -133 21 -137 -3 -3 -5 3 -5 13
0 10 -3 16 -6 12 -3 -3 -3 -21 1 -39 7 -27 9 -30 15 -14 5 16 9 11 17 -22 6
-23 7 -39 2 -36 -5 3 -9 12 -9 21 0 9 -2 14 -5 11 -10 -10 6 -57 18 -55 6 1
13 -9 14 -23 2 -22 2 -23 -6 -5 -6 14 -8 5 -8 -32 1 -33 5 -50 11 -46 6 3 -20
-26 -59 -66 -38 -39 -72 -71 -74 -71 -3 0 24 30 59 67 l65 68 -68 -65 c-37
-36 -70 -76 -74 -89 -6 -25 22 -95 35 -87 5 3 8 -5 8 -17 -1 -12 4 -22 11 -22
6 0 15 -4 20 -9 5 -5 2 -6 -6 -1 -9 5 -12 3 -9 -6 3 -8 10 -14 16 -14 5 0 14
-4 19 -9 5 -5 3 -6 -4 -2 -17 9 -16 1 2 -35 18 -34 13 -49 -18 -50 -16 -1 -17
-3 -5 -6 9 -2 27 1 40 8 18 9 21 9 11 -1 -6 -7 -31 -16 -55 -21 -24 -5 -329
-11 -678 -15 -464 -4 -662 -10 -734 -20 -115 -16 -173 -18 -141 -4 11 5 32 11
47 14 14 3 41 18 60 33 21 18 28 21 18 8 -14 -18 -14 -19 2 -7 26 20 48 77 47
119 -1 34 -2 32 -9 -16 -5 -29 -13 -58 -20 -65 -8 -8 -9 -4 -1 17 14 36 14 92
0 120 -10 21 -10 21 5 3 13 -16 16 -17 16 -4 0 8 -10 23 -22 34 -13 12 -18 13
-13 4 8 -13 7 -13 -8 -1 -18 15 -23 26 -7 16 19 -12 10 12 -12 31 -22 19 -23
19 -8 -1 15 -20 14 -20 -8 -1 -23 20 -30 32 -11 20 7 -4 10 -1 7 7 -3 8 -10
14 -16 14 -6 0 -17 7 -24 15 -11 12 -11 12 5 1 10 -8 17 -9 17 -3 0 11 -19 27
-32 27 -3 0 -10 4 -15 9 -5 5 -2 6 6 1 9 -5 12 -3 9 6 -3 8 -10 14 -16 14 -5
0 -14 4 -19 9 -5 5 -3 6 5 2 15 -9 15 -1 1 25 -5 11 -14 17 -19 14 -5 -3 -12
0 -16 6 -4 8 -3 9 4 5 17 -10 16 -8 -33 98 -25 53 -50 94 -55 91 -5 -3 -12 0
-16 6 -5 8 -3 9 6 4 8 -5 11 -3 8 6 -3 8 -10 13 -16 12 -5 -1 -16 5 -24 15
-12 15 -11 16 5 3 10 -8 17 -9 17 -3 0 6 -4 13 -9 16 -5 3 -13 39 -17 78 -8
73 -8 73 -15 28 l-6 -45 -1 43 c-1 23 -9 58 -16 77 -19 44 -10 46 10 3 10 -22
13 -24 8 -8 -19 71 -16 131 10 190 14 31 26 64 26 71 1 8 15 23 32 34 32 20
54 55 27 41 -8 -4 -2 3 13 16 15 13 84 54 153 92 75 41 140 85 160 108 19 21
35 34 35 29 0 -13 -83 -87 -119 -105 -17 -9 -31 -19 -31 -22 0 -12 67 32 110
72 51 47 60 83 31 118 -15 18 -64 46 -78 46 -4 -1 6 -8 22 -17 39 -20 65 -43
65 -57 0 -6 -5 -3 -11 7 -13 22 -70 51 -133 66 -66 16 -115 43 -151 82 -16 18
-22 27 -12 20 9 -7 17 -9 17 -3 0 11 -31 39 -37 34 -3 -2 -8 0 -11 4 -4 4 -1
4 7 -1 9 -5 12 -3 9 6 -3 8 -10 14 -15 14 -6 0 -15 4 -20 9 -5 5 -3 6 5 2 15
-9 15 -5 1 31 -8 22 -12 24 -19 13 -6 -9 -10 -10 -10 -3 0 6 -3 20 -6 30 -5
15 -4 16 6 3 10 -12 11 -11 6 10 -3 14 -6 30 -7 35 0 6 -4 1 -8 -10 -7 -16
-10 -10 -16 28 -8 54 -1 115 15 131 8 8 9 5 5 -9 -6 -18 -5 -18 5 -2 6 9 9 21
6 26 -3 5 2 15 12 22 16 13 16 12 2 -6 -15 -20 -14 -20 8 -1 23 20 31 42 10
30 -8 -4 -10 -3 -5 2 5 5 12 9 15 9 4 0 21 14 37 30 17 17 41 38 55 48 l25 18
-25 -11 c-24 -11 -24 -10 -5 5 11 8 25 13 32 11 18 -7 78 67 92 115 7 22 10
43 8 45 -2 3 -10 -16 -17 -41 -7 -25 -17 -48 -21 -51 -5 -3 -4 7 2 23 6 15 22
78 34 138 13 61 25 97 26 80 l1 -30 8 30 c4 17 8 44 8 60 l0 30 -9 -30 c-7
-24 -7 -21 -3 15 6 60 23 112 35 105 4 -3 15 11 24 31 17 41 20 67 5 44 -9
-13 -10 -13 -9 0 0 8 4 24 9 35 l9 20 1 -20 c2 -17 3 -16 10 5 4 14 8 34 8 45
0 16 -2 15 -8 -5 -18 -57 -8 17 20 151 19 92 27 147 21 157 -5 10 -9 22 -10
27 0 14 -41 19 -54 6 -8 -8 -3 -10 18 -7 17 2 23 1 15 -1 -8 -3 -73 -31 -145
-64 -124 -55 -256 -96 -275 -84 -5 3 -12 0 -16 -6 -5 -8 -3 -9 7 -4 8 5 6 0
-4 -12 -15 -17 -20 -52 -28 -204 -10 -184 -18 -235 -20 -143 l-2 49 -7 -55
c-5 -30 -8 -71 -8 -90 l1 -35 7 40 7 40 1 -35 c0 -19 -3 -55 -7 -80 -8 -44 -9
-44 -11 -10 -2 29 -4 24 -15 -30 -16 -81 -10 -98 9 -25 3 11 3 2 0 -20 -3 -22
-6 -46 -6 -53 -2 -16 -11 -5 -26 31 -9 20 -9 26 -1 21 17 -10 3 28 -46 126
-23 47 -48 84 -54 82 -7 -1 -10 1 -7 6 3 5 -3 31 -14 58 -11 28 -19 40 -20 29
-1 -11 -9 2 -20 30 -25 62 -25 70 0 25 25 -45 25 -37 0 25 -10 28 -19 46 -20
40 0 -5 -5 -3 -10 6 -6 10 -6 38 0 75 14 87 12 224 -5 280 -12 43 -12 47 0 30
21 -28 19 -12 -4 32 -21 41 -73 97 -105 114 -12 6 0 -9 25 -33 25 -24 31 -32
15 -18 -86 75 -196 85 -272 27 l-29 -22 25 30 25 29 -33 -29 c-28 -26 -45 -55
-24 -43 4 3 7 -25 7 -61 0 -37 3 -78 7 -92 6 -19 4 -18 -7 5 -8 17 -14 23 -14
15 -1 -24 65 -145 77 -143 5 1 16 -5 24 -15 12 -15 11 -16 -4 -3 -26 20 -22
-2 4 -25 13 -12 18 -13 13 -4 -8 13 -7 13 8 1 18 -15 23 -26 7 -16 -24 15 -5
-14 42 -65 27 -30 47 -48 42 -40 -7 13 -5 13 9 1 19 -15 23 -26 5 -15 -8 5 -9
2 -3 -12 4 -10 17 -45 28 -77 11 -31 22 -55 25 -53 2 3 -1 20 -7 38 -6 18 -8
28 -3 23 5 -6 19 -41 31 -80 12 -38 24 -77 27 -85 3 -8 -2 -4 -10 10 -8 14
-15 20 -16 14 0 -19 36 -94 43 -89 4 3 0 -3 -8 -12 -49 -56 -354 5 -457 92
-16 14 -26 25 -22 25 4 0 17 -8 28 -17 12 -10 8 -3 -8 15 -29 32 -43 42 -31
22 10 -16 -1 -11 -16 7 -12 14 -12 16 0 9 9 -6 12 -4 9 5 -3 8 -10 14 -15 14
-6 0 -15 4 -20 9 -5 5 -3 6 5 2 6 -4 12 -4 12 1 0 14 -17 35 -25 31 -10 -4
-33 58 -34 87 l0 20 10 -20 c8 -17 9 -17 4 5 -2 14 -5 32 -6 40 0 10 -3 8 -8
-5 -6 -14 -14 14 -30 95 -23 124 -26 167 -12 189 6 8 7 -3 4 -30 -2 -24 0 -62
5 -84 7 -33 8 -24 8 52 -1 51 -5 89 -10 85 -5 -3 -6 0 -2 7 4 6 11 9 16 6 4
-3 17 10 29 28 11 18 31 43 45 56 27 25 35 48 14 35 -7 -4 -4 2 6 14 23 26 34
29 15 5 -11 -15 -10 -14 9 1 23 20 31 42 10 30 -8 -4 -10 -3 -5 2 5 5 14 9 20
9 5 0 12 6 15 14 3 9 0 11 -9 6 -8 -5 -11 -4 -6 1 5 5 14 9 20 9 7 0 13 8 15
19 3 13 0 16 -10 11 -7 -4 -5 1 5 11 16 17 39 20 220 24 139 4 209 10 226 19
13 7 21 8 17 2 -4 -6 -21 -15 -39 -20 -30 -8 -30 -9 -6 -10 32 -1 69 37 69 70
0 15 -11 35 -27 50 l-28 24 20 -24 20 -24 -28 18 c-24 16 -34 16 -85 5 -32 -6
-69 -10 -82 -8 -22 3 -24 7 -22 48 2 25 -4 67 -12 95 -19 62 -14 71 8 13 9
-24 14 -31 11 -16 -8 44 -24 80 -33 74 -5 -3 -8 5 -8 17 1 12 -4 22 -11 22 -6
0 -15 4 -20 9 -5 5 -2 6 6 1 9 -5 12 -3 9 6 -3 8 -10 13 -15 12 -6 -1 -28 17
-49 40 -21 23 -29 33 -16 23 12 -11 22 -14 22 -9 0 10 -24 25 -45 27 -5 1 -34
9 -64 19 -60 19 -81 20 -126 6z m90 -130 c55 -14 109 -59 110 -90 0 -13 5 -24
12 -24 6 0 15 -4 20 -9 5 -5 3 -6 -4 -2 -15 8 -15 -7 -2 -44 8 -24 9 -24 5 3
-2 16 0 25 4 20 5 -4 11 -33 15 -63 l7 -55 -179 5 c-161 5 -223 15 -223 36 0
3 5 2 10 -1 6 -3 10 1 10 10 0 9 -5 13 -11 9 -7 -4 -9 0 -6 12 4 11 9 31 13
47 3 15 12 27 18 27 7 0 18 11 24 25 15 33 15 38 0 29 -7 -4 0 7 17 25 43 46
89 58 160 40z m1055 -859 c-19 -4 -27 -8 -17 -9 14 -1 17 -6 12 -23 -5 -21 -5
-21 9 2 19 31 19 17 1 -30 -10 -25 -14 -29 -15 -15 l-1 20 -9 -20 c-5 -11 -8
-31 -8 -45 l0 -25 8 25 c18 56 8 -10 -16 -113 -15 -61 -30 -104 -34 -97 -8 13
-20 -10 -19 -38 0 -14 2 -13 9 3 5 11 9 15 9 8 1 -19 -11 -43 -19 -38 -9 6
-24 -45 -15 -53 3 -3 5 2 5 11 0 9 4 18 10 22 5 3 2 -17 -6 -46 -21 -71 -32
-97 -34 -79 -1 9 -5 5 -11 -9 -6 -16 -6 -27 0 -30 6 -4 6 -12 1 -21 -9 -13
-10 -13 -10 0 0 13 -1 13 -10 0 -13 -20 -12 -33 2 -24 7 4 8 3 4 -4 -7 -12
-71 -32 -96 -31 -8 0 3 7 25 14 l40 14 -39 -6 -39 -6 6 69 c3 42 2 57 -3 39
-4 -16 -9 -48 -10 -70 -2 -26 -4 -32 -7 -17 -3 13 5 76 16 141 11 65 23 151
26 192 8 94 13 121 24 115 5 -3 11 4 15 17 9 33 7 39 -6 31 -8 -4 -10 -3 -5 2
5 5 12 9 16 9 13 0 61 62 54 68 -11 12 101 57 137 56 l35 -2 -35 -7z m-3562
-780 c2 -22 9 -61 17 -87 17 -56 19 -74 5 -53 -9 13 -10 13 -10 0 0 -8 5 -22
10 -30 9 -13 10 -13 11 0 1 19 18 -18 18 -40 0 -9 -4 -8 -9 5 -5 13 -9 14 -9
5 0 -22 17 -59 18 -40 1 13 2 13 11 0 5 -8 10 -22 10 -30 0 -13 -1 -13 -10 0
-9 13 -10 13 -10 0 0 -8 5 -22 10 -30 9 -13 10 -13 10 0 0 13 1 13 10 0 13
-20 13 -33 0 -25 -13 8 -13 -1 1 -26 5 -11 14 -17 19 -14 5 3 12 0 16 -6 4 -8
3 -9 -4 -5 -23 14 -12 -11 15 -35 25 -22 26 -22 9 -1 -27 31 -15 28 15 -5 13
-14 18 -23 12 -19 -32 18 -7 -16 59 -79 56 -54 61 -57 18 -12 -30 31 -52 57
-49 57 2 0 34 -30 69 -67 36 -37 57 -61 48 -54 -26 19 -22 -2 4 -25 12 -10 18
-13 14 -6 -10 18 -1 15 15 -5 12 -14 12 -16 0 -9 -9 6 -12 4 -9 -5 3 -8 10
-14 16 -14 6 0 17 -7 24 -15 11 -12 11 -12 -4 -1 -22 17 -23 8 -2 -24 9 -14
20 -23 24 -20 5 3 12 0 16 -6 5 -8 3 -9 -6 -4 -8 5 -11 3 -8 -6 3 -8 10 -14
16 -14 5 0 14 -4 19 -9 5 -5 3 -6 -4 -2 -17 9 -16 1 2 -35 9 -16 20 -27 25
-24 6 3 8 0 5 -7 -7 -17 31 -114 41 -108 10 6 22 -41 22 -85 0 -22 -2 -18 -9
14 -5 25 -10 48 -11 53 -2 4 -3 -34 -4 -85 0 -63 2 -79 6 -52 15 87 9 -5 -11
-163 -20 -164 -23 -367 -4 -417 5 -16 5 -17 -4 -5 -6 8 -11 11 -11 5 0 -14 53
-146 57 -141 2 2 -1 16 -7 31 -6 15 -9 29 -7 32 2 2 13 -23 25 -54 13 -37 16
-51 7 -39 -8 11 -15 15 -15 8 0 -6 8 -19 19 -29 19 -19 41 -56 41 -70 -1 -4
-9 8 -20 27 -26 48 -25 35 4 -36 13 -32 30 -59 37 -59 7 0 14 -6 17 -14 3 -9
0 -11 -8 -6 -8 5 -11 3 -8 -6 3 -8 10 -13 16 -12 6 2 9 -4 6 -11 -6 -17 23
-79 35 -72 4 3 7 -5 7 -17 -1 -12 4 -22 11 -22 6 0 15 -4 20 -9 5 -5 2 -6 -6
-1 -9 5 -12 3 -9 -6 3 -8 10 -14 15 -14 6 0 15 -4 20 -9 5 -5 3 -6 -4 -2 -7 4
-13 3 -13 -3 0 -5 8 -14 17 -20 15 -8 14 -10 -11 -17 -34 -8 -227 3 -238 14
-5 5 15 5 44 1 29 -4 87 -7 128 -7 88 1 71 5 -62 13 -91 6 -97 8 -102 31 -8
29 -65 96 -77 89 -11 -7 -58 17 -58 30 0 5 -5 11 -12 14 -8 2 -9 -1 -3 -10 6
-11 5 -11 -10 0 -9 8 -22 24 -27 35 -8 16 -6 15 10 -4 11 -14 21 -20 21 -14 0
5 -5 15 -11 21 -6 6 -20 35 -30 65 -11 29 -18 40 -15 25 2 -17 0 -25 -6 -19
-16 16 -26 160 -17 235 11 89 17 108 40 130 20 18 26 43 9 32 -6 -3 -7 1 -4 9
3 9 10 14 14 11 9 -6 47 72 56 114 3 14 -6 0 -20 -32 -13 -33 -28 -62 -32 -65
-4 -4 -4 2 1 13 49 120 51 150 21 240 -3 11 3 2 14 -20 31 -64 23 -27 -16 71
-48 118 -73 166 -84 159 -5 -3 -12 0 -16 6 -5 8 -3 9 6 4 8 -5 11 -3 8 6 -3 8
-10 14 -15 14 -6 0 -15 4 -20 9 -5 5 -2 6 6 1 9 -5 12 -3 9 6 -3 8 -10 14 -16
14 -5 0 -14 4 -19 9 -5 5 -3 6 5 2 21 -12 13 10 -10 30 -19 15 -20 16 -9 2 19
-25 8 -22 -15 4 -10 12 -13 18 -6 14 6 -4 12 -4 12 1 -1 11 -47 63 -56 63 -4
0 3 -12 17 -27 23 -27 23 -27 -9 1 -31 29 -42 43 -22 31 6 -3 10 -2 10 3 0 15
-179 182 -236 220 -50 35 -35 20 50 -49 27 -21 46 -39 42 -39 -3 0 -30 19 -59
43 -29 24 -81 60 -115 81 -55 33 -62 41 -62 70 0 19 8 38 20 49 20 17 28 43
10 32 -6 -3 -7 1 -4 9 3 9 10 14 14 11 13 -8 61 106 55 129 -5 15 -4 17 3 7 7
-10 16 2 36 44 29 64 30 69 16 60 -6 -3 -7 1 -4 9 3 9 10 14 14 11 4 -3 24 29
44 71 40 84 41 88 24 78 -7 -5 -8 -3 -3 6 6 10 11 9 22 -6 13 -18 14 -16 13
16 -2 39 -1 50 3 50 2 0 4 -18 5 -40z m650 -37 c3 -32 12 -44 12 -15 0 11 4
23 9 26 4 3 3 -15 -2 -40 -8 -35 -13 -42 -18 -28 -5 15 -8 12 -14 -14 -4 -18
-4 -36 -1 -39 3 -4 6 2 6 12 0 10 2 16 5 13 3 -2 -6 -58 -19 -124 -24 -117
-47 -287 -63 -454 -4 -52 -9 -71 -11 -51 -2 23 -6 30 -12 22 -9 -15 -30 -6
-30 12 0 7 4 6 10 -3 11 -17 13 -1 4 25 -5 11 -9 13 -14 6 -3 -7 -11 4 -17 24
-12 39 -7 48 7 13 6 -17 9 -19 9 -6 1 10 -7 25 -18 35 -19 19 -45 63 -37 63 3
0 12 -12 20 -27 11 -19 15 -23 16 -11 0 20 -37 58 -171 177 l-94 84 75 -74
c41 -41 93 -90 115 -108 36 -30 37 -31 5 -10 -19 13 -78 66 -130 118 -52 51
-87 88 -77 81 9 -7 17 -8 17 -2 0 13 -25 33 -32 26 -3 -3 -9 0 -14 7 -4 8 -3
10 4 5 17 -10 15 -3 -10 48 -12 25 -25 43 -29 40 -12 -7 -30 60 -34 126 l-4
59 62 -34 c160 -87 293 -86 417 4 30 22 55 40 55 40 0 1 2 -11 3 -26z m2490
-452 c-3 -64 -1 -105 3 -91 l7 25 0 -25 c0 -14 -3 -34 -8 -45 l-9 -20 -1 20
-1 20 -9 -20 c-12 -29 -12 -37 3 -30 6 4 -1 -5 -18 -19 -17 -15 -41 -25 -55
-25 l-25 2 25 4 c13 3 34 12 45 20 20 15 14 15 -28 -2 -10 -4 -17 7 -25 37
l-11 43 4 -45 c3 -33 2 -39 -5 -23 -5 12 -11 48 -13 80 -4 44 -3 50 3 23 8
-33 8 -33 7 12 -1 25 2 46 7 45 5 -1 11 4 14 12 3 9 0 11 -9 6 -8 -5 -11 -4
-6 1 5 5 14 9 20 9 5 0 12 6 15 14 3 9 0 11 -9 6 -8 -5 -11 -4 -6 1 5 5 14 9
20 9 5 0 12 6 15 14 3 9 0 11 -9 6 -8 -5 -11 -4 -6 1 5 5 14 9 20 9 7 0 13 7
13 15 3 25 4 27 20 27 15 0 16 -14 12 -116z m-69 -583 c-12 -42 -12 -164 0
-206 6 -20 6 -30 0 -27 -5 4 -9 16 -9 27 0 12 -3 19 -6 15 -8 -7 5 -67 14 -66
19 3 25 -2 13 -10 -10 -7 -11 -12 -1 -27 10 -16 11 -16 6 -1 -10 31 3 18 18
-18 9 -20 13 -42 10 -49 -7 -18 44 -119 56 -111 5 3 12 0 16 -6 4 -8 3 -9 -4
-5 -16 10 -15 1 3 -35 9 -16 20 -27 25 -24 5 3 12 0 16 -6 5 -8 3 -9 -6 -4 -8
5 -11 3 -8 -6 3 -8 10 -14 15 -14 6 0 15 -4 20 -9 5 -5 3 -6 -4 -2 -7 4 -13 5
-13 2 0 -12 61 -101 70 -101 4 0 12 -4 17 -9 5 -5 3 -6 -4 -2 -18 10 -16 -2 8
-40 11 -19 25 -32 29 -29 5 3 12 0 16 -6 5 -8 3 -9 -6 -4 -8 5 -11 3 -8 -6 3
-8 10 -14 16 -14 5 0 14 -4 19 -9 5 -5 2 -6 -6 -1 -9 5 -12 3 -9 -6 3 -8 10
-13 15 -12 5 1 9 -8 9 -20 -1 -12 5 -22 13 -22 7 0 17 -10 22 -22 5 -13 6 -23
3 -23 -2 0 -9 10 -14 23 -9 19 -9 17 -5 -9 6 -30 3 -33 -49 -63 -31 -17 -56
-33 -56 -36 0 -2 29 11 65 31 36 20 65 33 65 30 0 -3 -22 -17 -48 -30 -27 -14
-70 -41 -95 -60 -58 -44 -68 -46 -25 -5 l33 31 -43 -32 c-23 -17 -40 -35 -37
-39 2 -4 -1 -8 -8 -8 -7 0 -78 -4 -158 -8 -99 -5 -152 -4 -166 3 -18 10 -21
24 -26 124 -3 62 -13 138 -22 168 -17 62 -19 97 -4 65 8 -17 9 -17 4 5 -2 14
-5 32 -6 40 0 10 -3 8 -8 -5 -13 -33 -34 118 -27 192 7 69 24 125 26 88 l1
-20 9 20 c5 11 9 27 9 35 1 13 0 13 -9 0 -11 -17 -13 -1 -4 25 5 11 9 13 14 6
5 -9 47 87 112 261 6 15 7 35 4 45 -4 10 -4 14 0 10 4 -3 20 5 36 18 37 31 48
31 49 3 1 -22 2 -19 14 20 9 28 13 9 4 -20z m-2493 -330 l-5 -43 11 43 11 44
18 -69 c21 -79 22 -94 9 -73 -11 17 -13 1 -4 -25 5 -12 9 -13 14 -5 4 7 16
-12 28 -46 11 -33 23 -68 28 -78 5 -14 4 -17 -4 -12 -16 10 -16 6 14 -58 14
-31 30 -54 35 -51 5 4 6 0 3 -8 -6 -16 93 -225 167 -354 33 -56 44 -84 36 -92
-14 -14 -53 8 -97 55 -19 20 -29 34 -22 30 21 -12 13 10 -10 30 -22 19 -23 19
-8 -1 14 -18 14 -19 -2 -6 -10 7 -15 17 -12 22 7 12 -15 51 -26 44 -5 -3 -12
0 -16 6 -4 8 -3 9 4 5 18 -11 15 -2 -22 66 -18 35 -42 85 -51 111 -11 28 -21
43 -25 37 -4 -7 -14 8 -24 36 -21 62 -19 69 5 19 10 -22 16 -29 13 -15 -12 48
-24 71 -33 66 -5 -3 -12 1 -15 10 -4 9 -2 13 5 8 7 -4 10 -1 7 7 -3 8 -11 14
-19 14 -7 0 -15 9 -16 20 l-3 20 9 -20 10 -20 -1 20 c0 11 -4 34 -8 50 l-8 30
-2 -30 c-2 -26 -3 -24 -12 15 -9 43 -5 142 8 208 9 47 17 39 10 -10z"/>
<path d="M10065 3081 c22 -10 47 -26 55 -36 9 -11 1 -8 -23 8 -51 34 -100 41
-170 22 -73 -19 -160 -19 -221 -1 -33 10 -56 12 -73 5 -14 -5 -28 -7 -33 -4
-10 6 -86 -50 -99 -74 -6 -11 -10 -32 -10 -48 2 -26 2 -25 9 7 l7 35 2 -33 c0
-18 6 -43 12 -55 10 -21 10 -21 -5 -3 -9 11 -16 16 -16 10 0 -5 10 -20 21 -34
11 -14 18 -20 15 -13 -5 10 182 -51 284 -93 26 -11 28 -13 8 -9 -14 3 -34 7
-45 10 -10 3 -5 -1 12 -9 l30 -14 -2 -108 c-1 -60 1 -129 6 -154 5 -28 6 3 3
86 -3 72 -1 138 4 147 6 10 9 -25 9 -96 0 -62 3 -141 7 -177 4 -38 3 -52 -2
-35 l-8 30 0 -30 c0 -16 4 -41 8 -55 l8 -25 1 24 c1 33 7 24 14 -24 5 -28 4
-34 -3 -20 l-9 20 0 -20 c0 -11 4 -29 9 -40 l9 -20 1 20 c0 11 11 -11 24 -50
13 -38 27 -79 31 -90 5 -11 5 -17 1 -13 -5 4 -19 35 -32 70 -12 35 -23 57 -23
51 -1 -7 10 -42 24 -79 14 -36 25 -75 25 -85 0 -11 -16 -51 -35 -89 -37 -73
-41 -85 -26 -76 5 4 7 -3 4 -15 -4 -15 -8 -17 -14 -8 -5 9 -10 5 -14 -13 -4
-15 -15 -34 -26 -44 -21 -19 -26 -39 -6 -28 6 4 4 -2 -7 -14 -10 -12 -22 -19
-26 -17 -4 3 -15 -6 -24 -20 -21 -32 -20 -41 2 -24 9 7 6 1 -7 -14 -27 -30
-41 -37 -20 -9 11 14 10 13 -9 -2 -23 -20 -31 -42 -9 -30 6 4 3 -2 -7 -14 -23
-26 -34 -30 -15 -4 13 16 13 16 -5 2 -28 -22 -76 -130 -76 -172 0 -28 7 -42
31 -62 17 -14 41 -26 54 -26 32 0 86 46 78 67 -4 10 -2 14 4 10 13 -8 23 16
22 51 -1 24 -3 23 -9 -8 l-8 -35 1 40 c1 24 7 39 13 38 14 -3 28 43 19 58 -4
5 -1 8 7 7 8 -2 13 6 12 19 0 12 3 20 7 17 11 -6 80 128 74 144 -3 7 0 10 5 7
5 -3 26 27 46 67 20 40 42 76 48 80 11 7 1 12 -17 9 -5 -1 -5 4 -2 10 5 7 19
-1 41 -22 34 -33 47 -52 19 -29 -8 7 -15 8 -15 2 0 -11 31 -39 37 -34 3 2 8 0
11 -4 4 -4 1 -4 -5 0 -17 9 -17 6 7 -47 21 -48 25 -147 5 -144 -5 1 -10 -8 -9
-20 0 -12 -4 -21 -9 -20 -5 1 -12 -4 -15 -12 -3 -9 0 -11 9 -6 8 5 5 -1 -5
-13 -11 -12 -25 -22 -32 -22 -7 0 -27 -12 -46 -27 -28 -24 -30 -24 -13 -4 11
13 35 30 53 38 39 16 43 27 5 12 -29 -11 -93 -67 -93 -82 0 -4 6 -5 13 -1 7 4
9 3 4 -2 -5 -5 -14 -9 -19 -9 -17 0 -37 -64 -36 -115 1 -44 1 -44 8 11 4 30
12 64 19 75 12 18 12 18 5 -1 -4 -11 -9 -46 -12 -77 l-4 -58 -302 1 c-165 1
-359 5 -431 9 -95 5 -52 6 160 5 274 -3 279 -2 95 5 -107 4 -230 8 -274 9
l-78 1 5 48 6 47 -14 -50 c-7 -27 -14 -42 -14 -32 -1 10 4 39 10 63 8 32 14
41 20 32 6 -8 9 -9 9 -1 0 6 3 20 6 30 5 15 4 15 -5 3 -13 -18 -13 -3 -1 25 6
13 9 15 9 5 1 -13 2 -13 11 0 13 20 13 33 0 25 -6 -3 -7 1 -4 9 3 9 9 14 13
11 8 -5 41 58 41 78 0 9 -2 9 -8 0 -5 -7 -8 4 -7 26 0 22 3 37 8 34 4 -2 7 0
7 4 0 12 -68 75 -105 98 -16 10 -55 41 -85 69 -30 28 -48 42 -40 31 15 -20 14
-20 -8 -1 -23 20 -30 32 -11 20 7 -4 10 -1 7 7 -3 8 -10 14 -15 14 -6 0 -15 4
-20 9 -5 6 -2 6 6 1 11 -6 13 -4 6 11 -4 10 -13 39 -20 64 -11 39 -13 42 -17
20 -3 -14 -5 4 -6 40 0 46 2 58 8 40 4 -14 9 -18 9 -10 1 8 4 26 7 40 5 21 4
22 -6 10 -10 -13 -11 -12 -6 3 3 10 6 24 6 30 0 8 3 7 9 -1 6 -10 10 -7 15 13
4 15 5 30 1 33 -3 3 -5 -3 -5 -13 0 -10 -2 -16 -5 -14 -2 3 11 85 30 183 19
98 35 180 35 181 0 2 21 6 46 10 25 3 44 9 41 11 -3 3 -29 1 -59 -5 -33 -6
-81 -6 -123 -1 -55 7 -73 6 -92 -7 -30 -20 -22 -29 9 -10 14 9 37 13 60 10 34
-5 36 -7 27 -25 -12 -23 -39 -109 -38 -123 0 -5 9 13 19 40 20 54 27 49 9 -6
-6 -19 -17 -39 -24 -44 -11 -9 -65 -128 -65 -142 0 -2 4 -1 10 2 6 3 7 -1 4
-9 -3 -9 -11 -14 -17 -13 -15 3 -36 -69 -35 -123 0 -40 1 -39 9 17 4 34 13 70
19 80 10 16 11 16 5 -2 -4 -11 -13 -85 -21 -165 -13 -139 -30 -231 -34 -185
-1 11 -10 -7 -21 -40 -24 -76 -23 -96 1 -30 24 66 25 46 1 -30 -11 -33 -20
-51 -21 -40 -1 11 -12 -11 -24 -50 -12 -38 -30 -84 -39 -102 -20 -38 -21 -47
-4 -37 7 4 9 3 4 -2 -5 -5 -14 -9 -19 -9 -6 0 -13 -6 -16 -14 -3 -9 0 -11 9
-7 8 4 3 -2 -10 -13 -26 -24 -37 -26 -47 -9 -4 7 -3 8 4 4 7 -4 20 -2 29 4 12
7 13 10 3 7 -8 -3 -28 7 -45 22 -27 24 -28 24 -10 2 l20 -24 -28 18 c-25 16
-32 17 -50 5 -20 -12 -21 -12 -8 3 7 10 21 17 30 18 11 0 12 2 3 6 -14 5 -62
-33 -62 -49 0 -5 3 -7 8 -5 4 3 7 -12 7 -34 1 -22 -2 -33 -7 -26 -5 9 -8 7 -8
-4 0 -9 9 -27 21 -40 11 -13 17 -18 13 -10 -4 9 -3 12 4 7 6 -4 9 -12 6 -19
-2 -7 10 -26 27 -42 18 -17 29 -24 24 -16 -5 9 -3 12 6 9 8 -3 14 -10 14 -15
0 -6 4 -15 9 -20 5 -4 7 -3 3 2 -3 7 9 11 33 10 42 0 44 -15 2 -15 -24 -1 -25
-2 -9 -11 35 -20 76 38 141 200 27 67 33 97 15 71 -8 -11 -9 -9 -3 10 11 41
23 70 29 70 2 0 0 -12 -6 -26 -5 -15 -8 -29 -5 -31 2 -2 12 19 21 47 9 28 14
54 11 57 -3 4 -6 -1 -6 -10 0 -9 -4 -18 -9 -21 -5 -4 -4 10 2 29 6 20 13 31
17 24 4 -6 10 0 14 16 4 15 5 30 1 33 -3 3 -5 -3 -5 -13 0 -10 -2 -16 -5 -13
-5 5 20 132 33 168 3 8 4 19 3 23 -1 5 4 5 10 2 8 -5 8 -10 0 -18 -6 -6 -10
-22 -10 -36 1 -21 2 -22 6 -6 7 28 19 39 28 24 6 -8 4 -10 -5 -4 -8 5 -11 3
-8 -6 3 -8 10 -14 16 -14 5 0 14 -4 19 -9 5 -5 3 -6 -4 -2 -22 12 -14 -10 9
-30 22 -19 23 -19 8 1 -12 17 -12 18 0 7 8 -7 15 -19 15 -26 0 -14 80 -106 92
-106 4 0 -13 21 -37 48 l-45 47 53 -50 c49 -46 63 -63 43 -51 -4 3 -8 -7 -8
-22 0 -15 -19 -69 -41 -120 -39 -86 -55 -138 -32 -102 14 21 12 5 -10 -75 -11
-41 -20 -60 -20 -45 l-2 25 -8 -25 c-18 -56 -11 -98 21 -135 17 -19 35 -35 41
-35 5 0 -4 12 -19 26 l-28 26 29 -21 c38 -28 83 -27 143 4 36 19 81 29 178 40
181 22 576 31 689 16 71 -10 98 -10 133 1 24 7 43 16 43 21 0 4 -6 5 -12 1 -8
-4 -10 -3 -5 2 5 5 14 9 20 9 7 0 13 19 15 43 3 34 -1 43 -15 48 -10 3 -34 12
-53 20 -34 14 -17 14 25 -1 11 -3 9 0 -6 9 -26 15 -47 57 -27 53 6 -1 13 4 16
12 3 9 0 11 -9 6 -8 -4 -3 4 11 18 14 14 36 28 50 31 19 4 17 2 -7 -9 -17 -8
-35 -20 -39 -27 -6 -10 -4 -11 7 -1 7 7 21 13 30 13 22 0 62 49 54 67 -2 8 0
11 5 8 9 -6 33 35 63 107 14 34 14 39 -9 88 -13 28 -28 49 -33 46 -5 -4 -13
-1 -17 5 -5 8 -3 9 6 4 8 -5 11 -3 8 6 -3 8 -10 13 -16 12 -6 -2 -9 4 -6 11 6
17 -24 68 -36 61 -5 -3 -12 0 -16 6 -5 8 -3 9 6 4 8 -5 11 -3 8 6 -3 8 -11 13
-17 11 -7 -1 -10 2 -6 7 8 14 -23 73 -35 66 -5 -3 -12 0 -16 6 -5 8 -3 9 6 4
7 -4 11 -4 9 1 -2 5 -19 46 -38 91 -19 46 -38 78 -42 72 -4 -7 -8 -5 -12 5 -3
8 -1 16 5 18 8 3 8 12 -1 34 l-11 29 5 -30 c4 -20 2 -25 -4 -15 -18 30 -60
394 -47 407 2 2 7 -31 11 -74 9 -119 14 -129 10 -20 -3 79 -1 97 11 97 8 0 14
-10 15 -22 1 -34 24 -93 37 -93 5 0 14 -4 19 -9 5 -5 2 -6 -6 -1 -9 5 -12 4
-10 -4 3 -7 8 -12 12 -11 4 0 31 -19 59 -45 98 -88 251 -106 473 -56 50 11
127 23 172 27 72 6 89 4 139 -17 32 -12 51 -25 43 -27 -8 -3 -18 -10 -22 -16
-5 -7 -7 -3 -5 8 2 10 -3 20 -10 22 -7 1 -9 0 -4 -2 5 -3 8 -20 6 -40 -2 -30
3 -39 43 -72 24 -20 51 -50 58 -67 10 -23 14 -25 14 -11 1 12 -22 41 -54 71
-30 28 -55 53 -55 56 0 3 25 -17 55 -45 62 -57 81 -103 69 -169 -5 -34 -8 -38
-15 -22 -6 16 -8 16 -8 3 -1 -9 -4 -25 -7 -35 -5 -15 -4 -15 5 -3 13 18 13 3
1 -25 -5 -11 -9 -14 -9 -7 -1 18 -21 4 -21 -14 0 -8 4 -12 10 -9 6 3 7 -1 3
-10 -4 -13 -8 -14 -14 -4 -5 8 -13 0 -23 -26 -19 -44 -19 -48 -6 -40 6 3 7 -1
4 -9 -3 -9 -10 -14 -14 -11 -8 5 -20 -19 -19 -38 0 -7 4 -4 8 6 4 10 7 -7 6
-41 0 -59 -13 -65 -16 -7 -1 25 -2 26 -6 7 -3 -13 1 -37 7 -53 13 -31 73 -89
92 -89 7 0 3 7 -8 16 -18 15 -18 15 3 4 12 -5 25 -15 29 -22 4 -7 3 -8 -4 -4
-7 4 -12 1 -12 -9 0 -10 5 -14 13 -10 6 4 -2 -7 -19 -23 -17 -16 -73 -53 -125
-82 -52 -29 -107 -64 -124 -79 -26 -23 -27 -23 -10 -2 11 13 40 37 65 52 25
16 41 29 37 29 -14 0 -61 -32 -99 -69 -37 -34 -51 -60 -25 -45 7 4 9 3 4 -2
-5 -5 -14 -9 -19 -9 -6 0 -13 -6 -16 -14 -3 -9 0 -11 9 -6 8 5 11 4 6 -1 -5
-5 -14 -9 -19 -9 -6 0 -13 -6 -16 -14 -3 -8 0 -11 7 -7 7 5 9 1 5 -8 -3 -9
-10 -14 -14 -11 -10 6 -25 -34 -16 -42 3 -4 6 2 6 12 0 10 3 16 6 12 3 -3 3
-15 -1 -26 -5 -18 -10 -19 -28 -10 -21 9 -21 9 2 -10 28 -25 20 -27 -15 -4
-14 9 -42 20 -62 24 -35 8 -35 8 8 4 34 -3 41 -1 27 6 -25 15 -72 7 -72 -11 0
-8 -7 -15 -15 -15 -8 0 -15 -9 -15 -19 0 -15 14 -23 60 -35 82 -23 93 -30 70
-48 -18 -12 -18 -13 3 -13 12 0 22 4 22 10 0 5 11 -2 26 -16 22 -23 31 -25 72
-21 26 3 128 10 227 17 99 6 252 18 340 26 208 19 485 19 551 0 27 -8 139 -19
249 -25 286 -16 288 -16 326 16 32 28 35 28 173 29 187 1 186 0 186 23 0 29
-48 41 -206 51 -141 9 -359 -1 -419 -18 -32 -10 -48 -9 -228 14 -156 19 -408
18 -462 -1 -46 -17 -56 -18 -36 -6 18 11 8 50 -20 82 -11 13 -17 18 -13 10 5
-9 3 -12 -5 -7 -6 4 -9 11 -7 15 3 4 -2 26 -10 50 -8 24 -12 60 -9 84 5 39 4
40 -5 12 -6 -16 -8 -43 -5 -60 4 -26 3 -27 -7 -11 -8 15 -7 36 6 90 9 39 21
78 27 86 9 12 10 12 5 -3 -17 -52 -14 -66 4 -22 21 54 26 79 10 55 -8 -11 -9
-7 -4 15 10 43 26 68 19 30 l-5 -30 11 29 c17 43 -18 72 -96 79 -38 3 -51 2
-35 -3 14 -4 41 -8 61 -9 22 -1 42 -8 50 -18 11 -15 11 -16 -1 -5 -8 6 -28 12
-45 12 -51 0 -126 27 -156 56 -16 15 -29 31 -29 35 0 4 15 -8 34 -27 19 -19
40 -34 47 -34 8 0 -3 11 -23 25 -26 18 -39 35 -43 58 -7 43 -2 106 9 104 5 -1
11 4 14 12 3 9 0 11 -9 6 -8 -5 -11 -4 -6 1 5 5 14 9 19 9 6 0 13 6 16 14 3 8
0 11 -7 7 -8 -5 -8 0 -1 19 16 43 11 136 -10 183 -10 23 -17 42 -15 42 8 0 35
-60 44 -97 7 -28 9 -32 10 -13 1 33 -45 131 -60 128 -27 -7 -14 20 30 57 l46
39 -45 -49 -45 -50 56 53 c37 36 74 85 108 147 54 100 58 110 39 99 -8 -4 -10
-3 -5 2 5 5 14 9 19 9 6 0 13 6 16 14 3 9 0 11 -8 6 -9 -5 -11 -4 -6 4 4 6 11
9 16 6 4 -3 15 6 24 20 23 35 19 45 -5 15 l-21 -25 14 25 c9 14 20 25 26 25
12 0 41 34 42 49 0 5 -8 2 -17 -5 -16 -13 -17 -12 -4 3 7 10 17 16 21 13 4 -3
15 6 24 20 21 32 20 41 -1 24 -16 -11 -16 -11 -5 1 7 8 18 15 24 15 13 0 48
63 48 87 0 26 -48 58 -88 58 -35 0 -102 -36 -102 -54 0 -5 11 1 24 13 51 48
158 33 155 -22 l-2 -22 -4 23 c-2 12 -14 27 -25 33 -29 16 -96 5 -122 -20 -12
-12 -25 -18 -29 -15 -8 8 -39 -54 -33 -65 3 -5 -2 -15 -12 -22 -16 -13 -16
-12 -2 6 15 20 14 20 -8 1 -23 -20 -31 -43 -10 -30 7 4 8 3 4 -5 -4 -6 -11 -9
-16 -6 -10 6 -40 -45 -40 -67 0 -10 2 -10 8 -1 4 7 7 -9 6 -35 -1 -26 -7 -47
-13 -47 -14 0 -34 -30 -55 -85 -10 -25 -21 -51 -24 -59 -4 -10 -1 -12 9 -6 8
5 3 -4 -10 -18 -41 -45 -75 -44 -185 3 -105 45 -249 80 -331 80 -34 0 -65 -8
-97 -25 -46 -25 -145 -44 -223 -45 -60 0 -106 16 -145 51 l-35 30 36 -25 c47
-34 59 -33 19 0 -43 36 -60 74 -62 136 l-1 53 -7 -50 c-3 -30 -6 8 -5 92 0 78
3 134 7 125 6 -15 7 -15 7 1 2 56 -89 158 -141 157 -7 0 5 -9 27 -19z m1035
-776 c5 3 12 0 16 -6 4 -8 3 -9 -4 -5 -9 5 -12 -12 -10 -61 1 -60 2 -62 5 -18
4 53 16 75 28 54 5 -8 4 -10 -3 -5 -14 9 -15 -4 -2 -24 9 -13 10 -13 11 0 1
28 18 -24 17 -55 -1 -30 -1 -29 -9 5 -7 31 -7 30 -6 -17 1 -28 -1 -49 -5 -47
-8 5 -38 -49 -38 -68 0 -9 3 -9 10 2 9 13 10 13 9 0 -1 -8 -5 -26 -9 -40 -7
-21 -8 -22 -10 -5 l-1 20 -9 -20 c-5 -11 -9 -33 -9 -50 -1 -36 35 -119 48
-111 5 3 15 -2 22 -11 12 -14 12 -16 0 -9 -9 6 -12 5 -9 -5 3 -8 11 -13 17
-11 6 1 10 -3 9 -10 -2 -7 4 -12 12 -13 8 0 39 -16 68 -34 53 -35 70 -51 30
-30 -21 11 -22 11 -10 -4 10 -12 11 -24 3 -54 -6 -21 -10 -60 -10 -88 2 -44 3
-41 9 24 5 40 13 78 19 84 8 8 8 2 2 -20 -5 -17 -12 -93 -17 -169 -6 -100 -10
-128 -15 -99 l-6 40 -2 -38 c-1 -29 -6 -40 -23 -48 -21 -9 -21 -9 5 -5 19 2
25 0 19 -6 -7 -7 -34 -6 -79 1 -37 5 -115 13 -173 17 -91 5 -160 23 -160 40 0
3 5 2 10 -1 6 -4 10 6 10 24 0 16 5 33 10 36 6 3 10 11 10 17 0 6 -7 5 -17 -3
-10 -7 -2 4 17 25 40 43 127 107 217 160 34 20 69 46 78 58 8 13 15 17 15 11
0 -6 -17 -25 -37 -42 -21 -17 -33 -31 -27 -31 20 0 77 68 71 84 -4 9 -10 15
-14 14 -8 -3 -153 109 -153 118 0 3 5 2 12 -2 8 -5 9 -2 5 10 -4 10 -8 34 -8
54 l-2 37 -7 -35 -7 -35 -2 37 c0 22 5 40 13 45 16 9 46 66 45 85 0 7 -9 -6
-19 -29 -11 -24 -21 -43 -24 -43 -3 0 3 19 13 43 30 69 44 149 39 218 -3 35
-3 58 0 51 2 -6 8 -10 12 -7z"/>
<path d="M52 1348 c-9 -4 3 -5 28 -3 l45 5 -50 -15 c-59 -17 -76 -19 -55 -4
13 9 13 10 0 6 -17 -4 -22 -65 -7 -84 11 -14 101 -16 207 -3 42 5 19 6 -66 3
-72 -3 -134 -2 -137 3 -2 5 48 10 114 11 201 3 349 27 349 57 0 6 5 4 10 -4 8
-13 10 -13 10 1 0 27 -91 40 -269 37 -89 -2 -169 -6 -179 -10z"/>
<path d="M5445 1279 c-66 -4 -203 -13 -305 -18 -160 -10 -203 -16 -315 -46
-71 -19 -181 -42 -243 -50 -147 -20 -412 -19 -582 1 -166 20 -437 22 -628 4
-87 -8 -206 -11 -305 -7 -238 8 -450 -15 -551 -58 -15 -6 -17 -5 -11 5 5 9 4
11 -4 6 -6 -4 -9 -12 -6 -17 4 -5 -1 -9 -9 -9 -8 0 -18 -6 -22 -12 -4 -7 -4
-10 1 -6 4 4 13 4 19 -1 6 -4 52 -4 101 1 118 12 1274 15 1525 4 232 -10 389
4 710 62 l205 37 425 0 c304 0 455 4 530 14 77 10 140 11 235 5 150 -9 281 -8
485 5 170 11 183 13 188 32 3 11 1 11 -7 -1 -7 -10 -11 -11 -11 -3 0 32 -80
38 -480 38 -318 -1 -427 -4 -561 -19 -104 -12 -184 -16 -215 -11 l-49 7 40 14
c22 7 41 14 43 14 1 0 2 5 2 10 0 11 -28 11 -205 -1z"/>
<path d="M7740 1249 c-219 -11 -402 -27 -522 -44 -148 -22 -163 -26 -163 -50
0 -19 7 -20 140 -19 79 0 240 12 370 27 352 40 382 41 461 24 38 -9 161 -23
274 -32 113 -8 290 -30 394 -47 208 -34 173 -34 631 3 80 7 246 8 430 4 298
-7 301 -7 415 19 158 35 257 53 375 66 55 7 103 14 107 17 5 2 15 0 24 -5 12
-6 -12 -12 -77 -17 -68 -5 -88 -10 -72 -16 14 -5 55 -2 105 6 46 8 151 20 233
26 83 6 188 14 235 19 73 7 64 7 -55 4 -77 -2 -186 -9 -242 -15 -92 -11 -105
-10 -129 6 -15 10 -53 19 -88 21 -79 6 -373 -13 -502 -32 -68 -10 -233 -17
-505 -21 -625 -10 -779 -9 -820 5 -31 11 -180 28 -454 52 -107 10 -376 9 -565
-1z"/>
<path d="M12606 1219 c-30 -24 -31 -49 -1 -58 11 -2 57 -5 102 -5 45 -1 76 -5
70 -9 -8 -6 -7 -7 3 -4 10 2 15 17 15 48 l0 44 -60 -4 c-33 -2 -77 -9 -97 -16
-47 -16 -50 -9 -5 10 17 8 25 14 16 15 -9 0 -28 -10 -43 -21z"/>
<path d="M10883 1199 c-84 -4 -193 -15 -242 -23 -49 -9 -98 -13 -108 -10 -15
5 -16 4 -3 -6 13 -10 11 -11 -8 -7 -12 3 -20 1 -16 -4 3 -5 -2 -9 -10 -9 -9 0
-16 -6 -16 -13 0 -20 36 -50 52 -44 9 4 7 6 -4 6 -9 1 -19 5 -22 9 -2 4 21 3
52 -3 30 -5 48 -11 39 -13 -10 -2 -15 -8 -11 -13 3 -5 10 -7 15 -4 5 3 6 0 4
-8 -5 -11 52 -13 352 -10 197 2 383 6 413 10 30 4 58 6 63 5 4 -1 7 2 7 7 0
19 -168 33 -465 39 -397 8 -351 21 98 29 l327 5 -3 26 c-3 25 -6 25 -88 28
-46 1 -127 5 -179 7 -52 3 -163 1 -247 -4z"/>
</g>
</svg>
