<?xml version="1.0" standalone="no"?>
<!DOCTYPE svg PUBLIC "-//W3C//DTD SVG 20010904//EN"
 "http://www.w3.org/TR/2001/REC-SVG-20010904/DTD/svg10.dtd">
<svg version="1.0" xmlns="http://www.w3.org/2000/svg"
 width="705.000000pt" height="125.000000pt" viewBox="0 0 705.000000 125.000000"
 preserveAspectRatio="xMidYMid meet">
<metadata>
Created by potrace 1.16, written by Peter Selinger 2001-2019
</metadata>
<g transform="translate(0.000000,125.000000) scale(0.100000,-0.100000)"
fill="#000000" stroke="none">
<path d="M1710 708 c0 -355 2 -386 19 -425 25 -54 66 -75 159 -81 l72 -5 0 72
0 71 -40 0 -40 0 0 375 0 375 -85 0 -85 0 0 -382z"/>
<path d="M2062 703 c3 -367 4 -390 23 -422 34 -58 65 -74 155 -79 l80 -5 0 72
0 71 -40 0 -40 0 0 375 0 375 -91 0 -90 0 3 -387z"/>
<path d="M5600 696 c0 -393 0 -393 23 -427 31 -46 69 -63 155 -67 l72 -4 0 71
0 71 -40 0 -40 0 0 375 0 375 -85 0 -85 0 0 -394z"/>
<path d="M6350 910 c0 -99 -3 -180 -7 -180 -5 1 -17 15 -28 33 -11 18 -40 42
-65 55 -109 55 -236 2 -291 -121 -21 -46 -24 -67 -24 -182 0 -115 3 -136 24
-182 44 -99 133 -152 230 -139 57 8 101 34 126 74 11 17 23 31 28 32 4 0 7
-22 7 -50 l0 -50 85 0 85 0 0 445 0 445 -85 0 -85 0 0 -180z m-50 -227 c16 -9
33 -27 39 -40 15 -32 14 -225 -1 -258 -34 -75 -173 -72 -213 5 -21 40 -21 210
0 250 29 56 117 78 175 43z"/>
<path d="M130 620 l0 -420 90 0 90 0 0 175 0 175 165 0 165 0 0 -175 0 -175
85 0 85 0 0 420 0 420 -85 0 -85 0 0 -165 0 -165 -165 0 -165 0 0 165 0 165
-90 0 -90 0 0 -420z"/>
<path d="M2595 827 c-22 -8 -54 -21 -72 -30 -109 -57 -163 -249 -113 -409 40
-129 131 -193 275 -193 63 0 90 5 127 23 62 31 111 86 138 158 19 50 21 74 18
159 -3 83 -8 108 -30 150 -32 61 -80 109 -132 130 -53 22 -161 28 -211 12z
m166 -156 c29 -29 29 -29 29 -156 0 -127 0 -127 -29 -156 -34 -33 -92 -39
-140 -15 -41 22 -51 55 -51 174 1 146 23 181 118 182 35 0 49 -6 73 -29z"/>
<path d="M990 602 c0 -260 8 -307 62 -359 85 -81 233 -63 291 35 l22 37 3 -57
3 -58 84 0 85 0 0 315 0 315 -85 0 -85 0 0 -210 c0 -229 -5 -255 -55 -278 -45
-21 -99 -15 -126 14 -24 25 -24 28 -27 250 l-3 224 -85 0 -84 0 0 -228z"/>
<path d="M3332 818 c3 -7 43 -149 89 -316 l84 -303 89 3 89 3 38 130 c20 72
47 167 60 213 12 46 25 80 28 75 4 -4 33 -102 66 -216 l58 -208 91 3 90 3 39
140 c21 77 60 218 86 313 l49 173 -81 -3 -80 -3 -38 -160 c-22 -88 -44 -186
-50 -217 -6 -32 -15 -58 -20 -58 -4 0 -13 19 -19 43 -11 40 -64 233 -96 345
l-15 52 -79 0 -78 0 -50 -182 c-28 -101 -56 -203 -63 -228 -15 -58 -16 -56
-75 203 l-48 207 -84 0 c-63 0 -83 -3 -80 -12z"/>
<path d="M4390 602 c0 -260 8 -307 62 -359 85 -81 233 -63 291 35 l22 37 3
-57 3 -58 84 0 85 0 0 315 0 315 -85 0 -85 0 0 -210 c0 -229 -5 -255 -55 -278
-45 -21 -99 -15 -126 14 -24 25 -24 28 -27 250 l-3 224 -85 0 -84 0 0 -228z"/>
<path d="M5110 515 l0 -315 85 0 85 0 0 194 c0 107 4 206 10 221 13 34 64 55
135 55 l55 0 0 81 0 82 -47 -7 c-60 -8 -93 -31 -118 -84 -11 -23 -23 -41 -27
-42 -5 0 -8 29 -8 65 l0 65 -85 0 -85 0 0 -315z"/>
<path d="M6744 401 c-58 -25 -74 -126 -30 -178 21 -24 32 -28 74 -28 74 0 102
29 102 105 0 47 -4 60 -24 79 -27 25 -89 36 -122 22z"/>
</g>
</svg>
